<?xml version="1.0" encoding="UTF-8"?>
<svg id="Layer_1" data-name="Layer 1" xmlns="http://www.w3.org/2000/svg" viewBox="0 0 100 100">
  <path d="M100,31.82v1.7c-.39,1.24-1.19,2.03-2.35,2.74l-14.78,8.95c-1.39.84-2.88.86-4.39-.04.99,9.33,2.3,18.75,5.05,27.61.77,2.47,1.72,4.79,2.84,7.08.51,1.04.3,1.97-.32,2.85-3.54,4.98-9.64,6.89-15.46,4.99-2.82,4.23-7.69,4.66-12.53,3.37-5.31,3.46-10.53,3.3-15.92,0-4.99,1.27-9.63.84-12.54-3.39-6.05,2-12.2-.21-15.68-5.33-.66-.97-.57-1.6-.03-2.65,4.77-9.3,6.68-23.84,7.85-34.54-1.44.84-2.92.92-4.26.1L1.84,35.8c-1.7-1.03-2.08-3.29-1.19-4.94L10.89,11.69c.4-.76,1.08-1.49,1.73-1.98l3.77-2.83c.9-.68,1.44-.14,2.2.27,5.14,2.81,10.51,4.92,16.22,6.41,8.4,2.19,16.96,2.59,25.48,1.17.89-.15,1.61.64,1.64,1.36.04.81-.51,1.42-1.36,1.56-7.2,1.19-14.36,1.12-21.54-.14-4.29-.75-8.15-1.99-12.45-3.35,3.78,3.1,7.86,5.35,12.28,7.02,12.44,4.71,24.52,1.04,34.75-6.96l-6.96,2.14c-.87.27-1.69-.34-1.86-1.09-.18-.82.26-1.54,1.16-1.79,5.42-1.5,10.68-3.43,15.56-6.26.87-.5,1.41-1.03,2.43-.26l3.64,2.75c.76.57,1.41,1.36,1.88,2.23l10.56,19.88ZM80.11,19.55c2.06-.28,3.51,1.04,3.99,2.53.57,1.77-.23,3.53-1.65,4.35-1.56.9-3.45.58-4.61-.66s-1.38-3.16-.29-4.75l-2.57-4.05c-2.01,1.44-4.02,2.76-6.24,4.06l2.04,3.72c1.89-.1,3.4,1.08,3.87,2.68.5,1.74-.33,3.49-1.74,4.29-1.65.93-3.57.49-4.68-.82s-1.23-3.27-.06-4.8l-2.02-3.69-5.69,2.23.8,3.92c1.91.38,3.06,1.95,3.06,3.71s-1.27,3.25-3,3.61-3.44-.55-4.13-2.12-.31-3.38,1.19-4.56l-.78-3.82c-2.13.42-3.96.66-6.06.82l.02,5.15c1.84.84,2.62,2.66,2.13,4.47-.43,1.58-1.96,2.74-3.67,2.7s-3.18-1.26-3.54-2.85c-.41-1.8.41-3.48,2.12-4.32v-5.14c-2.07-.2-4.08-.48-6.06-.81l-.74,3.82c1.57,1.2,1.95,3.15,1.02,4.84-.77,1.39-2.52,2.21-4.23,1.74-1.61-.45-2.8-1.94-2.74-3.73.06-1.65,1.22-3.15,3.07-3.54l.81-3.91c-1.9-.69-3.8-1.44-5.68-2.24l-2.04,3.7c1.16,1.48,1.12,3.47-.04,4.81s-3.09,1.72-4.68.82c-1.45-.82-2.26-2.6-1.74-4.32.49-1.6,2-2.76,3.87-2.66l2.03-3.75c-2.29-1.34-4.23-2.62-6.22-4.05l-2.58,4.05c1.07,1.54.91,3.46-.29,4.75s-3.12,1.6-4.71.63c-1.41-.87-2.14-2.65-1.56-4.36.55-1.61,2.12-2.74,4.02-2.5l2.8-4.36-5.72-5.19-3.44,2.64-7.91,14.82,16.54,10.02.2-3.15c.06-.91.84-1.47,1.68-1.34.69.1,1.3.69,1.25,1.58-.7,12.29-2.14,25.12-5.35,36.97,2.87,1.6,6.23,1.58,9.34.47.44-.16,1.19-.23,1.56-.04.3.16.65.67.84,1.06,1.69,3.45,6.1,3.54,9.82,2.43.68-.2,1.28-.07,1.86.32,4.36,2.92,8.75,2.97,13.09,0,.57-.39,1.18-.53,1.87-.33,3.8,1.14,8.3,1,9.85-2.54.46-1.04,1.33-1.28,2.37-.9,3.08,1.11,6.47,1.13,9.33-.47-3.21-11.83-4.66-24.7-5.35-36.97-.05-.97.65-1.57,1.42-1.6.9-.04,1.44.61,1.52,1.53l.24,2.91,16.48-9.97-7.9-14.79-3.49-2.61c-1.98,1.93-3.72,3.49-5.69,5.18l2.84,4.38ZM19.36,22.45c-.46.14-.64.8-.46,1.17.13.28.72.46,1.14.29.29-.12.43-.71.3-1.05-.09-.26-.67-.51-.98-.41ZM80.15,22.51c-.46.3-.49.99-.25,1.22s.8.33,1.04.19c.32-.17.46-.82.29-1.14-.13-.24-.79-.47-1.08-.27ZM28.91,27.7c-.44.13-.69.71-.58,1,.16.4.7.66,1.01.56.43-.15.64-.7.52-1.08-.08-.26-.64-.57-.95-.48ZM70.82,27.71c-.51.11-.67.85-.47,1.2.14.25.7.42,1.05.32.28-.08.49-.7.4-1.04-.07-.28-.61-.57-.98-.49ZM19.06,42.82c.42.25,1.02-.06,1.18-.31l1.37-2.09L4.45,30.01l-1.24,2.3c-.22.41.09.96.51,1.22l15.34,9.28ZM81.28,42.74l15.2-9.21c.51-.31.74-.85.45-1.38l-1.21-2.16-17.15,10.4,1.39,2.1c.24.36.81.56,1.32.25ZM39.39,31.45c-.61.15-.72.79-.53,1.14.13.24.67.46.98.39s.6-.69.51-1.05c-.06-.27-.62-.57-.97-.49ZM60.26,31.47c-.51.21-.57.96-.33,1.26.17.22.7.3,1.07.16.3-.11.43-.7.29-1.07-.1-.26-.69-.5-1.03-.36ZM49.52,34.23c-.28.3-.21.99.02,1.16s.95.2,1.14-.02c.2-.24.24-.82.09-1.07-.18-.3-.92-.42-1.24-.07ZM68.43,85.5c.37-.87,1.11-1.07,1.94-.88l3.7.84c3.83.35,7.46-1.35,9.58-4.48-1.11-2.2-1.91-4.29-2.73-6.61-3.31,1.59-6.88,1.65-10.35.65-2.88,4.22-7.68,4.61-12.51,3.33-5.3,3.45-10.61,3.34-15.94,0-4.83,1.29-9.63.89-12.51-3.33-3.52,1.06-7.1.86-10.37-.62-.82,2.4-1.62,4.43-2.7,6.59,1.87,2.77,4.98,4.43,8.4,4.5,1.69-.03,3.3-.34,4.87-.87.89-.3,1.62.12,1.98.95,1.49,3.48,6.03,3.76,9.79,2.61.64-.19,1.25-.16,1.8.2,4.44,2.93,8.89,3.18,13.28.08.61-.43,1.22-.5,1.92-.28,3.73,1.15,8.29.91,9.82-2.66Z"/>
  <path d="M23.58,78.1c1.17-.17,2.07.7,2.22,1.66.17,1.11-.64,2.06-1.61,2.24-1.1.2-2.05-.53-2.27-1.47-.26-1.12.42-2.25,1.66-2.42Z"/>
  <path d="M76.27,78.08c1.12-.04,1.95.79,2.05,1.78.11,1.12-.72,2.09-1.82,2.16s-2.05-.72-2.13-1.86c-.07-1.01.75-2.03,1.9-2.08Z"/>
  <path d="M49.33,83.55c1.15-.42,2.24.25,2.57,1.27s-.2,2.07-1.19,2.42-2.12-.08-2.55-1.16c-.35-.87.03-2.1,1.17-2.53Z"/>
  <path d="M36.45,82c1.15-.45,2.19.13,2.58,1.09s-.09,2.14-1.06,2.54-2.08-.01-2.53-.91c-.49-.98-.14-2.28,1.01-2.73Z"/>
  <path d="M62.2,82.01c1.1-.47,2.22.07,2.61,1.02s0,2.18-1.06,2.61c-.91.37-2.02.03-2.52-.95-.44-.87-.17-2.19.97-2.68Z"/>
</svg>