<?xml version="1.0" encoding="UTF-8"?>
<svg id="Layer_1" data-name="Layer 1" xmlns="http://www.w3.org/2000/svg" viewBox="0 0 100 100">
  <path d="M0,78.75l.09-2.7,4.93-29.32v-18.47c.12-4.05,3.36-7.38,7.45-7.38h12.1s18.28-6.1,18.28-6.1c.86-.14,1.71.28,1.84,1.16l1.54,10.56c.14.95-.44,1.69-1.3,1.78-.71.07-1.47-.38-1.6-1.22l-.44-2.77-16.49,5.25.03,5.38c0,2.01-.69,3.96-2.12,5.39l-5.84,5.85c-1.43,1.44-3.37,2.16-5.39,2.17h-5.33s-.5,3.16-.5,3.16l7.18.02c3.93.01,7.46,1.67,10.19,4.67l2.08-7.22,18-12.26-.44-3.15c-.13-.94.38-1.68,1.27-1.8.69-.09,1.51.38,1.64,1.22l.53,3.57,5.72,3.95,1.16-1.12c.59-.57,1.53-.37,2,.11s.55,1.41.08,1.94l-.71.8,4.7,3.25,1.05-1.13c.66-.7,1.57-.87,2.28-.2.57.53.65,1.46.02,2.12l-.88.91,4.04,2.81c.42-.63.97-1.22,1.58-1.24.71-.02,1.32.42,1.51,1.04s-.13,1.26-.62,1.9l4.72,3.26,13.76.02c.86,0,1.29,1.02,1.21,1.66-.08.58-.64,1.26-1.4,1.26h-13.15s-2.62,4.93-2.62,4.93c-.17.32-.73.7-1.09.81-4.05,1.22-7.23,4.2-7.85,8.42l10.84,1.12c2.45.25,4.91-.1,7.37-.33,6.22-.58,11.94-2.82,15.4-8.06-.26-2.23-1.64-4.24-3.4-5.52-.8-.58-.9-1.61-.27-2.28.55-.58,1.44-.62,2.19-.02,2.33,1.87,4.21,4.61,4.43,7.75s-.52,6.45-1.84,9.42c-2.9,6.51-9.21,10.85-16.46,10.86l-35.76.05-6.13-6.11h-4.02s-.01,4.71-.01,4.71c0,.72-.63,1.41-1.43,1.41l-27.07-.06c-3.61,0-6.21-3.09-7.03-6.24ZM42.5,21.29l-.5-3.1-15.65,5.21.06,3.01,16.09-5.12ZM23.41,26.98l-.02-3.18-10.92.02c-1.91,0-3.61,1.31-4.24,3.15h15.17ZM22.16,38.25c.86-.89,1.27-1.98,1.31-3.15l-.05-5.16H7.98s0,15.42,0,15.42h5.21c1.26-.06,2.39-.53,3.28-1.41l5.69-5.7ZM66.27,80.58c0-1.03.82-1.61,1.62-1.54.85.08,1.35.76,1.34,1.65v1.4s9.28,0,9.28,0l.02-1.59c0-.87.7-1.47,1.49-1.46.74.01,1.45.6,1.46,1.46l.03,1.58c7.01-.43,13.05-5.23,14.83-12.13-6.15,5.5-14.43,7.02-22.48,6.26l-26.8-2.97c-.89-.1-1.27-1.13-1.15-1.73.16-.76.83-1.28,1.67-1.19l12.67,1.4c.72-5.22,4.38-9.41,9.5-10.74l2.19-4.1-4.05-2.79-2.04,2.8c-.51.71-1.47.77-2.09.3-.54-.41-.79-1.3-.34-1.94l2.01-2.87-4.41-3.04-2.8,2.86c-.59.6-1.56.41-2.03-.11-.55-.6-.53-1.45.05-2.07l2.29-2.4-4.73-3.27-3.39,3.53c-.62.64-1.6.48-2.1-.02-.62-.63-.53-1.57.09-2.18l2.95-3.03-5.07-3.48-17.09,11.65-2.43,8.78,5.14,10.25h8.83c.91-.01,1.6.55,1.65,1.43.04.77-.6,1.53-1.49,1.53h-9.56c-8.81,3.78-18.54,3.93-27.72.57l-.58,3.6c-.23,2.61,1.46,4.95,4.07,5.02l4.02.1.02-1.62c.01-.74.61-1.34,1.29-1.44.57-.08,1.55.35,1.58,1.07l.09,1.98h9.26s.02-1.6.02-1.6c.01-.86.71-1.45,1.46-1.46s1.47.59,1.48,1.46l.02,1.59h6.22s0-4.51,0-4.51c0-.9.61-1.61,1.53-1.61l6.68.02,6.15,6.11h7.08s0-1.41,0-1.41c0-.93.6-1.63,1.47-1.65.78-.02,1.48.57,1.49,1.46l.02,1.59h9.29s0-1.51,0-1.51ZM28.95,70.55l-5.29-10.57c-1.91-3.4-5.33-5.45-9.24-5.55h-7.69s-2.66,15.97-2.66,15.97c8.3,3.12,16.46,3.48,24.88.16Z"/>
</svg>