<?xml version="1.0" encoding="UTF-8"?>
<svg id="Layer_1" data-name="Layer 1" xmlns="http://www.w3.org/2000/svg" viewBox="0 0 100 100">
  <path d="M100,85.78v1.36s-.46.89-.46.89c-.88,2.15-.94,4.31-.09,6.48.59,1.5-.2,3.32-1.88,3.64l-9.07,1.85h-1.56c-1.17-.46-1.91-1.35-2.02-2.68-.15-1.81-.97-3.47-2.27-4.72l-1.79-1.71-3.71-8.17-1.86,4.18c-.87,3.67,1.15,8.22-1.84,8.22H26.55c-.94,0-1.45-.7-1.47-1.55-.05-2.24.13-4.51-.1-6.69l-1.96-4.12-3.69,8.13-1.79,1.72c-1.3,1.25-2.12,2.91-2.27,4.72-.11,1.33-.85,2.22-2.02,2.68l-1.53-.07-9.25-1.83c-1.62-.32-2.28-2.21-1.73-3.59,1.74-4.44-.85-7.17-.52-8.38L19.92,14.71c.59-2.15,2.61-3.29,4.32-4.27.9-.51,1.86-.54,2.39.41.38.67.12,1.56-.7,2.03l-1.87,1.08c-1.41.81-2.02,2.8-1.46,4.35,1.57,4.33,2.4,8.63,2.4,13.29v29.98c0,.93-.74,1.47-1.51,1.45-.7-.02-1.41-.56-1.41-1.46l-.02-30.35c0-2.93-.31-5.68-1.31-8.58L3.48,85.34l13.8,3,4.82-10.73-.02-9.18c.03-.86.68-1.47,1.44-1.5.79-.02,1.49.59,1.49,1.48v7.99c0,3.04.78,5.94,2.34,8.59h45.51c1.5-2.62,2.33-5.41,2.33-8.45V31.61c0-4.51.76-8.67,2.27-12.86.71-1.69.26-3.93-1.45-4.88l-11.31-6.28c-3.66,4.63-9.02,7.11-14.68,7.09-5.64-.02-10.95-2.59-14.51-7.09l-3.54,1.96c-.72.4-1.66-.04-1.96-.66s-.12-1.53.56-1.91l4.36-2.45,1.71-2.78c.57-.93,1.52-1.49,2.46-1.56,1.08-.08,1.9.39,2.7,1.1,5.02,4.48,11.62,4.48,16.62,0,.84-.75,1.7-1.23,2.88-1.08.81.1,1.74.68,2.26,1.53l1.73,2.81,11.87,6.59c1.79.99,2.84,2.48,3.39,4.46l15.48,56.18c.25.92-.3,1.65-1.05,1.84-.65.16-1.52-.14-1.75-.97l-13.79-50.01c-1.08,2.92-1.19,5.64-1.32,8.59v46.38s4.82,10.75,4.82,10.75l13.78-3-1.71-6.25c-.22-.79.42-1.57,1.03-1.71.79-.19,1.58.19,1.81,1.01l2.17,7.39ZM60.84,3.05c-6.64,6.21-15.18,5.9-21.56-.02l-1.59,2.61c3.05,3.99,7.63,6.14,12.49,6.11,4.79-.03,9.29-2.16,12.31-6.11l-1.65-2.59ZM72.17,92.19v-4.28s-44.15,0-44.15,0v4.28s44.15,0,44.15,0ZM12.33,97.01c.33-2.6,1.29-4.41,2.77-6.14l-11.22-2.44c.66,2.41.51,4.63-.33,6.94l8.78,1.64ZM96.62,95.33c-.9-2.62-.9-4.59-.31-6.89l-11.22,2.44c1.52,1.73,2.47,3.71,2.77,6.15l8.75-1.7Z"/>
  <path d="M65.12,55c5.26-7.88,3.61-18.31-3.63-24.19s-17.92-5.24-24.42,1.5-6.79,17.32-.68,24.39,16.76,8.4,24.45,2.74c.63-.47,1.47-.32,1.92.14.55.55.61,1.62-.05,2.11-8.77,6.62-21.08,5.26-28.3-2.82s-7.12-20.5.39-28.45,19.67-8.83,28.22-2.14c8.57,6.7,10.7,18.87,4.65,28.14-.43.66-1.19.88-1.94.54-.59-.27-1.1-1.25-.62-1.96Z"/>
  <path d="M55.99,51.94v2.65c-.03,3.41-2.69,6.07-5.99,6.02s-5.79-2.8-5.79-6.22v-2.44c-1.17-.69-2.05-1.28-3.14-2.1l-.99.37c-.87.33-1.67.09-2.05-.65-.41-.79-.02-1.75.91-2.05.69-.22,1.24-.77,1.45-1.46.3-.94,1.27-1.28,2.06-.88s1.05,1.36.47,2.29c4.04,3.89,10.3,3.88,14.34,0-.59-.94-.29-1.91.47-2.29s1.76-.06,2.06.88c.22.69.76,1.24,1.45,1.46.87.28,1.28,1.15.97,1.92-.33.82-1.19,1.13-2.11.78l-.99-.38c-1.06.81-1.85,1.36-3.13,2.1ZM53.01,54.89l.04-1.9c-2.08.44-3.83.44-5.9,0l.04,1.97c.04,1.61,1.51,2.76,2.99,2.71,1.39-.04,2.78-1.16,2.82-2.79Z"/>
  <path d="M59.78,42.46c-1.5-1.11-3.28-1.16-4.72-.05-.6.46-1.51.36-2-.22-.46-.54-.51-1.48.16-2.04,2.35-1.96,5.71-2,8.14-.16.69.52.86,1.34.45,2.05-.34.58-1.31.95-2.03.42Z"/>
  <path d="M45.19,42.44c-1.5-1.13-3.28-1.11-4.72,0-.63.48-1.6.29-2.01-.27-.52-.72-.36-1.6.37-2.16,2.43-1.84,5.78-1.8,8.14.16.62.51.6,1.4.24,1.92-.43.62-1.36.87-2.03.36Z"/>
</svg>