<?xml version="1.0" encoding="UTF-8"?>
<svg id="Layer_1" data-name="Layer 1" xmlns="http://www.w3.org/2000/svg" viewBox="0 0 100 100">
  <path d="M100,55.95l-.02,2.91c-.41,1.38-.78,2.73-1.88,3.79-.18,2-1.09,3.7-2.41,5.19-3.95,4.19-10.97,5.92-16.71,5.92H23.96c-7.65-.01-16.83-1.98-23.04-6.44-.61-.44-.9-1.21-.61-1.9l3.22-7.76c-1.18-3.46.12-8.19,1.37-11.83s2.69-7.25,4.41-10.79,5.37-6.04,9.38-6.4c4.36-.39,4.93,5.22,8.45,9.11,2.92,3.23,6.84,1.68,10.54-.43-2.24-2.5-2.27-5.65-.73-8.55,1.07-2.01,2.72-3.23,5.2-2.77,1.88.35,3.73,1.2,5.42,2.29l11,7.13c.62-1.03,1.56-1.25,2.29-.82.84.49,1,1.48.33,2.38l1.87,1.13c.41.24,1.59-1.86,2.91-.62.65.62.69,1.5,0,2.27l2.28,1.2c.59-1.08,1.56-1.36,2.34-.91.88.5.95,1.57.33,2.37l2.29,1.14c.58-1,1.49-1.2,2.24-.79.83.45.82,1.32.55,2.21,1.9.72,3.79,2.02,5.72,2.42,4.55.4,11.98.54,15.27,3.16,1.72,1.37,2.52,3.39,3,5.39ZM40.17,35.59c2.13-1.69,3.81-3.16,5.59-4.95-1.36-.8-2.47-1.27-3.82-1.74l-1.62.1c-.79,1.14-1.3,2.23-1.58,3.56.13,1.18.51,2.23,1.41,3.02ZM25.6,40.46c-2.73-2.6-3.77-5.91-6.02-8.87-3.36-.01-6.36,1.93-7.75,4.99l-.74,1.63,8.38,2.75c2.02.66,4.14.55,6.13-.5ZM8.13,45.56c-1.14,3.43-2.55,7.46-1.94,10.56l35.56,4.75c-2.46-4.07-9.03-7.03-13.45-8.85-.81-.33-1.25-1.02-1.1-1.77s.99-1.46,1.84-1.13c2.54.99,4.93,2.15,7.35,3.41l15.8-17.58-3.94-2.6c-2.7,2.75-5.4,5.11-8.55,7.15-3.36,2.17-7.34,3.87-11.23,2.69-2.93,2.14-6.5,2.72-9.91,1.61l-8.64-2.83-.72,1.79c4.97,1.31,9.68,2.66,14.47,4.32.81.28,1.11,1.22.92,1.79-.25.74-.97,1.3-1.78,1.03-4.86-1.61-9.6-3.05-14.68-4.33ZM70.9,45.74l-2.22-1.15-1.63,1.62c-.6.6-1.61.48-2.13-.11s-.49-1.49.12-2.1l.88-.87-2.16-1.22-1.48,1.48c-.64.64-1.65.63-2.24-.03-.51-.57-.48-1.49.13-2.09l.89-.88-2.08-1.28-1.67,1.63c-.61.59-1.6.49-2.13-.11s-.48-1.48.12-2.09l1.04-1.05-1.68-.88-15.71,17.49c2.8,1.89,5.23,4.02,6.17,7.19l14.31,1.63c1.94-4.02,6.16-7.36,10.16-9.29,1.87-.9,3.73-1.27,5.81-1.46,2.72-.26,6.3-1.35,4.92-1.98l-6.6-3.03-1.8,1.76c-.61.6-1.6.49-2.13-.1s-.48-1.49.12-2.1l.98-.99ZM83.71,55.06c3.04-.98,5.88-2.03,9-3.26-2.95-.81-5.83-1.07-8.94-1.28-.29,3.25-3.92,3.91-7.23,4.56,1.39,1.39,4.91.71,7.17-.02ZM3.5,65.46c5.68,3.7,13.95,5.32,20.9,5.32l55.49-.03c4.78,0,12.61-2.13,14.74-6.6-4.69,1.25-9.19,2.08-13.91,2.49-.92.08-1.54-.66-1.57-1.44-.02-.69.5-1.41,1.33-1.5,5.35-.55,10.58-1.45,15.66-3.17,1.35-2.14,1.08-4.71-.18-6.77l-11.47,4.2c-4.48,1.19-9.12,1.87-11.32-2.52-4.29,1.44-7.89,4.06-10.56,7.77,4.02.42,7.77.73,11.66.77,1.03,0,1.87.33,1.92,1.44.03.75-.62,1.58-1.57,1.56-3.28-.07-6.4-.18-9.72-.55l-21.42-2.35-37.3-4.97-2.66,6.35Z"/>
  <path d="M47.27,35.21c.79-.35,1.67-.07,2.03.75.27.61,0,1.46-.68,1.85s-1.55.19-1.97-.52-.21-1.71.62-2.07Z"/>
</svg>
