<?xml version="1.0" encoding="UTF-8"?>
<svg id="Layer_1" data-name="Layer 1" xmlns="http://www.w3.org/2000/svg" viewBox="0 0 100 100">
  <path d="M99.91,80.73l.09,2.12c-.55,1.47-1.65,2.95-3.4,3.2l-10.41,1.52c-2.89.42-4.54-1.8-4.93-4.73l-3.38-25.4c-.36,2.39-.43,4.56-.59,6.88-.2,2.96-.14,5.78.14,8.74l1.55,16.59c.17,2.2-1.26,4.04-3.45,4.4l-25.43,4.18-25.44-4.2c-2.26-.37-3.71-2.3-3.43-4.59l1.49-15.91c.29-3.12.4-6.1.18-9.22-.16-2.33-.24-4.49-.59-6.88l-3.5,26.31c-.32,2.41-2.35,4.16-4.81,3.8l-10.38-1.52c-2.75-.4-3.65-2.99-3.33-5.44l5.35-41.37c.12-.96.84-1.48,1.64-1.38s1.39.8,1.26,1.76l-4.26,33.08,12.79,1.78,4.72-35.67c-.11-2.33.13-4.54-.28-6.79l-1.62-9.01c-.16-.9.45-1.63,1.26-1.73.73-.09,1.42.38,1.6,1.18l.96,4.29c.35,1.54.72,3.02.78,4.68l1.33,40.09-1.7,18.35c-.06.62.32,1.19.93,1.29l23.55,3.88.02-9.57c0-.83.84-1.4,1.54-1.36.62.03,1.38.6,1.38,1.36l.02,9.58,23.71-3.91c.5-.08.82-.79.78-1.26l-1.71-18.36,1.33-40.09c.06-1.66.43-3.14.78-4.68l.96-4.28c.2-.87.97-1.33,1.77-1.15.7.16,1.24.87,1.09,1.7l-1.63,9.01c-.4,2.2-.14,4.33-.3,6.62l4.75,35.85,12.79-1.79-5.92-46.05c-.8-5.15-4.21-8.05-8.35-10.82-1.8-.95-3.33-2.35-5.22-3.12l-10.07-4.09-5.84,11.72c-.45.9-1.41,1.43-2.22,1.59-1.04.2-1.94-.2-2.75-.82l-3.96-3.08v60.63c0,.91-.83,1.46-1.54,1.41-.78-.05-1.4-.62-1.4-1.55V18.02c-2.58,1.56-4.37,4.34-6.71,3.9-.81-.15-1.77-.69-2.22-1.59l-5.84-11.72-10.06,4.1c-1.94.79-3.5,2.23-5.35,3.19-4.3,2.9-7.63,5.84-8.3,11.21l-.68,5.37c-.12.94-.97,1.34-1.75,1.2s-1.26-.83-1.14-1.72l.88-6.43c.57-4.15,3.21-7.68,6.62-10.08l4.81-3.39c1.08-.76,2.21-1.5,3.45-2l11.68-4.7,7.53-3.39h17.08s7.4,3.33,7.4,3.33l12.35,5.02c1.67.68,2.99,1.93,4.47,2.92,1.78,1.19,3.46,2.3,5.01,3.77,2.57,2.44,4.5,5.45,4.97,9.07l7.07,54.65ZM55.43,4.91l-10.7-.02,5.37,7.5,5.33-7.48ZM48.1,14.6l-6.72-9.33-4.8,2.22,5.82,11.66,5.7-4.55ZM57.81,19.13l5.82-11.67-4.81-2.19-6.73,9.34,5.72,4.52ZM14.43,84.67c.71.06,1.37-.44,1.46-1.15l.81-6.15-12.77-1.79-.78,6.11c-.1.76.43,1.42,1.19,1.52l10.1,1.46ZM95.87,83.21c.74-.1,1.28-.76,1.18-1.51l-.78-6.1-12.77,1.78.81,6.15c.09.7.76,1.19,1.47,1.14l10.1-1.46Z"/>
  <path d="M66.64,49.58c-1.75,1.01-3.66.99-5.33.03l-2.72-1.57c-1.58-.91-2.49-2.53-2.49-4.37v-7.21c.02-2.85,2.33-4.91,5.1-4.91h5.48c2.77,0,5.09,2.06,5.1,4.91v7.21c.02,1.85-.91,3.47-2.48,4.38l-2.65,1.53ZM65.2,47.02l2.71-1.57c.55-.32.96-1.1.96-1.77l-.02-7.24c0-1.09-.91-1.96-1.98-1.96h-5.87c-1.07,0-1.97.9-1.97,1.96l-.02,7.25c0,.66.39,1.45.95,1.77l3.16,1.78c.59.33,1.49.12,2.08-.22Z"/>
</svg>