<?xml version="1.0" encoding="UTF-8"?>
<svg id="Layer_1" data-name="Layer 1" xmlns="http://www.w3.org/2000/svg" viewBox="0 0 100 100">
  <path d="M52.21.08c8.11.85,15.58,5.71,17.85,13.83.25.88-.26,1.65-1.01,1.84s-1.54-.17-1.77-.97c-1.02-3.55-3.17-6.48-6.27-8.57-7.6-5.12-18.71-4.24-24.94,2.54s-4,16.53,2.06,22.89c1.84,1.93,3.98,3.52,6.47,4.47.47-.78,1.2-1.24,2-.94.71.27.94.98.95,1.83,1.66.29,3.57.3,5.08-.07-.04-.93.33-1.64,1.14-1.81.65-.14,1.33.17,1.69.95,6.19-2.59,10.69-8.6,12.01-15.19.18-.9,1.01-1.37,1.81-1.19.7.16,1.22.88,1.07,1.72-.43,2.4-1.27,4.66-2.42,6.84,1.24.64,2.25,1.4,3.26,2.3,4.3.41,7.93,3.19,9.28,7.26.67,2.01.78,3.98.03,5.98,1.88,1.34,2.87,3.42,2.87,5.69v3.53c0,1.48-.51,2.86-1.33,4.11.73,1.17,1.32,2.46,1.32,3.87v4.28c-.01,1.34-.59,2.61-1.31,3.75.76,1.23,1.34,2.58,1.33,4.05l-.04,4.43c-.01,1.18-.71,2.41-1.25,3.41.6,1.2,1.29,2.47,1.28,3.88l-.03,4.22c-.01,1.96-.94,3.69-2.42,4.96v2.69c0,1.85-1.28,3.13-3.16,3.13H22.25c-1.72,0-2.99-1.26-3.01-2.92l-.02-2.89c-1.54-1.34-2.45-3.19-2.45-5.3v-3.72c0-1.48.54-2.84,1.33-4.02-.85-1.24-1.35-2.64-1.34-4.15v-3.72c.01-1.48.54-2.85,1.34-4.03-.85-1.24-1.34-2.63-1.34-4.14v-3.52c0-1.56.48-2.99,1.34-4.24-.78-1.19-1.33-2.49-1.34-3.93v-3.72c-.02-2.25.96-4.29,2.84-5.7-.74-2.07-.61-4.11.11-6.17,1.41-4.01,5.02-6.69,9.25-7.07.95-.93,1.96-1.59,3.14-2.24-4.31-7.94-3.68-16.59,2.95-22.71,3.5-3.23,7.88-4.96,12.53-5.52h4.62ZM67.18,41.94c2.1,0,3.83-1.48,4-3.54.28-3.36-1.78-6.39-4.86-7.57-2.49,3.49-5.65,6.25-9.61,7.95l1.15,3.16h9.33ZM42.3,41.94l1.07-3.13c-4.02-1.68-7.15-4.42-9.67-7.94-2.85,1.06-4.59,3.64-4.81,6.64-.17,2.26,1.45,4.4,3.85,4.4l9.55.02ZM74.16,45.09c2.46-.08,4.11-2.09,3.93-4.4-.22-2.9-1.94-5.36-4.59-6.57.87,2.94,1.07,5.41-.65,7.96.57.98.95,1.88,1.31,3.02ZM27.3,42.06c-1.07-1.51-1.59-3.23-1.28-4.95l.52-2.94c-2.89,1.32-4.68,4.19-4.47,7.32.13,2.09,2.01,3.65,3.96,3.54.29-1.13.71-1.98,1.28-2.98ZM48.56,41.94l-.07-1.87-2.33-.31-.79,2.17h3.19ZM54.75,41.92l-.85-2.24-2.43.41v1.84s3.28-.02,3.28-.02ZM48.53,44.86c-1.59,0-2.76-.01-4.29.13,1.56,1.39,2.31,2.69,1.75,4.43-.47,1.45-1.92,2.47-3.52,2.35s-2.97-1.37-3.16-3.01.68-2.85,2.34-3.87l-8.51-.02c-1.33,0-2.42-.28-3.65-.8-.29.65-.6,1.5-.6,2.15v3.68c.01,2.24,1.81,3.95,4.06,3.95h15.59s0-8.98,0-8.98ZM67.35,65.73c2.36,0,3.9-2.02,3.89-4.11l-.02-3.57c0-.69-.31-1.53-.66-2.09-1.04.44-2.01.78-3.12.79h-5.86c-.95.01-1.61-.57-1.61-1.5,0-.66.58-1.41,1.43-1.41h5.85c2.18-.02,3.95-1.73,3.96-3.94l.02-3.74c0-.69-.33-1.55-.66-2.09-1.05.42-2.01.76-3.12.77l-8.97.04c1.74,1.04,2.59,2.35,2.29,4.1-.25,1.47-1.56,2.64-3.06,2.77-1.61.14-3.02-.83-3.54-2.19-.54-1.61-.05-3.24,1.44-4.17l-.11-.54h-4.05s0,8.97,0,8.97l3.3.03c.89,0,1.44.85,1.36,1.59s-.7,1.31-1.53,1.31h-3.14s0,8.99,0,8.99l15.89-.02ZM26.05,56.95c.33-1.37.65-2.02,1.26-2.97-1.26-1.67-1.52-3.72-1.29-5.95-1.81-.06-3.39-.65-4.7-1.84-1.02.77-1.63,1.88-1.62,3.14l.02,3.9c.01,2.09,1.79,3.78,3.85,3.76l2.48-.03ZM74.16,56.99h2.27c2.17,0,4-1.69,4-3.88v-3.88c0-1.24-.66-2.34-1.61-3.05-1.34,1.22-2.89,1.76-4.69,1.85.23,2.22-.06,4.25-1.28,5.94.59,1,.95,1.84,1.32,3.02ZM48.54,65.74v-8.98s-15.78,0-15.78,0c-1.18-.06-2.08-.31-3.25-.81-.31.6-.63,1.56-.63,2.32v3.5c.02,2.25,1.81,3.97,4.06,3.97h15.59ZM26.05,68.85c.34-1.38.65-2.02,1.26-2.99-1.88-2.24-1.15-5.9-1.48-5.91l-.66-.02c-1.74-.06-3.23-.02-4.83-.82-.29.54-.64,1.39-.64,2.1v3.73c0,2.18,1.7,3.99,3.88,3.96l2.47-.04ZM76.55,68.88c2.19-.01,3.86-1.8,3.87-3.87l.02-3.75c0-.69-.31-1.51-.66-2.13-2.35,1.26-5.46.52-5.57.98-.24,1.06.42,3.26-1.38,5.76.61,1.01.95,1.82,1.29,3.02h2.43ZM48.54,77.64v-8.97s-15.78,0-15.78,0c-1.19-.06-2.11-.32-3.26-.81-.29.59-.62,1.54-.62,2.3v3.5c.02,2.26,1.79,3.99,4.06,3.99h15.59ZM67.15,77.65c2.46,0,4.11-1.87,4.09-4.15l-.02-3.54c0-.7-.31-1.53-.66-2.09-1.04.46-1.99.8-3.13.8h-15.97s0,8.98,0,8.98h15.69ZM26.05,80.74c.33-1.39.65-2.02,1.26-2.98-1.29-1.66-1.5-3.74-1.3-5.95-2.09.05-3.96.13-5.68-.84-.35.73-.65,1.52-.64,2.3l.03,3.73c.02,2.1,1.78,3.82,3.86,3.78l2.48-.04ZM76.55,80.78c2.19-.01,3.87-1.81,3.88-3.88l.02-3.75c0-.69-.31-1.51-.66-2.12-2.34,1.25-5.47.54-5.57.97-.24,1.09.41,3.3-1.38,5.77.6,1,.95,1.8,1.29,3.02h2.43ZM67.16,89.56c2.33,0,4.07-1.75,4.07-3.98v-3.74c0-.67-.34-1.54-.66-2.07-1.02.44-1.98.81-3.09.81h-16.02s0,8.97,0,8.97h15.7ZM48.55,96.87l-.02-4.37-5.53-.02c-.87,0-1.37-.81-1.34-1.52s.61-1.33,1.46-1.39h5.42s0-8.97,0-8.97h-16.02c-1.04-.01-1.91-.39-2.99-.79-.35.6-.65,1.51-.65,2.27v3.49c.02,2.29,1.79,4,4.05,4h3.47c.89.01,1.46.82,1.41,1.57-.05.7-.62,1.34-1.43,1.35l-4,.03v3.76c0,.21.37.57.58.62l15.59-.02ZM29.46,92.71l-.1-1.21c-4.37-2.46-3.17-7.71-3.53-7.73l-.65-.05c-1.79.08-3.26-.04-4.86-.81-.31.66-.61,1.44-.61,2.06v3.73c-.01,2.15,1.69,3.97,3.88,3.98l5.88.02ZM71.06,92.72l5.56-.04c2.06-.01,3.77-1.68,3.79-3.7l.03-3.94c0-.7-.31-1.5-.66-2.11-2.31,1.25-5.5.54-5.55.97l-.09.7c.25,2.6-.7,5.09-2.85,6.56l-.62.59c-.16.15.1.97.38.96ZM67.69,96.87l.04-4.39h-16.27s0,4.4,0,4.4h16.23ZM29.48,96.88l-.13-1.23-7.17-.08v1.31s7.3,0,7.3,0ZM77.97,96.88v-1.39s-1.73.13-1.73.13l-5.51.02-.05,1.24h7.29Z"/>
  <path d="M56.47,33.31c-3.97,2.87-8.84,2.87-12.77.13-4.28-2.99-6.98-7.89-7.43-13.14-.36-4.19,1.16-8.06,4.02-10.98,5.28-5.39,13.83-5.47,19.21-.19,2.98,2.92,4.58,6.89,4.21,11.16-.45,5.15-3.02,9.96-7.25,13.01ZM54.34,31.22c4.21-2.72,7.05-8.59,6.41-13.41-.72-5.38-5.15-9.59-10.65-9.64s-10.03,4.07-10.84,9.45c-.4,2.64.21,5.12,1.3,7.51,2.56,5.61,8.27,9.66,13.79,6.1Z"/>
  <path d="M65.74,73.92c.63.63.56,1.52.14,2.02-.54.63-1.54.72-2.16.11l-3.5-3.5c-.61-.61-.59-1.49-.12-2.03.57-.65,1.54-.69,2.19-.04l3.45,3.45Z"/>
  <path d="M36.5,75.97c-.64.64-1.55.63-2.12.09s-.65-1.48,0-2.12l3.51-3.51c.57-.57,1.48-.54,2-.08.61.54.69,1.53.07,2.15l-3.45,3.46Z"/>
</svg>