<?xml version="1.0" encoding="UTF-8"?>
<svg id="Layer_1" data-name="Layer 1" xmlns="http://www.w3.org/2000/svg" viewBox="0 0 100 100">
  <path d="M100,70.41v1.72c-.53,1.14-1.42,1.76-2.59,2.29l-3.78,1.72c.53,1.19.76,2.19.26,3.36-.34.79-1.22,1.5-2.27,1.79l-9.34,2.49c.4,1.96-.82,3.85-2.96,3.96l-23.55,1.22c-1.41.07-2.52-.87-2.71-2.22l-.19-1.39-5.67.06c.23,1.64-.63,3.61-2.37,3.52l-23.76-1.18c-1.11-.06-1.99-.46-2.6-1.25-.55-.72-.73-1.63-.55-2.71l-9.5-2.55c-1.05-.28-1.89-1.08-2.18-1.86-.42-1.13-.18-2.09.31-3.21l-4.56-2.13c-1.38-.64-2.17-2.22-1.66-3.75L14.33,28.53l10.91-16.28c.96-1.43,2.21-1.46,3.7-1.19,14.01,2.54,28.9,2,42.99-.1,1.2-.18,2.28.22,3,1.29l10.92,16.29,14.14,41.87ZM55.96,85.97l23.45-1.24-11.43-42.36c-.19-.85.39-1.56,1.02-1.74.83-.24,1.58.14,1.87,1l10.6,39.27,9.78-2.63-14.35-40.89-4.16-7.58c-.4-.73.21-1.67.82-1.91.5-.21,1.55-.12,1.88.61,1.17,2.68,3.15,4.91,4.15,7.72l13.1,37.06,4.39-2-13.88-41.54-7.31-10.78-1.93.99c-3.88,2-7.74,3.82-11.98,4.95-.94.25-1.75-.16-1.99-1.14-.14-.61.27-1.46,1.08-1.69,3.09-.87,6.05-1.9,8.89-3.39l4.23-2.22-1.71-2.54c-14.71,8.96-29.65,8.37-44.64-.06l-1.65,2.37c8.81,5.23,18.89,8.07,29.19,6.91.91-.1,1.61.5,1.71,1.33.09.76-.45,1.51-1.34,1.62-4.4.51-8.64.34-13.02-.42-6.45-1.21-12.46-3.49-18.2-6.97l-7.49,11.04L3.14,71.29l4.41,2,13.02-37.1,4.23-7.69c.48-.66,1.23-.86,1.85-.62.65.26,1.22,1.19.83,1.92l-4.16,7.58-14.35,40.89,9.78,2.64,3.81-14.1c.36-.84,1.15-1.18,2.01-.84.62.24,1.08,1.04.79,1.88l-4.55,16.89,23.45,1.22,4.38-44.13c.09-.86.89-1.29,1.56-1.26.57.03,1.3.48,1.38,1.26l4.39,44.14ZM62.74,15.21c-8.43.53-15.97.72-24.04.19,7.84,2.78,16.54,2.82,24.04-.19ZM52.62,82.38l-2.52-24.3-2.51,24.32,5.04-.02Z"/>
  <path d="M26.99,61.76c-.26.95-.92,1.38-1.68,1.28s-1.51-.9-1.26-1.8l5.29-19.61c.23-.85,1.09-1.21,1.87-.99.59.17,1.24.91,1.02,1.72l-5.23,19.4Z"/>
</svg>