<?xml version="1.0" encoding="UTF-8"?>
<svg id="Layer_1" data-name="Layer 1" xmlns="http://www.w3.org/2000/svg" viewBox="0 0 100 100">
  <path d="M3.71,72.11l.05-12.6c.8-8.99,4.22-17.51,10.38-24.25.49-.53,1.32-.32,1.73.07s.72,1.2.24,1.74c-6.12,6.89-9.69,15.65-9.68,24.92v9.2c.01,1.56,1.03,2.9,2.11,3.61,1.35.9,2.9,1.08,4.39.56l4.84-1.69.03-9.69c.03-9.32,1.61-19.29,6.03-27.51,2-3.72,4.54-6.85,7.8-9.69-3.99,1.17-7.24,3.28-10.48,5.56-.57.4-1.28.01-1.6-.39-.36-.45-.52-1.32.02-1.75,5.56-4.34,12.07-7.02,19.03-7.98.16-3.14,2.69-5.41,5.61-5.37s5.33,2.36,5.47,5.41c19.72,2.73,34.59,19.95,34.65,39.71l.02,8.52,10.23,5.8c1.47.83,1.77,2.81,1.3,4.28-.43,1.33-1.59,2.68-3.22,2.69l-6.14.02c-.67,0-1.05-.82-1.05-1.35s.42-1.31,1.07-1.32l5.6-.02c.59,0,1.11-.37,1.24-.87.11-.43-.08-1.09-.51-1.34l-10.55-5.86c-1.58-.88-3.39-1.27-5.15-1.72-3.77-.95-7.48-1.45-11.4-1.62-14.09-.62-29.44.97-43.08,5.66,8.74,3.41,17.9,5.74,27.41,5.74h28.81c.7.01,1.05.84,1.05,1.34,0,.46-.34,1.36-1.03,1.36l-30.1-.02c-10,0-20.87-3.45-30.2-7.01l-4.9,1.68c-4.44,1.52-9.17-1.4-10.02-5.85ZM46.9,21.91c-.31-1.54-1.56-2.36-2.86-2.32s-2.44,1.02-2.67,2.34l5.53-.02ZM67.04,66.56c5.06.28,9.83,1.15,14.61,2.71l-.02-7.07c-.03-14.58-8.53-27.85-21.74-34.04-5.29-2.48-11.12-3.82-17.01-3.44-3.22.21-6.09,1.75-8.64,3.59-10.59,7.66-13.7,23.34-13.73,35.86l-.02,8.55c14.69-5.16,31.09-7,46.55-6.15Z"/>
  <path d="M67.65,61.52h-25.13c-.8,0-1.4-.57-1.4-1.34v-11.51c0-.8.59-1.4,1.42-1.4h25.02c.78,0,1.31.65,1.31,1.39v11.55c0,.66-.45,1.17-1.21,1.32ZM66.16,58.81v-8.84s-22.33,0-22.33,0v8.84s22.33,0,22.33,0Z"/>
</svg>