<?xml version="1.0" encoding="UTF-8"?>
<svg id="Layer_1" data-name="Layer 1" xmlns="http://www.w3.org/2000/svg" viewBox="0 0 100 100">
  <path d="M92.7,24.18v1.78s-.28.55-.28.55l-3.95,6.86c-.51.71-1.18,1.22-2.03,1.56,1.48,3.3,2.33,6.73,2.34,10.34l.03,12.77c0,.65-.69,1.13-1.19,1.14-.65.02-1.29-.47-1.29-1.21l-.02-12.04c0-3.85-.95-8.36-3.05-11.49l-5.05-2.88,1.81,1.95c1.3,1.39,1.34,3.64-.04,5.02l-5.23,5.25c-.65.65-1.5.96-2.48,1.08.65,3.63.41,7.22-.45,10.83l-4.13,15.83,11.36-19.58c.36-.69,1.06-.86,1.68-.59.54.24.94,1.04.57,1.68l-5.46,9.49,3.36,12.53c.47,1.77,2.03,2.78,3.85,2.58,1.92-.19,3.26-1.64,3.26-3.57v-11.07c0-.81.59-1.31,1.3-1.29s1.2.59,1.2,1.39v10.81c.02,3.39-2.39,6.03-5.8,6.25-2.86.15-5.43-1.55-6.19-4.35l-2.76-10.18-9.07,15.7c-.67,2.4-.99,4.15-3.24,5.62l-1.39,2.39c-1.03,1.76-2.54,2.95-4.45,3.39h-2.16c-2.05-.52-3.78-1.84-4.62-3.93-1.86,1.68-4.27,2.15-6.53,1.25-1.99-.79-3.49-2.6-3.86-5.11l-5.79,5.79c-1.02,1.02-2.16,1.66-3.5,2h-2.16c-2.62-.61-4.66-2.69-4.99-5.5-2.48,1.33-5.43.85-7.33-1.08s-2.32-4.8-.99-7.25c-2.4-.27-4.32-1.87-5.08-3.89-.9-2.39-.3-4.83,1.41-6.58l2.3-2.34c-2.46-.53-4.13-2.15-4.81-4.15-.78-2.3-.14-4.66,1.52-6.32l6.32-6.32c.52-.52,1.35-.33,1.75.13s.45,1.21-.06,1.73l-6.46,6.5c-1.41,1.42-1.06,3.78.29,5.01s3.58,1.32,4.98-.08l12.97-12.96c.54-.54,1.37-.43,1.83.09.37.41.45,1.18-.06,1.69l-18.78,18.78c-1.47,1.47-1.48,3.69-.08,5.14,1.28,1.33,3.6,1.58,5.03.15l16.79-16.77c.56-.56,1.38-.43,1.78.01.44.48.51,1.25,0,1.76l-18.78,18.78c-1.47,1.47-1.48,3.7-.09,5.14s3.66,1.53,5.12.06l18.87-18.86c.55-.55,1.38-.45,1.84.09.35.4.44,1.17-.07,1.68l-16.78,16.79c-1.47,1.47-1.17,3.85.23,5.12,1.52,1.37,3.67,1.23,5.15-.25l29.58-29.59c.61-.61,1.37-.61,1.89-.07s.43,1.3-.1,1.83l-7.59,7.59.03,13.28c0,1.83,1.63,3.08,3.3,3.22,1.87.16,3.32-.87,3.8-2.65l7.19-26.86c1.05-3.92,1.32-8.25.16-12.12l-1.82-1.83c-.56-.57-.51-1.35-.01-1.82s1.27-.47,1.78.04l1.91,1.91c.55.55,1.28.54,1.82,0l5.15-5.16c.4-.41.39-1.18-.04-1.62l-19.69-19.69c-.46-.46-1.26-.31-1.65.08l-5.16,5.16c-.39.39-.47,1.18-.04,1.61l14.12,14.12c.55.55.54,1.28.13,1.76-.44.52-1.29.64-1.82.1l-13.78-13.77c-2.36.08-4.52.71-6.56,1.9-2.48,1.44-4.71,3.14-6.79,5.2l-15.99,15.91c-.55.54-1.48.28-1.84-.26-.33-.5-.29-1.16.23-1.68l14.22-14.2c2.45-2.45,4.93-4.63,7.81-6.5,2.33-1.51,4.8-2.46,7.51-2.82-.11-1.15.12-2.22.87-2.97l5.22-5.25c1.24-1.25,3.02-1.54,4.6-.68l2.42-4.1c1.06-1.8,3.32-1.99,5.02-1.01l11.9,6.88c.65.38.78,1.17.44,1.74-.29.49-1.03.81-1.64.46l-12.01-6.93c-.68-.39-1.4-.27-1.8.43l-2.44,4.28,9.5,9.51,13.79,7.97c.62.32,1.3.14,1.64-.45l3.71-6.43c.29-.5-.01-1.22-.47-1.49l-7.38-4.26c-.65-.38-.76-1.16-.47-1.68.31-.55,1.06-.85,1.66-.51l7.07,4.06c1.06.61,1.78,1.39,2.18,2.53ZM48.07,86.09l4.34-7.53-.02-7.28-9.76,9.78c-.49.49-.85,1.42-1.11,2.04-.75,1.8.22,3.74,1.8,4.5,1.72.82,3.73.23,4.75-1.51ZM58.25,87.79c-2.82-.23-4.9-1.88-5.67-4.47l-.77,1.28c-1.16,1.92-.45,4.34,1.55,5.27,1.89.88,4.26-.08,4.89-2.08Z"/>
</svg>