<?xml version="1.0" encoding="UTF-8"?>
<svg id="Layer_1" data-name="Layer 1" xmlns="http://www.w3.org/2000/svg" viewBox="0 0 100 100">
  <path d="M34.11,6.96c.43.09,1.11.25,1.36.72,3.41,6.46,13.54,25.71,18.11,28.59,2.16,1.36,4.4,2.28,6.76,3.25l12.13,4.97c.82.34,1.12,1.21.79,1.89-.35.73-1.12.91-1.88.6l-9.8-4.01c-2.74-1.12-5.35-2.2-7.99-3.52-1.72-.86-3.05-2.03-4.3-3.5-1.94-2.46-3.64-4.92-5.31-7.62-3.66-5.9-6.93-11.84-10.23-18.11l-15.57,7.77,5.14,8.33,1.22-.6-3.35-5.69c-.42-.72-.17-1.54.49-1.9.56-.31,1.39-.23,1.79.44l3.49,5.92c.48-.18.99-.34,1.36-.27s.75.51.96.92c3.09,5.94,6.24,11.65,9.74,17.46l5.29-1.18c.74-.17,1.41.29,1.61,1.02l1.61,11.2c2.08,1.15,4.14,2.08,6.34,2.98l10.51,4.29c3.71,1.51,7.17,3.15,10.82,5.15-.63-5.61.22-11.03,3.41-15.63l-2.38-1.25c-.73-.38-.79-1.42-.38-1.93.51-.63,1.21-.68,1.91-.32,2.77,1.4,5.39,2.84,7.83,4.75,2.87,2.25,4.58,5.49,4.62,9.14-.1,5.27-3.7,8.93-8.98,9.92,1.48,1.9,2.38,4.02,2.57,6.41.35,4.29-2.07,8.2-6.1,9.92-2.79,1.18-5.84,1.26-8.8.62-3.12-.68-6.02-1.67-8.99-2.89l-11.55-4.74c-2.3-.95-4.54-1.68-6.95-2.26-1.71-.41-3.38-.52-5.13-.56-5.61-.13-10.44-2.45-12.63-7.83-.88-2.16-1.1-4.34-1.31-6.64-.21-2.32-1.1-4.48-1.99-6.64-.36-.87-.08-1.7.82-2,.69-.23,1.42.21,1.72.99.82,2.07,1.54,4.07,2.06,6.37l12.99-2.93c.67-.15,1.47.3,1.57,1.03l2.24,15.5c3.05.79,5.94,1.74,8.85,2.95l8.28,3.44c3.35,1.37,6.64,2.58,10.21,3.51-1.08-6.25-.4-12.28,3.14-17.45-3.41-1.74-6.68-3.21-10.12-4.62l-8.88-3.61c-2.07-.84-4.01-1.72-6-2.71s-3.36-2.27-4.67-3.96c-2.11-2.7-3.89-5.45-5.74-8.39-3.36-5.56-6.44-11.12-9.48-16.9l-15.56,7.78c3.09,4.79,5.95,9.56,8.57,14.6.46.8.22,1.64-.52,2.02-.63.32-1.42.11-1.81-.65-2.81-5.41-5.91-10.54-9.25-15.64-.56-.77-.3-1.69.52-2.09l11.6-5.8-5.6-9c-.47-.75-.63-1.35-.08-2.11l18.87-9.49ZM43.46,44.38l-2.9.69c1.29,1.97,2.39,3.62,3.74,5.33l-.84-6.02ZM36.87,74.54l2.11.1-1.87-13.13-11.86,2.7c.16,1.39.44,2.66.87,3.95,1.83,4.7,5.84,6.29,10.75,6.38ZM87.53,61.18c.08-2.88-1.08-5.54-3.34-7.15l-3.18-2.26c-3.43,4.79-3.84,10.86-2.66,16.42,4.7.24,8.79-2.25,9.18-7.02ZM81.17,78.31c.05-2.92-1.12-5.6-3.42-7.23l-3.08-2.18c-3.48,4.75-3.86,10.9-2.68,16.44,4.72.22,8.79-2.27,9.18-7.03Z"/>
  <path d="M20.76,41.88c.48.81.3,1.55-.34,1.98s-1.5.24-1.95-.52l-3.63-6.18c-.41-.69-.2-1.47.41-1.88s1.47-.24,1.9.48l3.6,6.11Z"/>
  <path d="M31.99,22.67c.44.75.17,1.47-.35,1.85-.56.41-1.48.36-1.9-.35l-3.67-6.21c-.43-.74-.33-1.53.33-1.97.59-.4,1.49-.28,1.92.45l3.66,6.22Z"/>
  <path d="M30.43,37.62c.48.82.12,1.65-.53,1.97-.71.35-1.43.05-1.86-.68l-3.53-6c-.42-.72-.34-1.45.3-1.93.52-.38,1.48-.38,1.89.32l3.73,6.31Z"/>
  <path d="M36.78,20.47c.46.78.21,1.54-.39,1.92s-1.48.25-1.9-.48l-3.76-6.43c-.35-.6.1-1.43.55-1.69.65-.37,1.45-.22,1.87.48l3.65,6.2Z"/>
  <path d="M25.64,39.83c.41.69.15,1.46-.34,1.82-.53.39-1.49.41-1.9-.29l-3.77-6.39c-.41-.69-.16-1.46.43-1.84.49-.32,1.43-.31,1.82.35l3.75,6.36Z"/>
</svg>