<?xml version="1.0" encoding="UTF-8"?>
<svg id="Layer_1" data-name="Layer 1" xmlns="http://www.w3.org/2000/svg" viewBox="0 0 100 100">
  <path d="M55.17,97.43h-9.24s-2.9-.2-2.9-.2l-6.94-.82c-.81-.1-1.19-1.06-1.02-1.7s.78-1.15,1.58-1.03c13.32,2,26.81,1.13,39.71-2.73,1.27-.38,2.09-1.34,2.09-2.73v-39.41c0-1.06-.57-1.94-1.4-2.44-3.09-1.85-4.95-5.06-4.95-8.7v-9.07c0-.86.61-1.46,1.34-1.47.79,0,1.44.58,1.44,1.44v9.04c0,2.69,1.33,5,3.62,6.38,1.75,1.06,2.74,2.88,2.74,4.99v39.42c-.01,2.41-1.66,4.46-3.88,5.14-6.4,1.97-12.82,3.19-19.47,3.69l-2.73.2Z"/>
  <path d="M45.15,8.31c-2.58-.45-4.79-1.1-7.33-2.11v9.77c-.01.83-.51,1.41-1.26,1.49-.71.07-1.52-.45-1.52-1.31V5.7s-5.09.98-5.09.98c-1.18.23-2.06,1.4-2.06,2.64v28.32c0,3.67-1.86,6.86-4.95,8.72-.83.5-1.4,1.37-1.4,2.44v39.41c0,1.27.81,2.35,1.97,2.63l7.87,1.93c.81.2,1.17.96,1.01,1.66s-.86,1.23-1.67,1.04l-7.65-1.84c-2.37-.57-4.32-2.63-4.32-5.24v-39.42c-.01-2.12.97-3.93,2.73-4.99,2.29-1.39,3.62-3.67,3.62-6.39V9.13c.02-2.51,1.92-4.71,4.29-5.18l5.93-1.17c.85-.17,1.47-.16,2.26.22,8.53,4.13,17.23,3.76,25.77-.43l7.22,1.37c2.51.48,4.29,2.8,4.29,5.36v13.72c.01.9-.58,1.52-1.42,1.5-.78-.02-1.35-.61-1.35-1.51v-13.7c0-1.3-.96-2.44-2.2-2.67l-4.95-.93v16.19c.02,8.49-6.88,15.25-15.22,15.11-8.39-.14-15.18-7.27-14.68-15.81.05-.76.93-1.18,1.47-1.11.87.12,1.3.75,1.28,1.64-.15,6.8,5.23,12.34,11.91,12.49,6.62.15,12.41-5.12,12.43-11.94l.04-16.1c-2.39.95-4.73,1.63-7.33,2.11l-.02,4.01c.04,1.57-1.18,2.96-2.79,2.95l-4.28-.02c-1.53,0-2.65-1.47-2.61-2.91v-3.98ZM52.07,12.45v-3.81s-4.14.02-4.14.02v3.79s4.14,0,4.14,0Z"/>
</svg>