<?xml version="1.0" encoding="UTF-8"?>
<svg id="Layer_1" data-name="Layer 1" xmlns="http://www.w3.org/2000/svg" viewBox="0 0 100 100">
  <path d="M33.92,0l.49.58c.26.28.36,1.08.18,1.51-.15.35-.78.82-1.19.82h-2.37s.01,4.55.01,4.55h15.15c.26,0,.62-.77.5-.93-.55-.41-.92-1.05-.77-1.66s.76-1.15,1.42-1.15h5.51c.67,0,1.27.55,1.42,1.15s-.23,1.26-.77,1.66c-.12.17.23.93.51.93h15.15s0-4.55,0-4.55h-29.77c-.87,0-1.51-.31-1.72-1.12-.19-.71.27-1.4,1.03-1.8h32.45c1.88,1.06.39,5.83,1.06,8.75,1.39,6.16,2.58,12.17,2.45,18.54l-.37,17.95c-.47,13.7,0,27.22,1.61,40.75,1.65,1.45,1.43,3.79-.21,5.07l-.05,5.82c-.02,2.16-2.17,3.14-4.08,2.96-.93-.09-1.68-.2-1.9-1.18-.15-.65.23-1.66,1.14-1.72l1.96-.13v-5.16s-7.94.02-7.94.02l.03,5.19c1.11,0,1.85.57,1.85,1.5,0,.82-.67,1.48-1.58,1.47-2-.03-3.26-1.62-3.24-3.52l.03-4.9c-1.84-.94-2.27-2.93-1.23-4.63l-10.58-39.12-10.6,39.19c1.14,1.67.52,3.66-1.19,4.55v5.28c-.02,1.45-1.25,3.08-2.82,3.09l-7.64.06c-1.61.01-3.28-1.18-3.3-2.93l-.06-5.88c-1.7-1.27-1.77-3.6-.19-5.01,1.31-11.19,1.88-22.39,1.79-33.72,0-.82.88-1.31,1.49-1.29.58.01,1.39.54,1.4,1.32.18,11.22-.47,22.28-1.67,33.44-.13,1.17-.52,1.77-1.35,2.96h11.18c-.5-1.08-.69-1.79-.43-2.74l11.53-42.76c.15-.56.41-.9.41-1.52V10.54c-.28-.21-.64-.06-.85.18l-2.11,2.43c-.84.97.24,3.06,1.12,4.56.45.77.15,1.72-.61,2.06-.69.31-1.52.05-1.96-.65-1.82-2.93-2.84-6.19-.05-8.71h-4.36c-2.77,5.7-6.52,10.64-11.29,14.87-.11,3.59-.1,7.02,0,10.61l.33,10.7c.03.92-.91,1.49-1.66,1.38s-1.25-.72-1.28-1.58l-.43-16.17c-.19-7.36.79-14.36,2.48-21.46.66-2.8-.84-7.72,1.1-8.75h4.82ZM36.5,10.41l-5.83-.02c-.85,3.53-1.48,6.87-1.82,10.55,3.12-3.18,5.67-6.65,7.64-10.53ZM60.39,10.42h-4.37c2.79,2.52,1.76,5.77-.05,8.69-.48.77-1.39,1-2.1.58-.66-.39-.91-1.29-.48-2,.94-1.56,1.98-3.58,1.05-4.66l-2.02-2.33c-.19-.22-.64-.38-.84-.17v31.14c-.01.62.25.97.4,1.52l11.57,42.93c.25.94-.11,1.76-.5,2.61l11.21-.03c-.87-1.21-1.21-1.79-1.35-2.97-1.64-14.21-2.04-28.33-1.48-42.64.23-6.03.41-11.82.25-17.81-4.74-4.2-8.48-9.05-11.28-14.87ZM69.51,10.38l-5.84.04c2.11,4.01,4.58,7.39,7.67,10.52-.34-3.68-.96-7.03-1.83-10.56ZM35.38,96.86l-.03-5.21-7.92.02.03,5.23,7.92-.04Z"/>
</svg>