<?xml version="1.0" encoding="UTF-8"?>
<svg id="Layer_1" data-name="Layer 1" xmlns="http://www.w3.org/2000/svg" viewBox="0 0 100 100">
  <path d="M96.82,71.88v3.33c-.95,3.81-4.19,7.48-8.82,7.48l-77.67.03c-3.76,0-6.37-2.73-7.14-6.01v-2.76c.86-3.53,3.33-5.56,6.66-7.14l38.64-18.22v-8.43c0-1.18.98-2.29,2.27-2.31,4.12-.04,7.67-2.62,8.44-6.33.81-3.89-.8-7.92-4.56-9.42-2.8-1.12-5.7-.38-8.04,1.33-4.86,3.56-2.25,9-5.76,8.7s-2.18-8.63,3.64-12.58c3.68-2.5,8.21-3.03,12.22-1.23,4.54,2.03,6.84,6.62,6.88,11.49.05,6.63-4.5,11.72-11.31,12.14l.14,5.89,40.2,17.8c2.51,1.11,3.36,4.13,4.22,6.22ZM10.94,78.96h76.25c2.65,0,4.57-1.67,5.13-3.88.51-2.02-.15-4.87-2.41-5.88l-38.58-17.2-40.47,19.19c-1.59.76-2.9,2.14-3.27,3.73-.52,2.2.81,4.04,3.36,4.04Z"/>
</svg>