<?xml version="1.0" encoding="UTF-8"?>
<svg id="Layer_1" data-name="Layer 1" xmlns="http://www.w3.org/2000/svg" viewBox="0 0 100 100">
  <path d="M0,45.22v-1.95l8.43-24.51c.93-2.74,2.99-4.79,5.62-5.9l17.28-7.25c3.19-1.34,6.54-1.84,10-1.84h17.15c3.91-.01,7.55.75,11.14,2.26l16.02,6.76c2.67,1.13,4.8,3.17,5.75,5.96l8.25,24.28c.63,2.15-.43,4.5-2.63,5.23l-13.2,4.37v37.02c0,3.35-2.6,6.34-6.06,6.34H22.08c-3.61,0-6.08-3.12-6.08-6.54v-36.83s-12.9-4.25-12.9-4.25c-1.6-.53-2.63-1.61-3.11-3.15ZM77.65,93.08c1.97,0,3.21-1.77,3.21-3.39v-7.91s-46.48,0-46.48,0c-.99,0-1.53-.74-1.49-1.57.04-.71.58-1.37,1.49-1.37h46.48s0-40.42,0-40.42c0-.95.68-1.51,1.49-1.51.72,0,1.44.62,1.44,1.47v11.16s12.2-4.04,12.2-4.04c.63-.21,1.06-.93.83-1.61l-8.24-24.27c-.67-1.98-2.24-3.35-4.1-4.14l-13.83-5.85-5.21-2.01c-.07,3.14-.82,5.77-2.35,8.26-.47.77-1.35,1.02-2.08.56-.61-.38-.94-1.24-.49-1.96,1.4-2.26,2.12-4.79,1.94-7.54l-24.73-.05c-.34,4.85,2.19,9.22,6.04,11.51,4.2,2.49,9.26,2.26,13.25-.36.71-.47,1.54-.24,1.95.28.44.56.49,1.58-.21,2.06-4.81,3.3-11.09,3.62-16.25.68-4.71-2.69-7.8-7.77-7.74-13.52-1.71.5-3.12,1.05-4.65,1.7l-14.79,6.25c-1.86.79-3.43,2.16-4.1,4.14L2.99,43.91c-.23.67.2,1.41.83,1.61l12.2,4.01v-11.14c0-.86.69-1.47,1.44-1.47.79,0,1.48.55,1.48,1.5v40.4s8.86.03,8.86.03c.83,0,1.41.82,1.37,1.52-.04.75-.67,1.4-1.5,1.4h-8.73s0,7.89,0,7.89c0,1.8,1.37,3.41,3.31,3.41h55.4Z"/>
  <path d="M54.72,71.78l-10.14.02c-2.41,0-4.56-1.34-5.87-3.06-1.5-1.97-2-4.41-1.27-6.76.77-2.5,2.23-4.54,3.56-6.74,1.87-3.1,4.9-5.06,8.43-5.1s6.7,1.82,8.6,4.91c2.62,4.25,5.75,8.41,2.85,13.05-1.19,1.91-3.44,3.67-6.16,3.68ZM54.51,68.84c3.06-.01,5.23-3.13,4.41-5.89-.7-2.36-2.1-4.2-3.32-6.25-1.37-2.28-3.54-3.67-6.16-3.63s-4.61,1.47-5.94,3.7c-1.22,2.04-2.66,3.9-3.3,6.27-.79,2.92,1.61,5.84,4.62,5.83l9.69-.03Z"/>
  <path d="M47.39,46.48c-.68,1.33-1.88,2.14-2.96,2.37-1.52.31-2.92-.13-4.02-1.2-2.46-2.4-3.02-6.37-1.43-9.4.69-1.31,1.92-2.16,3.09-2.36,1.57-.26,2.99.28,4.08,1.43,2.25,2.4,2.78,6.15,1.24,9.16ZM43.98,39.27c-.28-.31-1-.58-1.34-.52-.3.06-.8.43-.99.77-1.65,2.95.35,6.76,2.08,6.5,1.51-.22,2.58-4.17.25-6.75Z"/>
  <path d="M67.2,57.3c-1.24.87-2.63,1.07-4.05.57-1.01-.35-2.11-1.35-2.58-2.69-1.14-3.25.04-7.07,2.84-9.09,1.15-.83,2.5-1.13,3.93-.72,1.02.29,2.18,1.24,2.7,2.55,1.3,3.29.14,7.28-2.84,9.37ZM67.39,49.2c-.14-.44-.57-.94-.9-1.03-.29-.09-1.05.05-1.31.24-2.71,2.03-2.52,6.1-1.04,6.72,1.6.67,4.27-2.67,3.25-5.93Z"/>
  <path d="M38.61,55.06c-.48,1.49-1.63,2.5-2.7,2.85-1.54.5-2.99.17-4.2-.75-2.67-2.04-3.79-5.67-2.75-8.86.44-1.34,1.47-2.37,2.49-2.78,1.47-.59,2.97-.35,4.22.53,2.78,1.97,4.01,5.69,2.94,9.01ZM34.14,48.52c-.37-.31-1.18-.48-1.56-.31-1.47.64-1.65,4.53.89,6.62.33.27,1.06.44,1.44.33,1.43-.4,1.89-4.4-.78-6.64Z"/>
  <path d="M59.1,47.25c-1.09,1.25-2.46,1.83-3.99,1.66-1.28-.14-2.56-.98-3.3-2.33-1.59-2.92-1.12-6.76,1.12-9.2,1.04-1.14,2.35-1.7,3.87-1.54,1.21.13,2.49.92,3.24,2.22,1.64,2.84,1.27,6.65-.94,9.19ZM57.6,39.68c-.21-.44-.8-.92-1.18-.94s-1.05.26-1.32.57c-2.22,2.58-1.24,6.49.38,6.71s3.56-3.3,2.11-6.35Z"/>
</svg>