<?xml version="1.0" encoding="UTF-8"?>
<svg id="Layer_1" data-name="Layer 1" xmlns="http://www.w3.org/2000/svg" viewBox="0 0 100 100">
  <path d="M54.14,100h-8.53s-.76-.83-.76-.83c-2.34-11.34-8.67-21.52-17.23-29.59-1.17,3.59-1.88,7.09-2.5,10.72-.13.77-.95,1.07-1.61.98-.54-.07-1.34-.61-1.24-1.36.49-3.8,1.37-7.41,2.5-11.18-4.09-.31-8.5-1.12-11.52-3.79-2.01-1.86-1.97-4.53-.34-6.61,1.53-1.96,3.87-2.73,6.21-1.6,3.59,1.75,6.17,5.36,8.39,8.74h44.76c2.23-3.39,4.79-6.98,8.39-8.74,2.39-1.14,4.78-.32,6.3,1.72,1.5,2.02,1.55,4.57-.33,6.39-2.99,2.76-7.49,3.58-11.61,3.89,1.12,3.77,2,7.38,2.5,11.18.1.76-.71,1.29-1.24,1.36-.67.09-1.48-.21-1.61-.98-.61-3.62-1.33-7.13-2.49-10.71-4.3,3.98-7.72,8.32-10.71,13.11-.45.72-1.35.8-1.92.49s-1.04-1.19-.64-1.87c2.82-4.74,6.22-8.92,10.19-12.92H30.69c8,8.04,14.11,17.63,16.7,28.67h5.01c.85-3.69,2.08-7.06,3.62-10.44.38-.82,1.12-1.24,1.92-.97s1.25,1.15.86,1.99c-1.73,3.71-3.04,7.48-3.85,11.5l-.8.84ZM24.13,65.7c-1.79-2.56-4.67-6.45-7.58-6.58-1.04.48-2.12,1.59-1.82,2.78.24.93,1.32,1.5,2.09,1.99,2.3,1.02,4.6,1.64,7.32,1.8ZM82.94,63.94c.84-.55,1.9-1.06,2.15-2.05.28-1.12-.85-2.6-2.03-2.7-2.37-.18-5.79,4.12-7.38,6.52,2.67-.17,4.91-.76,7.26-1.77Z"/>
  <path d="M74.35,56.13c-6.55,3.73-14.8,1.73-20.17-3.38h-8.55c-1.96,1.79-4.05,3.15-6.5,4.1-.71.27-1.49-.18-1.77-.74-.32-.67-.13-1.59.64-1.93,1.94-.86,3.73-1.86,5.36-3.33l-7.97-22.79c-4.71,3.81-9.64,8.28-12.21,13.63-1.74,3.49-1.12,7.5,1.65,10.3,2.07,2.1,4.95,3.06,7.92,3.1.96.01,1.61.61,1.6,1.51,0,.8-.67,1.45-1.6,1.43-3.5-.07-6.79-1.13-9.39-3.41-4.05-3.54-5.2-9.1-2.93-13.96,2.95-6.3,8.96-11.72,14.44-15.92,1.63-4.84,4.07-9.46,8.13-12.7-2.38-.63-4.57-1.39-6.35-2.85-2.18-1.78-2.45-4.52-.8-6.72,1.14-1.52,2.7-2.53,4.71-2.3,3.98.86,6.92,4.77,9.35,8.19,2.43-3.42,5.37-7.33,9.35-8.19,1.95-.23,3.48.74,4.62,2.19,1.78,2.26,1.48,5.11-.81,6.92-1.77,1.4-3.89,2.15-6.25,2.76,4.06,3.25,6.48,7.85,8.14,12.69,3.23,2.47,6.24,5.09,9.02,8.08.6.65.6,1.48.05,2.09-.45.51-1.43.7-2.02.08-2.36-2.47-4.8-4.76-7.58-6.94l-7.97,22.78c4.48,4.02,10.9,5.67,16.2,2.88,3.39-1.78,5.43-5.39,4.87-9.21-.59-3.96-3.64-5.78-1.82-7.15.64-.48,1.66-.37,2.14.42,1.15,1.87,2.16,3.8,2.54,6,.86,4.99-1.52,9.8-6,12.35ZM47.22,9.71c-1.83-2.57-4.62-6.44-7.62-6.61-.98.47-2.03,1.49-1.84,2.66.36,2.26,6.41,3.81,9.46,3.95ZM62.05,5.74c.16-1.09-.92-2.49-2.03-2.57-2.41-.17-5.73,4.04-7.42,6.52,2.86-.07,9.1-1.64,9.45-3.95ZM52.08,13.02c1.82,6.17,2.92,12.11,2.98,18.28,0,.89-.58,1.48-1.4,1.57-.51.05-1.47-.43-1.5-1.17-.15-5.16-.76-10.19-2.26-15.34-1.51,5.14-2.11,10.18-2.26,15.34-.03.83-1.08,1.28-1.63,1.16-.75-.16-1.26-.71-1.25-1.53.05-6.21,1.17-12.23,3-18.33-5.19,1.52-8.42,7.76-10.07,12.7l8.44,24.13h7.57s8.46-24.17,8.46-24.17c-1.76-5.01-4.94-11.2-10.07-12.62Z"/>
</svg>