<?xml version="1.0" encoding="UTF-8"?>
<svg id="Layer_1" data-name="Layer 1" xmlns="http://www.w3.org/2000/svg" viewBox="0 0 100 100">
  <path d="M100,73.29v2.34c-.49,1.92-1.69,3.53-3.59,4.41-3.92,1.82-7.9,3.28-12.07,4.46-.87.25-1.62-.51-1.72-1.17-.12-.86.32-1.46,1.15-1.71,3.92-1.15,7.66-2.51,11.36-4.22,1.44-.66,2.2-2.05,1.86-3.65l-6.76-32.05c-3.39-.84-6.49-2.09-9.4-4.01-4.63-3.05-8.07-7.39-9.97-12.51-4.52.6-8.81,1.05-13.32,1.42v15.88c.06.98-.59,1.71-1.47,1.69-.77-.01-1.47-.58-1.46-1.5v-15.89c-3.06.11-5.96.11-9.03,0v15.88c.01.91-.69,1.47-1.45,1.5s-1.47-.6-1.47-1.5v-16.09s-3.86-.34-3.86-.34c-.84-.07-1.36-.91-1.29-1.56.09-.87.77-1.4,1.66-1.33l3.49.28v-2.8c-.01-.95.57-1.6,1.49-1.61.67,0,1.41.59,1.42,1.42l.02,3.19c3.07.13,5.94.13,9.01,0l.02-3.19c0-.92.83-1.51,1.6-1.42.84.1,1.29.72,1.3,1.6l.05,2.81c8.19-.67,15.9-1.74,24.02-3.03l-1.73-4.98c-.34-.97-1.21-1.55-2.3-1.42l-15.78,1.91c-7.88.73-15.54.96-23.39,0l-15.78-1.92c-1.08-.13-1.96.44-2.3,1.42l-1.73,4.99,13.75,1.98c.88.13,1.38.84,1.29,1.6-.09.81-.77,1.39-1.66,1.28l-2.65-.32c-3.23,8.7-10.46,14.38-19.36,16.5l-6.79,32.22c-.31,1.46.49,2.81,1.76,3.41,10.92,5.14,23.17,7.45,35.19,8.26,1.89.13,3.41-1.02,3.58-2.96.73-8.1,1.99-16.01,3.88-23.91.3-1.26,1.44-1.94,2.57-1.91s2.14.71,2.42,1.92c1.88,7.89,3.15,15.8,3.88,23.9.17,1.94,1.69,3.09,3.58,2.96,5.76-.39,11.35-1.09,16.97-2.29.9-.19,1.61.28,1.81,1.1.17.7-.21,1.56-1.1,1.74-5.85,1.24-11.69,2-17.68,2.37-3.49.21-6.19-2.23-6.51-5.66-.67-7.29-1.69-14.38-3.45-21.7-1.82,7.38-2.77,14.53-3.49,21.88-.33,3.35-3.1,5.69-6.47,5.48-12.26-.75-25.55-3.28-36.6-8.62-2.53-1.22-3.78-3.96-3.21-6.69l6.27-29.76c1.21-5.73,3.14-11.05,5.79-16.22,2.11-4.11,3.73-8.22,5.17-12.58.76-2.31,3.04-3.59,5.45-3.3l16.17,1.94c7.42.67,14.63.88,22.02-.02l15.97-1.93c2.41-.29,4.68.99,5.44,3.31,1.44,4.36,3.07,8.47,5.17,12.58,2.62,5.13,4.56,10.39,5.76,16.07l6.45,30ZM11.05,38.32c7.18-2.02,12.65-6.98,15.29-13.54l-8.91-1.36-1.94,4.17c-1.74,3.43-3.37,6.86-4.44,10.73ZM89.17,38.31c-1.05-3.52-2.29-6.37-3.75-9.29l-2.68-5.6-8.88,1.36c2.65,6.64,8.29,11.61,15.31,13.53Z"/>
</svg>