<?xml version="1.0" encoding="UTF-8"?>
<svg id="Layer_1" data-name="Layer 1" xmlns="http://www.w3.org/2000/svg" viewBox="0 0 100 100">
  <path d="M0,34.16l.02-4.67c.82-6,4.6-11.6,6.61-17.13.8-2.2,2.79-3.72,5.31-2.79,5.55,2.05,10.29,5.85,13.92,10.59,2.36,3.08,4.3,6.25,5.84,9.8l5.1,11.72c1.95,4.48,4.04,8.7,6.82,12.72,7.5,10.88,15.11,10.9,27.66,10.07,2.17-.14,4.22.28,5.9,1.77l19.85,17.61,2.51,2.62c.55.58.6,1.54.3,2.32-.67,1.72-4.16,1.87-6.68,1.87h-21.08c-.92.01-1.51-.68-1.5-1.46s.58-1.46,1.5-1.46h19.71c1.68,0,3.21-.05,4.82-.32l-21.19-18.84c-.46-.4-1.05-.71-1.59-.89-13.19,6.65-23.21,11.43-34.16-1.14-2.65-3.04-5.11-6.11-7.18-9.62l-10.49-17.81c-.45-.76.06-1.67.72-1.98s1.47-.08,1.92.68l10.27,17.45c1.76,3,3.83,5.6,6.01,8.27,1.58,1.93,3.3,3.59,5.26,5.09,6.55,5.02,13.78,2.45,20.88-.93-12.83.46-19.61-2.07-26.66-12.83-2.49-3.81-4.43-7.74-6.25-11.92l-5.09-11.72c-1.52-3.51-3.47-6.62-5.81-9.64-3.17-4.08-7.18-7.18-11.92-9.2-.46-.19-1.02-.16-1.52.11l11.35,19.37c.45.76.14,1.59-.51,2-.61.38-1.55.29-2-.47L8.37,15.93c-2.81,6.31-6.61,12.12-5.26,18.96.3,1.4,1.04,2.46,2.05,3.44l7.91,7.74c8.2,8.01,15.21,16.96,20.93,26.91l6.56,12.2c.66,1.23,1.69,2.04,3.1,2.24s2.86.33,4.36.33l16.98.02c.92,0,1.51.65,1.52,1.44s-.59,1.49-1.52,1.49l-17.18-.02c-4.15,0-7.78-.33-9.76-3.97l-7.36-13.55c-3.39-5.81-7.22-11.16-11.56-16.27-1.46,4.64-3.04,9.95-3.05,14.43l-.03,16.97c0,1.38-1.12,2.38-2.46,2.38h-6.28c-1.38.01-2.56-.86-2.57-2.39-.14-16.9-1.43-33.66-4.04-50.34l-.72-3.8ZM14.54,62.19l2.3-7.94c-2.86-3.12-5.76-6.07-8.82-9l-3.7-3.52c1.82,12.84,2.87,25.36,3.22,38.16h5.59s.04-8.95.04-8.95c.01-2.95.52-5.83,1.37-8.74ZM13.15,87.75v-4.94s-5.51,0-5.51,0l.05,4.95h5.47Z"/>
</svg>