<?xml version="1.0" encoding="UTF-8"?>
<svg id="Layer_1" data-name="Layer 1" xmlns="http://www.w3.org/2000/svg" viewBox="0 0 100 100">
  <path d="M59.65,0l6.87,5.59,2.48.48c2.25.43,4.15,1.57,5.73,3.25l18.16,19.41c.29.31.49.86.49,1.31v27.45c0,1.06-.76,1.74-1.76,1.74h-11.3c-1.01,0-1.74-.69-1.74-1.73v-20.1s-5.44-5.68-5.44-5.68l2.17,63.38c.05,1.11-.6,1.63-1.57,1.88-6.06,1.62-12.17,2.36-18.46,2.72-9.08.52-20.04-.38-28.82-2.72-.98-.26-1.61-.78-1.57-1.88l2.17-63.37-5.44,5.68v20.1c0,1.04-.73,1.73-1.74,1.73h-11.3c-1,0-1.76-.68-1.76-1.74v-27.45c0-.45.19-1,.48-1.31L25.47,9.32c1.57-1.68,3.48-2.82,5.72-3.25l2.48-.48L40.61,0h19.04ZM56.7,3.18h-13.22s6.61,19.07,6.61,19.07l6.61-19.07ZM41.59,15.56l-2.72,5.56,9.6,14.01.04-7.64-8.04-23.23-4.25,3.38,1.86,5.42,2.11.03c.52,0,1.15.35,1.4.78s.27,1.13,0,1.69ZM58.54,15.42c-.26-.53-.14-1.29.14-1.67.25-.35.87-.65,1.32-.66l2.11-.03,1.86-5.42-4.25-3.38-8.03,23.23.02,7.67,9.61-14.04-2.78-5.71ZM70.8,56.75l-1-29.05c-.03-.8.38-1.44.98-1.67s1.35-.06,1.79.41l5.95,6.25.08-2.85c.03-.93.78-1.57,1.6-1.54.86.03,1.51.65,1.57,1.63v26.1s8.41,0,8.41,0v-25.55s-18.28-19.49-18.28-19.49c-1.3-1.39-3.23-1.78-4.98-2.05l-2.25,6.42c-.25.73-1.1.94-2.1.97l2.03,4.28c.18.53.14,1.18-.22,1.7l-12.69,18.54v50.73c0,1.16-.66,1.87-1.69,1.82-.92-.04-1.49-.73-1.49-1.82v-50.74s-12.69-18.54-12.69-18.54c-.43-.63-.42-1.35-.1-1.97l1.93-4.01c-.95.03-1.88-.24-2.18-1.1l-2.18-6.29c-1.76.27-3.67.65-4.98,2.05L10.01,30.5v25.52s8.41,0,8.41,0v-26.1c.06-.98.71-1.6,1.57-1.63.81-.03,1.57.61,1.6,1.54l.08,2.85,5.95-6.24c.49-.51,1.31-.66,1.93-.35.51.26.86.87.84,1.61l-1,29.07h6.85c.96.02,1.63.76,1.64,1.7l-.02,10.92c0,3.29-2.65,5.82-5.88,5.84l-3.22.03-.66,18.85c14.24,3.34,29.74,3.34,43.98,0l-.66-18.85-3.23-.03c-3.23-.02-5.87-2.55-5.88-5.84l-.02-10.92c.01-.96.68-1.67,1.64-1.68l6.84-.05ZM34.7,69.32v-9.34s-5.42.01-5.42.01l-.41,12.04h3.3c1.44,0,2.51-1.23,2.53-2.7ZM71.33,71.97l-.41-11.99h-5.42s0,9.42,0,9.42c.05,1.4,1.08,2.65,2.53,2.63l3.3-.05Z"/>
  <path d="M43.35,47.86c.94-.16,1.73.49,1.92,1.31.21.91-.42,1.78-1.24,1.98-.97.23-1.85-.39-2.04-1.23-.22-.97.36-1.89,1.36-2.06Z"/>
  <path d="M42.93,64.49c.98-.44,1.92.05,2.28.93.3.76-.08,1.72-.81,2.07-.9.43-1.85.09-2.27-.75-.38-.75-.15-1.83.81-2.26Z"/>
  <path d="M43.45,80.83c.98-.12,1.74.66,1.85,1.46.13.93-.6,1.75-1.39,1.86-.98.14-1.74-.48-1.92-1.29-.21-.95.39-1.91,1.46-2.04Z"/>
</svg>