<?xml version="1.0" encoding="UTF-8"?>
<svg id="Layer_1" data-name="Layer 1" xmlns="http://www.w3.org/2000/svg" viewBox="0 0 100 100">
  <path d="M93.39,51.96l-.02,4.35c-.51,4.79-2.43,9.26-5.68,12.84l.09,19.17c0,1.55-1.21,2.99-2.85,2.99H16.79c-1.66-.13-2.83-1.39-2.83-3.04v-17.62c-9.58-8.84-9.67-24.03,0-32.95v-10.53c0-.7.8-1.04,1.33-1.03.4,0,1.2.38,1.2.96v11.26c.02.44-.46.9-.74,1.16-8.77,8.01-8.57,21.9.4,29.65.14.18.35.63.35.88v9.07s53.27,0,53.27,0c.79,0,1.12.94,1.05,1.42-.12.79-.62,1.13-1.47,1.13H16.51s.02,7.1.02,7.1h68.66s.06-7.08.06-7.08l-8.22-.03c-.77,0-1.28-.51-1.31-1.22-.03-.61.37-1.19,1.06-1.32h8.37s.03-11,.03-11c7.66-7.77,7.6-20.19-.01-27.92V11.04s-6.76,0-6.76,0v22.76c0,7.98-5.09,14.96-12.68,17.35-1.56.49-3.11.7-4.8.7h-19.96c-9.79-.02-17.61-8.51-17.64-17.23l-.09-23.59h-6.71s-.02,9.72-.02,9.72c0,.75-.76,1.14-1.37,1.09s-1.16-.46-1.16-1.16l-.02-9.04c0-1.58,1.08-3.13,2.81-3.14l6.22-.04c.91.07,1.47.5,2.12,1.1l25.71,23.89,25.75-23.93c.66-.62,1.24-1.02,2.16-1.07l6.23.04c1.55,0,2.74,1.42,2.74,2.97v27.72c3.29,3.59,5.1,8.04,5.69,12.76ZM46.18,37.78l2.77-2.58L25.86,13.75l-.08,5.08,20.4,18.95ZM43.17,49.21l32.71-30.39-.07-5.09-37.96,35.26c1.82.3,3.5.43,5.32.22ZM35.08,48.1l9.22-8.59-18.47-17.15-.04,10.95c-.18,6.37,3.38,12.21,9.28,14.79ZM66.57,48.11c5.66-2.48,9.13-7.92,9.29-13.96l-.02-11.83-18.52,17.19,9.25,8.6ZM58.59,49.32c1.85,0,3.35-.02,5.19-.32l-8.33-7.75-2.77,2.58,5.91,5.49ZM54.79,49.28l-3.98-3.73-3.95,3.73h7.93Z"/>
</svg>