<?xml version="1.0" encoding="UTF-8"?>
<svg id="Layer_1" data-name="Layer 1" xmlns="http://www.w3.org/2000/svg" viewBox="0 0 100 100">
  <path d="M59.26,0c1.12.43,2.23,1.37,2.26,2.74l.06,3.5,17.75,7.98c2.33,1.05,4.22,2.57,5.7,4.66,1.64,2.31,3.13,4.64,4.55,7.12,2.42,4.22,3.46,10.78,4.07,15.84l2.43,20.32c.5,4.22.27,8.27.18,12.47-.02.97-.79,1.63-1.59,1.54-.86-.09-1.41-.79-1.36-1.72.34-5.8.03-11.38-.69-17.14l-1.96-15.77-1.34-8c-.61-2.29-1.22-4.51-2.5-6.51l-4.29-6.69c-2.92,6.92-3.61,14.73-2.85,21.99l1.93,18.3c.39,3.71.56,7.18.58,10.92l-.42,18.56h10.94s.34-8.44.34-8.44c-.04-.94.64-1.57,1.43-1.58.87-.02,1.54.63,1.5,1.57l-.36,9.26c-.02.52-.46,1.16-.8,1.55l-.27,4.98c-.07,1.34-1.14,2.34-2.56,2.34H8.23c-1.54,0-2.53-1.1-2.6-2.53l-.23-4.78c-.42-.48-.79-1.07-.82-1.71l-.69-17.69c-.22-5.51.1-10.73.78-16.19l2.08-16.63c.35-2.78.84-5.4,1.47-8.11s1.79-5.34,3.32-7.76c2.69-4.25,4.64-8.07,9.34-10.18l17.75-7.97.08-3.68c.03-1.3,1.22-2.16,2.29-2.58h18.26ZM52.88,11.02l3.05-1.71c.88-.47,1.74-.82,2.7-1.14V2.92s-17.05,0-17.05,0l.02,5.29,2.19.82,3.58,2c1.68-1.31,3.77-1.25,5.51-.01ZM56.28,89.82c1.98,2.61,4.05,4.78,6.34,7.06h16.41s-5.87-27.13-5.87-27.13c-.36-1.65-.45-3.18-.19-4.84l3.62-23.18c.29-1.89-.04-3.78-.04-5.68-.02-6.25,1.1-12.18,3.71-17.94-1.16-.73-2.24-1.27-3.42-1.79l-4.14-1.84c-.05,1.48-.38,2.47-1.02,3.61-.4.72-.22,1.78.02,2.56.62,1.81.5,3.54-.51,5.17l-19.6,31.7-.05,7.74c0,.94-.9,1.51-1.7,1.37s-1.21-.85-1.21-1.72l-.03-7.39-13.42-21.71c-.46-.74.14-1.67.71-1.93.7-.31,1.47-.1,1.92.63l7.64,12.22c-1.9-7.77-3.79-15.05-5.07-22.82-2.43-.28-4.28-1.92-4.88-4.27-.78-3.09-.65-6.23.78-9.12l-4.2,1.87c-1.61.72-2.06,2.56-1.15,4.01,1.97,3.14-.68,5.81.4,7.58l2.89,4.74c.44.72-.05,1.69-.69,1.96s-1.46.09-1.86-.56l-2.69-4.34c-.97-1.57-1.13-3.34-.49-5.13.24-.79.42-1.84.02-2.57-.63-1.14-.97-2.14-1.02-3.61l-5.48,2.45c-.69.38-1.33.75-2.04,1.21,3.24,7.39,4.31,15.18,3.53,23.2l3.74,23.57c.26,1.62.12,3.07-.17,4.68l-5.92,27.28h22.3c3.21-3.16,5.6-6.87,7.18-11.07-1.25-2.96-1.76-5.89-1.96-9.01l-.04-4.99c.22-.87.89-1.37,1.74-1.23.67.11,1.18.76,1.2,1.55l.09,5.26c.27,4.58,1.87,8.69,4.62,12.43ZM68.5,24.6c.8-1.06.76-2.11.39-3.2-.65-1.8-.49-3.63.48-5.25.82-1.37.17-3.11-1.26-3.75l-4.2-1.86c1.43,2.93,1.58,6.14.72,9.26-.61,2.21-2.38,3.84-4.81,4.09-1.28,7.68-3.19,15.02-5.07,22.86l13.75-22.15ZM45.85,18.58l-.02-5.05-3.85-2.1c-1.39-.76-3.08.01-3.53,1.49-.66,2.18-.69,4.44.14,6.59.49,1.28,2.14,1.86,3.36,1.19l3.9-2.13ZM58.32,20.72c1.4.76,2.99-.13,3.42-1.48.88-2.79.69-7.16-1.45-7.93-.74-.27-1.53-.18-2.19.18l-3.71,2.02-.02,5.08,3.96,2.13ZM51.47,17.66v-3.22c0-.88-.67-1.48-1.47-1.43-.66.04-1.27.63-1.26,1.42v3.31c0,.85.71,1.44,1.46,1.4.65-.04,1.28-.62,1.27-1.47ZM7.5,90.13h10.93s-.43-19.75-.43-19.75c.09-4.41.48-8.51.93-12.88l1.72-16.75c.72-6.99-.19-13.78-2.96-20.4l-3.65,5.59c-1.41,2.16-2.32,4.46-3,6.96-.59,2.78-1.1,5.44-1.46,8.29l-2.07,16.68c-.61,4.94-.91,9.66-.71,14.66l.69,17.6ZM56.95,23.33l-4.14-2.22c-1.65,1.28-3.76,1.27-5.42,0l-4.13,2.23c1.72,9.59,3.94,18.97,6.85,28.62,2.9-9.64,5.13-19.04,6.85-28.62ZM21.33,82.12l2.87-13.12c.29-1.32.31-2.67.09-3.99l-1.93-11.51-.9,7.92c-.52,4.56-.57,9.02-.44,13.61.07,2.41.04,4.63.31,7.08ZM78.88,82.06c.34-4.45.29-8.44.36-12.67-.12-3.36-.32-6.58-.71-9.9l-.7-5.99-1.93,11.67c-.2,1.2-.18,2.46.08,3.66l2.9,13.22ZM58.5,96.87c-2.35-2.48-4.36-4.8-6.14-7.63-1.29,2.78-2.91,5.24-4.88,7.64h11.02ZM17.8,96.88l-.21-3.84h-9.22s.18,3.85.18,3.85h9.25ZM91.65,96.88l.13-3.84h-9.21s-.18,3.84-.18,3.84h9.26Z"/>
  <path d="M71.93,49.91h-10.91c-.97-.01-1.44-.92-1.39-1.64.07-1.04,1.08-1.3,2-1.27l5.2-6.08c.82-.96,1.88-1.4,3.1-.99,1.02.34,1.86,1.31,1.86,2.56v4.49c.94-.09,1.66.48,1.75,1.27.11.96-.58,1.66-1.6,1.66ZM68.89,46.99l-.08-3.85-3.27,3.81,3.34.04Z"/>
  <path d="M49.97,24.47c.79-.08,1.49.54,1.59,1.22.13.84-.46,1.58-1.24,1.71s-1.57-.46-1.69-1.25.44-1.59,1.33-1.68Z"/>
  <path d="M49.55,31.72c.87-.35,1.68.14,1.95.89.24.68-.14,1.56-.79,1.81-.81.31-1.63.03-1.98-.79-.27-.62-.06-1.56.81-1.92Z"/>
  <path d="M49.58,38.85c.83-.29,1.66.09,1.94.94.2.61-.12,1.5-.83,1.79s-1.56.02-1.93-.75c-.32-.68-.06-1.67.82-1.98Z"/>
</svg>