<?xml version="1.0" encoding="UTF-8"?>
<svg id="Layer_1" data-name="Layer 1" xmlns="http://www.w3.org/2000/svg" viewBox="0 0 100 100">
  <path d="M41.13,0l.56.63c1.82,3.05,3.04,6.53,3.48,9.99,1.8.64,3.34,1.29,5,2.06l5.09-2.08c.45-3.65,1.86-7.78,4.06-10.6h1.1c3.42,2.7,4.99,6.45,5.43,10.85,1.66,1.08,2.75,2.65,3.26,4.55l-1.48,6.02c-.35.78-1.18,1.13-1.93.86-2.15-.79.19-4.18.15-6.73-.02-1.55-2.12-2.66-3.47-2.84-3.78-.51-8.03,1.22-11.41,2.98-.47.25-1.09.24-1.56,0-3.52-1.85-7.81-3.51-11.69-2.95-1.55.41-2.83,1.29-3.33,2.87,1.34,5.37,2.62,10.63,3.29,16.14h25.03s.83-5.4.83-5.4c.14-.89,1.09-1.28,1.78-1.12,2.22.51.35,3.7.34,7.52l-.03,7.05c7.96,13.75,17.66,27.93,28.81,39.22.73.74.63,1.78-.2,2.4-3.07,2.31-6.27,4.28-9.74,6.13.43.89.3,1.77-.56,2.32-9.05,5.79-19.43,9.12-30.19,9.86-8.06.55-16.48-.87-24.1-3.46-.94-.32-1.43-1.13-1.07-2.04.34-.85,1.19-1.1,2.13-.77,17.29,5.99,34.61,3.85,50.39-5.32-8.74-11.74-15.63-24.66-21.62-37.85-.29-.92.07-1.72.92-2.01.64-.22,1.46.03,1.82.82,3.82,8.52,8.06,16.7,12.86,24.72,2.39,3.92,4.79,7.58,7.54,11.35,2.99-1.57,5.67-3.19,8.57-5.18-4.25-4.51-8.2-9.17-11.99-14.19-5.8-7.71-11.05-15.66-15.93-24.17h-26.17c-4.9,8.56-10.18,16.54-16.01,24.29-3.74,4.91-7.56,9.48-11.9,14.04,2.76,1.92,5.53,3.59,8.58,5.2,3.04-4.16,5.71-8.29,8.33-12.68,4.48-7.62,8.45-15.34,12.06-23.39.38-.86,1.29-1.13,2.04-.73s1.04,1.18.64,2.05c-5.9,13.01-12.97,26.18-21.56,37.69,1.91,1.15,3.85,2.15,5.85,3.12.76.37.97,1.25.67,1.95-.24.56-1.1,1.07-1.81.76-2.66-1.19-5.14-2.56-7.57-4.12-.81-.52-.98-1.41-.54-2.3-3.44-1.83-6.59-3.76-9.65-6.04-.41-.31-.79-.87-.79-1.28,0-.45.24-.93.59-1.29,11.03-11.14,20.85-25.53,28.73-39.13l-.03-7.05c0-1.92-.35-3.8-.77-5.68l-2.61-11.65c.28-1.98,1.75-3.51,3.23-4.62.35-4.3,2.1-8.23,5.43-10.8h1.12ZM42.06,9.74c-.48-2.13-1.07-3.88-1.93-5.71-1.31,1.67-2.07,3.67-2.41,5.65l4.34.06ZM62.7,9.65c-.41-2.13-1.15-4.01-2.41-5.62-.9,1.9-1.51,3.76-1.94,5.76l4.35-.15ZM62.66,38.66l-.02-3.95h-24.9s.02,3.95.02,3.95h24.9Z"/>
</svg>