<?xml version="1.0" encoding="UTF-8"?>
<svg id="Layer_1" data-name="Layer 1" xmlns="http://www.w3.org/2000/svg" viewBox="0 0 800 800">
  <path d="M700,290.17v10.25c-2.36,7.47-7.17,12.21-14.15,16.44l-88.86,53.83c-8.37,5.07-17.33,5.19-26.39-.21,5.95,56.07,13.86,112.72,30.38,165.96,4.62,14.88,10.31,28.79,17.08,42.58,3.05,6.22,1.83,11.82-1.93,17.11-21.31,29.91-57.93,41.42-92.96,30.02-16.96,25.43-46.22,28.01-75.35,20.27-31.93,20.81-63.28,19.85-95.71.05-30.01,7.62-57.91,5.06-75.4-20.37-36.34,12-73.34-1.25-94.27-32.02-3.98-5.86-3.41-9.62-.17-15.94,28.67-55.93,40.14-143.31,47.18-207.66-8.66,5.07-17.56,5.53-25.62.62l-93.86-57.04c-10.21-6.2-12.49-19.76-7.17-29.72l61.56-115.22c2.43-4.54,6.47-8.93,10.41-11.88l22.64-16.99c5.42-4.07,8.68-.85,13.2,1.62,30.91,16.89,63.19,29.55,97.48,38.51,50.48,13.19,101.98,15.6,153.18,7.03,5.38-.9,9.67,3.87,9.87,8.19.22,4.87-3.08,8.55-8.18,9.39-43.26,7.13-86.3,6.74-129.51-.87-25.78-4.54-49-11.97-74.87-20.12,22.73,18.63,47.26,32.15,73.81,42.2,74.75,28.29,147.42,6.27,208.9-41.85l-41.86,12.84c-5.2,1.6-10.16-2.06-11.17-6.54-1.11-4.95,1.54-9.23,6.96-10.74,32.61-9.04,64.19-20.63,93.56-37.61,5.21-3.01,8.49-6.19,14.6-1.59l21.9,16.5c4.56,3.44,8.48,8.17,11.28,13.42l63.45,119.52ZM580.44,216.38c12.41-1.7,21.09,6.26,23.96,15.18,3.41,10.61-1.4,21.21-9.95,26.17-9.36,5.43-20.76,3.49-27.73-3.96-7.27-7.76-8.3-18.98-1.76-28.56l-15.45-24.34c-12.07,8.64-24.19,16.58-37.5,24.42l12.28,22.36c11.37-.59,20.46,6.51,23.24,16.12,3.03,10.48-1.95,21-10.46,25.79-9.91,5.57-21.45,2.96-28.16-4.93-6.98-8.21-7.39-19.65-.33-28.85l-12.14-22.21-34.22,13.39,4.83,23.54c11.51,2.31,18.4,11.69,18.41,22.29,0,10.5-7.63,19.56-18.03,21.72-10.15,2.11-20.66-3.3-24.84-12.72-4.27-9.6-1.83-20.34,7.17-27.39l-4.71-22.96c-12.83,2.52-23.8,3.97-36.44,4.96l.14,30.96c11.09,5.05,15.78,15.98,12.81,26.89-2.58,9.5-11.76,16.45-22.03,16.23-10.24-.22-19.1-7.57-21.29-17.12-2.47-10.79,2.46-20.93,12.75-25.94l.06-30.93c-12.53-1.2-24.58-2.9-36.5-4.88l-4.42,22.98c9.43,7.21,11.74,18.92,6.12,29.11-4.6,8.35-15.17,13.3-25.43,10.44-9.66-2.7-16.84-11.64-16.45-22.43.36-9.93,7.36-18.95,18.43-21.25l4.84-23.48c-11.43-4.13-22.83-8.69-34.16-13.47l-12.28,22.24c6.95,8.9,6.74,20.88-.25,28.91-7.02,8.07-18.59,10.36-28.14,4.94-8.72-4.95-13.6-15.62-10.46-25.95,2.93-9.63,12.04-16.61,23.27-16.01l12.18-22.52c-13.76-8.04-25.41-15.75-37.39-24.33l-15.52,24.34c6.46,9.25,5.48,20.78-1.74,28.55-7.18,7.73-18.77,9.61-28.3,3.76-8.49-5.21-12.85-15.96-9.37-26.19,3.29-9.69,12.75-16.44,24.15-15.06l16.84-26.23-34.37-31.2-20.66,15.84-47.55,89.07,99.45,60.25,1.18-18.94c.34-5.48,5.06-8.82,10.07-8.06,4.17.63,7.81,4.14,7.5,9.51-4.22,73.9-12.88,151.02-32.18,222.26,17.24,9.63,37.44,9.49,56.17,2.82,2.63-.93,7.18-1.36,9.35-.23,1.82.95,3.9,4,5.06,6.37,10.14,20.77,36.69,21.27,59.02,14.58,4.06-1.22,7.69-.41,11.18,1.93,26.2,17.55,52.61,17.88,78.7.03,3.45-2.36,7.12-3.21,11.22-1.99,22.84,6.83,49.92,6.03,59.23-15.28,2.74-6.28,7.98-7.67,14.22-5.41,18.5,6.7,38.91,6.77,56.06-2.83-19.28-71.13-28.01-148.46-32.18-222.27-.33-5.8,3.9-9.42,8.55-9.6,5.42-.22,8.67,3.69,9.12,9.2l1.45,17.47,99.05-59.96-47.52-88.91-20.95-15.68c-11.9,11.59-22.38,20.98-34.23,31.13l17.05,26.35ZM215.25,233.81c-2.78.84-3.84,4.78-2.76,7.06.8,1.69,4.35,2.78,6.83,1.74,1.73-.72,2.56-4.25,1.83-6.31-.55-1.55-4.05-3.05-5.9-2.49ZM580.7,234.15c-2.75,1.82-2.92,5.98-1.5,7.34,1.37,1.32,4.83,1.95,6.28,1.16,1.91-1.05,2.75-4.92,1.74-6.85-.77-1.47-4.73-2.83-6.52-1.65ZM272.66,265.4c-2.65.8-4.17,4.27-3.48,6.03.94,2.4,4.2,3.99,6.06,3.34,2.57-.89,3.87-4.23,3.15-6.49-.49-1.56-3.85-3.45-5.73-2.88ZM524.59,265.44c-3.04.67-4.04,5.09-2.84,7.23.86,1.53,4.23,2.5,6.32,1.92,1.71-.47,2.95-4.2,2.42-6.23-.44-1.7-3.67-3.41-5.9-2.92ZM213.42,356.24c2.5,1.51,6.12-.36,7.12-1.88l8.26-12.56-103.21-62.55-7.47,13.85c-1.33,2.46.53,5.79,3.07,7.32l92.23,55.81ZM587.44,355.81l91.38-55.38c3.09-1.87,4.45-5.13,2.69-8.27l-7.3-12.97-103.09,62.49,8.38,12.64c1.43,2.15,4.89,3.35,7.95,1.49ZM335.65,287.9c-3.64.91-4.31,4.73-3.17,6.86.78,1.46,4.02,2.78,5.9,2.37s3.59-4.13,3.07-6.3c-.38-1.6-3.75-3.44-5.8-2.93ZM461.11,288.06c-3.04,1.26-3.43,5.75-2,7.59,1.01,1.31,4.2,1.79,6.46.98,1.78-.64,2.59-4.21,1.75-6.41-.59-1.55-4.14-3.03-6.22-2.17ZM396.53,304.64c-1.7,1.83-1.29,5.93.11,7s5.71,1.22,6.84-.14c1.2-1.44,1.42-4.91.51-6.42-1.08-1.81-5.54-2.52-7.47-.44ZM510.2,612.84c2.24-5.2,6.68-6.45,11.68-5.32l22.24,5.03c23.05,2.09,44.86-8.14,57.59-26.9-6.68-13.21-11.48-25.81-16.4-39.74-19.9,9.56-41.34,9.92-62.2,3.93-17.33,25.35-46.14,27.74-75.18,20.03-31.87,20.75-63.79,20.1-95.82-.02-29.03,7.76-57.92,5.34-75.23-20.04-21.16,6.34-42.68,5.17-62.33-3.72-4.94,14.44-9.72,26.62-16.24,39.61,11.22,16.65,29.95,26.61,50.53,27.06,10.19-.17,19.86-2.04,29.3-5.24,5.37-1.82,9.76.71,11.9,5.69,8.97,20.92,36.22,22.57,58.87,15.66,3.82-1.17,7.51-.98,10.84,1.22,26.68,17.63,53.45,19.1,79.83.48,3.65-2.57,7.32-3.02,11.55-1.71,22.4,6.92,49.81,5.46,59.06-16.01Z"/>
  <path d="M240.58,568.36c7.03-1,12.46,4.2,13.36,9.97,1.05,6.67-3.84,12.4-9.69,13.44-6.63,1.19-12.32-3.21-13.62-8.86-1.55-6.74,2.51-13.5,9.95-14.56Z"/>
  <path d="M557.36,568.24c6.76-.26,11.75,4.78,12.31,10.71.64,6.71-4.33,12.55-10.91,12.98-6.49.42-12.33-4.33-12.8-11.21-.42-6.09,4.52-12.22,11.4-12.48Z"/>
  <path d="M395.42,601.14c6.91-2.54,13.46,1.5,15.43,7.62,1.89,5.89-1.19,12.42-7.16,14.57-6.14,2.21-12.74-.51-15.32-7-2.08-5.24.16-12.65,7.05-15.18Z"/>
  <path d="M317.97,591.77c6.9-2.7,13.19.79,15.5,6.55,2.4,5.99-.55,12.89-6.37,15.29-5.97,2.46-12.51-.07-15.19-5.44-2.94-5.89-.86-13.7,6.05-16.4Z"/>
  <path d="M472.77,591.87c6.59-2.81,13.33.42,15.68,6.11,2.46,5.94.05,13.12-6.36,15.7-5.48,2.2-12.15.18-15.14-5.7-2.67-5.24-1.03-13.19,5.83-16.11Z"/>
</svg>