<?xml version="1.0" encoding="UTF-8"?>
<svg id="Layer_1" data-name="Layer 1" xmlns="http://www.w3.org/2000/svg" viewBox="0 0 800 800">
  <path d="M100,573.48l.52-16.25,29.63-176.3.05-111.05c.65-24.35,20.18-44.38,44.76-44.4l72.74-.07,109.93-36.61c5.18-.85,10.31,1.65,11.09,6.99l9.27,63.51c.83,5.71-2.67,10.18-7.83,10.71-4.27.44-8.85-2.28-9.65-7.36l-2.63-16.66-99.16,31.55.16,32.32c.06,12.06-4.15,23.8-12.74,32.39l-35.12,35.15c-8.63,8.63-20.24,13.01-32.41,13.02h-32.02s-3.02,18.98-3.02,18.98l43.18.14c23.65.08,44.87,10.06,61.25,28.1l12.51-43.41,108.25-73.74-2.67-18.92c-.8-5.67,2.26-10.12,7.62-10.81,4.17-.54,9.09,2.27,9.83,7.33l3.17,21.47,34.4,23.74,6.96-6.71c3.54-3.41,9.2-2.22,12.01.69,2.94,3.04,3.3,8.45.45,11.68l-4.25,4.83,28.24,19.52,6.33-6.78c3.94-4.23,9.44-5.22,13.69-1.23,3.41,3.2,3.92,8.78.14,12.72l-5.26,5.48,24.28,16.9c2.54-3.78,5.82-7.35,9.49-7.47,4.28-.15,7.95,2.55,9.1,6.27,1.12,3.64-.81,7.59-3.7,11.44l28.37,19.59,82.72.14c5.16,0,7.77,6.12,7.26,10.01-.46,3.51-3.83,7.59-8.41,7.6l-79.05.06-15.74,29.61c-1.02,1.92-4.39,4.22-6.56,4.88-24.38,7.33-43.48,25.26-47.2,50.64l65.18,6.73c14.75,1.52,29.52-.6,44.3-1.97,37.4-3.48,71.76-16.97,92.57-48.44-1.59-13.38-9.86-25.5-20.46-33.19-4.82-3.5-5.41-9.67-1.6-13.69,3.31-3.5,8.68-3.72,13.18-.1,14.04,11.26,25.32,27.73,26.61,46.6,1.35,19.68-3.12,38.79-11.08,56.65-17.44,39.14-55.36,65.25-98.96,65.31l-214.98.3-36.89-36.73-24.18-.03-.06,28.33c0,4.34-3.81,8.47-8.6,8.46l-162.76-.38c-21.73-.05-37.36-18.56-42.24-37.5ZM355.52,228l-2.98-18.66-94.09,31.33.33,18.1,96.73-30.77ZM240.77,262.18l-.11-19.14-65.63.15c-11.5.03-21.71,7.9-25.47,18.96l91.21.03ZM233.23,329.96c5.16-5.35,7.64-11.93,7.9-18.95l-.28-31.04-92.9-.03v92.76s31.31,0,31.31,0c7.56-.33,14.4-3.15,19.73-8.48l34.24-34.25ZM498.44,584.47c.02-6.21,4.94-9.7,9.74-9.24,5.09.49,8.09,4.56,8.08,9.91v8.41s55.79,0,55.79,0l.11-9.58c.06-5.26,4.23-8.85,8.94-8.79,4.46.06,8.7,3.63,8.76,8.76l.18,9.48c42.17-2.56,78.44-31.46,89.17-72.96-36.96,33.09-86.75,42.2-135.14,37.67l-161.16-17.87c-5.35-.59-7.66-6.79-6.92-10.39.94-4.58,4.97-7.69,10.03-7.13l76.2,8.39c4.31-31.41,26.36-56.59,57.14-64.6l13.19-24.64-24.33-16.76-12.24,16.83c-3.09,4.25-8.86,4.62-12.55,1.82-3.22-2.45-4.74-7.84-2.07-11.64l12.11-17.23-26.51-18.29-16.82,17.21c-3.52,3.6-9.37,2.46-12.24-.67-3.29-3.59-3.2-8.74.33-12.45l13.75-14.43-28.46-19.65-20.39,21.23c-3.7,3.85-9.62,2.89-12.6-.14-3.71-3.76-3.21-9.43.53-13.09l17.75-18.22-30.48-20.92-102.74,70.03-14.61,52.8,30.9,61.62,53.08-.06c5.44,0,9.65,3.37,9.9,8.65.22,4.61-3.61,9.18-8.96,9.18l-57.5-.05c-52.99,22.76-111.47,23.65-166.67,3.48l-3.47,21.66c-1.4,15.68,8.75,29.76,24.48,30.17l24.16.63.14-9.74c.06-4.46,3.66-8.08,7.76-8.67,3.45-.5,9.33,2.13,9.52,6.41l.53,11.93,55.7.02.13-9.61c.07-5.17,4.26-8.71,8.78-8.76,4.67-.06,8.86,3.54,8.91,8.78l.09,9.58h37.43s-.03-27.13-.03-27.13c0-5.42,3.64-9.68,9.18-9.67l40.18.09,36.97,36.73h42.56s-.04-8.45-.04-8.45c-.03-5.62,3.63-9.82,8.81-9.95,4.66-.11,8.93,3.45,8.98,8.79l.09,9.57h55.83s.03-9.08.03-9.08ZM274.09,524.18l-31.83-63.58c-11.5-20.44-32.04-32.79-55.53-33.35l-46.27.05-15.99,95.94c49.9,18.77,98.97,20.91,149.61.94Z"/>
  <path d="M525.02,369.16l37.33,17.58,44.47-20.58,42.97,20.38,23.49-9.73-8.62,27.79c4.66,2.75,9.29,5.56,13.85,8.46,28.54-84.71,41.85-183.51,5.54-264.23-15.25-33.52-40.63-59.34-74.62-72.5-37.45-14.5-75.89-1.59-98.19,31.85-37.42,56.11-37.72,123.89-23.26,189.38,5.6,25.34,12.93,49.42,20.59,73.9,7,2.81,13.59,6.55,20,10.72l-3.56-13.03ZM519.1,124.87l41.45,19.24c5.44.46,15.27-4.27,19.68-8.37,1.77-1.65,1.74-7.59.22-9.41-1.52-1.81-7.24-3.18-9.47-2.3l-8.95,3.51-33.31-16.07c16.48-21.03,42.28-30.07,68.04-22.46,21.9,6.47,42.2,19.32,55.37,39.1l-43.61-20.22c-9.85.85-18.81,5.66-19.11,12.59-.11,2.47,3.7,7.34,6.17,7.26s6.48-1.76,10.13-3.55l39.51,18.53c5.07,2.38,10.88.63,16.71-2.85,5.75,11.51,10.79,22.45,16.06,35.12l-27.44,13.25-43.25-20.69c-15.44,6.48-29.65,13.45-44.31,20.64l-42.54-19.94c-5.15,1.03-11.7,3.68-20.01,6.83,3.12-16.84,9.63-33.5,18.64-50.21ZM496.17,195.44l21.96-10.63,44.44,20.67,44.08-20.49,44.25,20.55,31.6-14.94,6.8,39.44-37.96,18.46-44.66-20.51-44.13,20.4-43.44-20.4-23.98,10.29c-.05-15.28.26-28.36,1.06-42.83ZM507.32,311.46l11.6-5.62,44.05,20.49,44.59-20.84c4.11,2.33,8.69,3.72,11.2,2.83,2.5-.89,5.51-8.22,3.89-10.41-3.27-4.4-12.19-8.95-17.34-9.09l-42.37,20.03-43.77-20.38-15.97,6.53-6.53-39.37,22.21-10.26,43.52,20.55,44.36-20.55,43.42,20.47,39.92-18.07c.04,14.26-.41,28.22-1.29,43.15l-37.76,17.79-8.16-3.55c-2.63-1.14-7.87-.49-9.98,1.26-2.1,1.75-2.22,10.27.46,11.5l17.82,8.18,35.87-16.61-8.42,46.58-27.39,13.24-44.48-20.5-44.35,20.36-44.69-20.99-10.41-36.74Z"/>
</svg>