<?xml version="1.0" encoding="UTF-8"?>
<svg id="Layer_1" data-name="Layer 1" xmlns="http://www.w3.org/2000/svg" viewBox="0 0 800 800">
  <path d="M700,614.52v8.17s-2.76,5.36-2.76,5.36c-5.29,12.92-5.67,25.89-.56,38.96,3.53,9.02-1.23,19.94-11.28,21.89l-54.55,11.13h-9.37c-7.05-2.77-11.47-8.14-12.15-16.13-.92-10.88-5.83-20.86-13.66-28.37l-10.74-10.31-22.32-49.1-11.16,25.15c-5.26,22.07,6.88,49.39-11.04,49.39l-282.01-.02c-5.66,0-8.7-4.2-8.81-9.28-.29-13.44.79-27.13-.59-40.22l-11.76-24.8-22.17,48.85-10.76,10.35c-7.81,7.51-12.77,17.48-13.66,28.37-.66,7.99-5.11,13.34-12.14,16.13l-9.22-.42-55.58-11c-9.74-1.93-13.68-13.26-10.43-21.56,10.45-26.69-5.11-43.13-3.11-50.37l118.41-429.4c3.56-12.92,15.71-19.75,26-25.64,5.39-3.09,11.17-3.24,14.39,2.49,2.27,4.05.74,9.35-4.21,12.2l-11.24,6.47c-8.47,4.87-12.15,16.84-8.79,26.12,9.42,26.04,14.46,51.9,14.46,79.91v180.22c0,5.6-4.46,8.81-9.09,8.7-4.21-.1-8.47-3.36-8.47-8.8l-.09-182.43c0-17.63-1.84-34.16-7.85-51.6l-103.93,376.97,82.94,18.04,29-64.51-.12-55.17c.16-5.19,4.11-8.86,8.63-8.99,4.75-.14,8.98,3.55,8.98,8.88l.02,48.01c0,18.25,4.65,35.69,14.02,51.64h273.57c9.03-15.77,14-32.54,14-50.81l.03-270.12c0-27.1,4.54-52.11,13.59-77.34,4.27-10.19,1.55-23.61-8.74-29.32l-67.97-37.76c-22.01,27.86-54.24,42.75-88.23,42.64-33.89-.11-65.84-15.57-87.25-42.65l-21.26,11.79c-4.34,2.41-9.97-.21-11.77-3.94-1.85-3.84-.71-9.17,3.37-11.46l26.21-14.73,10.31-16.71c3.44-5.57,9.14-8.97,14.77-9.38,6.49-.47,11.44,2.35,16.2,6.6,30.18,26.9,69.86,26.94,99.89,0,5.04-4.53,10.21-7.39,17.34-6.48,4.9.63,10.48,4.11,13.61,9.19l10.39,16.87,71.35,39.61c10.73,5.96,17.08,14.92,20.36,26.81l93.04,337.71c1.53,5.54-1.79,9.93-6.3,11.06-3.89.98-9.14-.85-10.52-5.85l-82.89-300.62c-6.47,17.53-7.15,33.92-7.93,51.65l-.04,278.8,29.02,64.63,82.85-18.06-10.3-37.6c-1.3-4.74,2.54-9.41,6.17-10.3,4.77-1.17,9.5,1.14,10.87,6.05l13.05,44.42ZM464.6,117.23c-39.92,37.32-91.28,35.44-129.59-.15l-9.55,15.72c18.32,24.01,45.87,36.9,75.09,36.73,28.78-.16,55.87-13.01,73.99-36.74l-9.94-15.56ZM532.67,653.09l.06-25.72h-265.46s.07,25.72.07,25.72h265.33ZM172.97,682.04c1.98-15.64,7.76-26.53,16.63-36.9l-67.47-14.68c3.95,14.48,3.05,27.85-1.96,41.72l52.79,9.86ZM679.71,671.95c-5.42-15.76-5.41-27.58-1.87-41.44l-67.44,14.66c9.17,10.43,14.84,22.29,16.68,36.99l52.63-10.2Z"/>
  <path d="M490.31,429.52c31.63-47.35,21.7-110.05-21.84-145.42-43.84-35.62-107.73-31.5-146.78,9.02-39.1,40.56-40.81,104.12-4.08,146.63,36.97,42.78,100.78,50.49,146.97,16.5,3.8-2.8,8.81-1.9,11.56.86,3.29,3.31,3.66,9.71-.32,12.71-52.73,39.78-126.72,31.6-170.1-16.95-43.68-48.88-42.78-123.22,2.37-171.03,44.63-47.26,118.26-53.07,169.64-12.89,51.55,40.3,64.35,113.42,27.98,169.16-2.59,3.97-7.18,5.28-11.66,3.22-3.57-1.64-6.58-7.54-3.74-11.8Z"/>
  <path d="M435.42,411.09l-.08,15.92c-.11,20.53-16.1,36.52-35.92,36.18-19.91-.34-34.82-16.86-34.79-37.37l.02-14.69c-7.04-4.15-12.35-7.7-18.89-12.64l-5.94,2.24c-5.25,1.98-10.05.56-12.35-3.88-2.46-4.76-.1-10.54,5.49-12.35,4.15-1.35,7.43-4.66,8.74-8.78,1.79-5.64,7.63-7.7,12.38-5.29,4.54,2.3,6.34,8.16,2.83,13.78,24.29,23.37,61.91,23.35,86.21.01-3.54-5.63-1.73-11.48,2.82-13.79,4.76-2.41,10.58-.35,12.38,5.29,1.32,4.13,4.58,7.44,8.74,8.79,5.23,1.7,7.7,6.9,5.84,11.55-1.96,4.93-7.16,6.81-12.69,4.68l-5.95-2.29c-6.39,4.89-11.15,8.18-18.84,12.63ZM417.49,428.85l.27-11.42c-12.5,2.63-23.03,2.62-35.49,0l.27,11.86c.22,9.66,9.09,16.58,17.99,16.3,8.33-.26,16.74-6.97,16.97-16.74Z"/>
  <path d="M458.24,354.1c-9.02-6.69-19.7-6.99-28.36-.27-3.6,2.79-9.1,2.17-12.05-1.3-2.74-3.22-3.08-8.9.96-12.27,14.14-11.77,34.32-12.02,48.91-.98,4.14,3.14,5.18,8.04,2.72,12.3-2.03,3.51-7.88,5.72-12.19,2.53Z"/>
  <path d="M370.49,353.99c-9.03-6.81-19.7-6.65-28.35-.05-3.81,2.91-9.62,1.72-12.06-1.65-3.11-4.3-2.18-9.65,2.25-13,14.58-11.05,34.73-10.82,48.93.97,3.7,3.07,3.62,8.42,1.46,11.56-2.56,3.71-8.17,5.22-12.22,2.17Z"/>
</svg>