<?xml version="1.0" encoding="UTF-8"?>
<svg id="Layer_1" data-name="Layer 1" xmlns="http://www.w3.org/2000/svg" viewBox="0 0 800 800">
  <path d="M696.68,584.14l.56,12.75c-3.31,8.83-9.92,17.72-20.46,19.26l-62.6,9.17c-17.36,2.54-27.28-10.84-29.62-28.43l-20.33-152.78c-2.15,14.4-2.61,27.4-3.57,41.4-1.22,17.81-.81,34.75.85,52.58l9.32,99.77c1.02,13.22-7.6,24.29-20.75,26.45l-152.92,25.17-153.01-25.23c-13.59-2.24-22.32-13.83-20.65-27.58l8.96-95.7c1.76-18.79,2.43-36.66,1.1-55.46-.99-14-1.45-26.99-3.55-41.4l-21.02,158.25c-1.92,14.47-14.13,25.04-28.93,22.87l-62.42-9.16c-16.52-2.43-21.95-17.96-20.04-32.73l32.18-248.81c.75-5.76,5.02-8.88,9.89-8.29s8.39,4.78,7.58,10.6l-25.6,198.94,76.93,10.72,28.4-214.5c-.68-14.04.77-27.28-1.67-40.84l-9.77-54.2c-.98-5.42,2.73-9.8,7.57-10.39,4.36-.53,8.56,2.27,9.63,7.07l5.79,25.77c2.08,9.27,4.35,18.18,4.68,28.14l8.02,241.08-10.25,110.39c-.35,3.76,1.95,7.18,5.61,7.78l141.65,23.34.1-57.56c0-5.02,5.04-8.41,9.24-8.18,3.73.2,8.27,3.61,8.28,8.17l.09,57.62,142.6-23.54c3.01-.5,4.93-4.73,4.66-7.6l-10.27-110.4,8.02-241.09c.33-9.96,2.59-18.86,4.68-28.15l5.8-25.75c1.18-5.23,5.84-8.02,10.66-6.9,4.2.98,7.46,5.21,6.56,10.2l-9.8,54.2c-2.39,13.22-.85,26.02-1.78,39.84l28.56,215.61,76.92-10.77-35.63-276.94c-4.82-30.99-25.34-48.44-50.21-65.07-10.82-5.7-20.04-14.14-31.42-18.77l-60.54-24.63-35.13,70.48c-2.7,5.41-8.49,8.62-13.36,9.55-6.28,1.19-11.69-1.18-16.54-4.96l-23.79-18.53-.04,364.64c0,5.48-4.97,8.75-9.19,8.49-4.71-.29-8.41-3.74-8.41-9.34l-.02-363.75c-15.5,9.38-26.28,26.08-40.33,23.45-4.87-.91-10.66-4.14-13.36-9.55l-35.12-70.47-60.52,24.63c-11.64,4.74-21.07,13.38-32.15,19.2-25.87,17.45-45.88,35.14-49.95,67.44l-4.06,32.29c-.71,5.66-5.86,8.08-10.54,7.25s-7.6-5.02-6.87-10.34l5.3-38.65c3.42-24.94,19.33-46.19,39.84-60.64l28.93-20.4c6.51-4.59,13.27-9.01,20.77-12.03l70.22-28.28,45.32-20.38h102.74s44.5,20,44.5,20l74.3,30.16c10.04,4.08,17.97,11.62,26.86,17.58,10.68,7.15,20.81,13.82,30.14,22.65,15.48,14.65,27.06,32.79,29.88,54.52l42.5,328.7ZM429.2,128.19l-64.34-.13,32.28,45.1,32.06-44.98ZM385.08,186.44l-40.42-56.13-28.84,13.34,34.97,70.14,34.29-27.35ZM443.49,213.69l34.99-70.17-28.91-13.18-40.46,56.19,34.37,27.16ZM182.58,607.87c4.29.34,8.25-2.65,8.81-6.89l4.84-36.99-76.82-10.75-4.72,36.75c-.59,4.58,2.57,8.53,7.13,9.12l60.75,8.77ZM672.42,599.09c4.47-.58,7.69-4.58,7.11-9.11l-4.69-36.67-76.83,10.71,4.84,36.96c.55,4.2,4.58,7.14,8.81,6.88l60.76-8.77Z"/>
  <path d="M496.62,396.83c-10.52,6.08-21.99,5.95-32.08.15l-16.37-9.42c-9.49-5.46-14.98-15.24-14.96-26.29l.08-43.38c.03-17.13,13.92-29.52,30.59-29.53h32.96c16.66-.01,30.63,12.38,30.66,29.53l.08,43.37c.02,11.1-5.52,20.86-15,26.34l-15.97,9.23ZM487.97,381.45l16.27-9.42c3.34-1.93,5.78-6.6,5.77-10.65l-.1-43.55c-.02-6.53-5.46-11.82-11.92-11.81h-35.28c-6.42.02-11.83,5.42-11.84,11.79l-.09,43.58c0,3.97,2.32,8.75,5.7,10.66l19,10.73c3.53,2,8.96.72,12.49-1.33Z"/>
</svg>