<?xml version="1.0" encoding="UTF-8"?>
<svg id="Layer_1" data-name="Layer 1" xmlns="http://www.w3.org/2000/svg" viewBox="0 0 800 800">
  <path d="M412.93,100c48.82,5.11,93.72,34.33,107.38,83.23,1.48,5.3-1.56,9.91-6.08,11.09-4.33,1.13-9.27-1.03-10.66-5.86-6.15-21.38-19.07-38.97-37.72-51.55-45.7-30.83-112.55-25.52-150.08,15.3-38.04,41.38-24.06,99.47,12.42,137.74,11.07,11.61,23.95,21.19,38.9,26.9,2.83-4.66,7.23-7.46,12.02-5.66,4.28,1.61,5.68,5.9,5.7,10.99,9.99,1.77,21.46,1.8,30.57-.42-.27-5.6,1.96-9.88,6.85-10.9,3.92-.81,8,1.01,10.19,5.72,37.25-15.59,64.31-51.75,72.28-91.4,1.09-5.4,6.1-8.26,10.88-7.14,4.19.98,7.34,5.32,6.43,10.36-2.58,14.43-7.64,28.03-14.55,41.18,7.48,3.85,13.52,8.4,19.62,13.83,25.89,2.49,47.7,19.22,55.84,43.69,4.03,12.1,4.67,23.94.19,35.99,11.29,8.04,17.26,20.6,17.24,34.24l-.03,21.23c-.01,8.93-3.06,17.24-7.96,24.74,4.4,7.01,7.94,14.81,7.92,23.27l-.06,25.73c-.02,8.08-3.51,15.72-7.84,22.56,4.57,7.37,8.06,15.49,7.97,24.38l-.25,26.64c-.07,7.09-4.26,14.49-7.49,20.53,3.59,7.2,7.76,14.87,7.7,23.35l-.18,25.4c-.09,11.79-5.68,22.18-14.59,29.86v16.17c-.01,11.14-7.68,18.81-19.03,18.81l-333.86-.02c-10.34,0-18.01-7.56-18.08-17.53l-.14-17.38c-9.28-8.08-14.75-19.22-14.76-31.91l-.02-22.37c0-8.92,3.3-17.1,8.03-24.22-5.12-7.49-8.09-15.86-8.07-24.94l.05-22.39c.02-8.92,3.22-17.12,8.03-24.25-5.12-7.49-8.06-15.82-8.07-24.91l-.02-21.18c0-9.37,2.88-18,8.11-25.51-4.68-7.18-8.01-15-8.04-23.64l-.08-22.39c-.05-13.53,5.87-25.84,17.14-34.28-4.47-12.46-3.69-24.73.65-37.15,8.45-24.15,30.22-40.23,55.66-42.56,5.74-5.61,11.79-9.58,18.92-13.48-25.92-47.76-22.12-99.8,17.74-136.64,21.04-19.44,47.4-29.87,75.41-33.23l27.77-.02ZM503.01,351.81c12.64,0,23.02-8.88,24.06-21.31,1.68-20.21-10.7-38.43-29.25-45.53-14.99,21-33.99,37.61-57.82,47.82l6.89,19.04h56.12ZM353.3,351.83l6.46-18.82c-24.2-10.09-43.02-26.58-58.17-47.75-17.12,6.37-27.63,21.92-28.94,39.95-.99,13.61,8.71,26.45,23.18,26.49l57.47.13ZM544.97,370.79c14.82-.5,24.71-12.55,23.64-26.47-1.33-17.44-11.64-32.26-27.62-39.55,5.22,17.68,6.45,32.54-3.9,47.86,3.41,5.89,5.71,11.29,7.88,18.16ZM263.05,352.58c-6.45-9.06-9.56-19.45-7.72-29.78l3.16-17.67c-17.38,7.92-28.14,25.22-26.92,44.07.81,12.58,12.11,21.98,23.8,21.31,1.77-6.77,4.27-11.93,7.68-17.93ZM390.96,351.82l-.43-11.25-14-1.84-4.74,13.06,19.17.02ZM428.18,351.74l-5.11-13.45-14.62,2.48-.03,11.08,19.76-.11ZM390.79,369.38c-9.59-.02-16.59-.09-25.83.79,9.41,8.37,13.89,16.18,10.53,26.65-2.8,8.73-11.56,14.88-21.18,14.13-9.56-.75-17.87-8.23-19.03-18.11-1.15-9.78,4.09-17.15,14.11-23.3l-51.22-.12c-8-.02-14.56-1.69-21.99-4.82-1.72,3.9-3.59,9.02-3.58,12.95l.05,22.13c.03,13.45,10.83,23.76,24.37,23.76h93.82s-.04-54.06-.04-54.06ZM504.03,495c14.21-.02,23.47-12.16,23.41-24.73l-.09-21.45c-.02-4.15-1.88-9.23-3.97-12.56-6.26,2.64-12.08,4.72-18.76,4.73l-35.26.07c-5.73.01-9.68-3.52-9.68-9.08,0-3.97,3.52-8.48,8.62-8.49l35.19-.09c13.12-.03,23.77-10.35,23.83-23.61l.09-22.5c.02-4.14-1.97-9.3-3.99-12.56-6.33,2.56-12.11,4.58-18.78,4.61l-53.96.24c10.47,6.23,15.57,14.14,13.79,24.69-1.49,8.84-9.39,15.89-18.39,16.68-9.66.84-18.15-5.02-21.29-13.19-3.26-9.68-.32-19.47,8.65-25.11l-.63-3.22h-24.38s-.01,53.97-.01,53.97l19.88.18c5.35.05,8.64,5.14,8.19,9.58-.46,4.48-4.22,7.9-9.2,7.9h-18.87s0,54.09,0,54.09l95.62-.12ZM255.51,442.13c1.97-8.22,3.91-12.15,7.59-17.88-7.59-10.07-9.14-22.38-7.75-35.8-10.87-.36-20.42-3.9-28.29-11.09-6.12,4.65-9.8,11.31-9.76,18.87l.12,23.46c.06,12.59,10.76,22.73,23.17,22.6l14.92-.16ZM544.95,442.37h13.67c13.06.02,24.04-10.14,24.04-23.33v-23.34c0-7.44-3.96-14.08-9.72-18.35-8.06,7.35-17.36,10.61-28.24,11.14,1.37,13.36-.37,25.56-7.69,35.72,3.55,5.99,5.71,11.09,7.93,18.16ZM390.83,495.05l-.02-54.03-94.92.04c-7.08-.36-12.5-1.85-19.53-4.88-1.87,3.59-3.81,9.36-3.79,13.95l.08,21.07c.05,13.52,10.8,23.91,24.37,23.91l93.82-.06ZM255.5,513.73c2.02-8.3,3.94-12.13,7.59-17.96-11.31-13.49-6.9-35.51-8.91-35.58l-3.98-.14c-10.44-.38-19.44-.11-29.06-4.96-1.75,3.25-3.86,8.37-3.86,12.62v22.41c0,13.09,10.22,24.01,23.36,23.82l14.85-.22ZM559.35,513.91c13.16-.07,23.24-10.82,23.3-23.28l.11-22.54c.02-4.15-1.88-9.11-3.97-12.83-14.11,7.57-32.86,3.11-33.49,5.89-1.45,6.36,2.51,19.61-8.3,34.65,3.64,6.1,5.71,10.92,7.74,18.19l14.61-.08ZM390.83,566.65l-.02-53.99-94.92.05c-7.13-.36-12.71-1.91-19.62-4.87-1.75,3.57-3.72,9.25-3.7,13.83l.06,21.06c.04,13.61,10.73,24,24.39,23.99l93.82-.07ZM502.83,566.68c14.83,0,24.72-11.27,24.64-24.99l-.13-21.31c-.03-4.19-1.87-9.23-3.96-12.56-6.24,2.74-11.95,4.83-18.86,4.83l-96.11.02v54.02s94.42-.02,94.42-.02ZM255.52,585.31c1.99-8.34,3.94-12.16,7.59-17.91-7.77-10.02-9.04-22.51-7.84-35.81-12.59.27-23.81.81-34.18-5.03-2.11,4.36-3.9,9.15-3.87,13.82l.17,22.42c.1,12.66,10.7,22.98,23.21,22.77l14.91-.26ZM559.35,585.53c13.19-.07,23.26-10.89,23.32-23.35l.1-22.55c.02-4.14-1.89-9.1-3.96-12.74-14.07,7.53-32.92,3.23-33.5,5.84-1.44,6.56,2.45,19.86-8.3,34.7,3.62,6.03,5.7,10.85,7.74,18.18l14.6-.08ZM502.88,638.33c13.99,0,24.47-10.55,24.47-23.92v-22.51c.01-4.03-2.06-9.27-3.97-12.46-6.16,2.65-11.89,4.88-18.62,4.88l-96.36.04v53.95s94.47.01,94.47.01ZM390.87,682.32l-.09-26.32-33.28-.15c-5.23-.02-8.27-4.85-8.06-9.17.21-4.51,3.67-8,8.79-8.36l32.59-.02v-53.93s-96.37-.07-96.37-.07c-6.25,0-11.5-2.3-17.98-4.7-2.08,3.59-3.92,9.08-3.91,13.64l.06,21c.04,13.79,10.71,24.04,24.32,24.08l20.87.07c5.35.02,8.76,4.86,8.46,9.36-.27,4.2-3.75,8.08-8.62,8.12l-24.05.2-.04,22.61c0,1.28,2.28,3.41,3.51,3.75l93.79-.13ZM276.04,657.31l-.61-7.26c-26.28-14.77-19.08-46.38-21.26-46.53l-3.94-.27c-10.76.49-19.62-.27-29.26-4.84-1.88,3.99-3.67,8.64-3.68,12.38l-.04,22.47c-.02,12.92,10.24,23.87,23.38,23.92l35.4.14ZM526.3,657.36l33.44-.24c12.37-.09,22.69-10.14,22.8-22.23l.21-23.69c.04-4.19-1.84-9.05-3.99-12.7-13.88,7.53-33.1,3.28-33.42,5.82l-.52,4.2c1.52,15.67-4.2,30.63-17.12,39.48l-3.71,3.57c-.95.92.62,5.82,2.31,5.8ZM506.05,682.35l.24-26.4h-97.87s-.03,26.46-.03,26.46l97.66-.07ZM276.13,682.39l-.78-7.41-43.14-.47v7.9s43.91-.01,43.91-.01ZM567.87,682.4v-8.35s-10.39.8-10.39.8l-33.18.1-.31,7.45h43.88Z"/>
  <path d="M438.52,299.92c-23.86,17.24-53.17,17.28-76.83.75-25.74-17.98-41.98-47.45-44.69-79.05-2.16-25.2,6.97-48.47,24.21-66.04,31.78-32.41,83.19-32.94,115.61-1.12,17.91,17.58,27.54,41.48,25.3,67.16-2.7,30.98-18.19,59.95-43.59,78.3ZM425.72,287.31c25.34-16.36,42.43-51.7,38.58-80.67-4.3-32.4-30.97-57.7-64.09-58.03-33.2-.33-60.35,24.48-65.25,56.86-2.4,15.88,1.24,30.78,7.79,45.16,15.39,33.77,49.78,58.1,82.96,36.67Z"/>
  <path d="M494.3,544.25c3.79,3.79,3.34,9.16.82,12.14-3.22,3.81-9.28,4.34-12.98.64l-21.08-21.06c-3.68-3.68-3.56-8.95-.7-12.22,3.45-3.94,9.26-4.17,13.16-.27l20.78,20.77Z"/>
  <path d="M318.41,556.56c-3.86,3.88-9.32,3.77-12.75.56-3.39-3.17-3.89-8.89-.05-12.73l21.12-21.12c3.44-3.44,8.89-3.28,12.02-.48,3.65,3.26,4.16,9.19.41,12.96l-20.74,20.8Z"/>
</svg>