<?xml version="1.0" encoding="UTF-8"?>
<svg id="Layer_1" data-name="Layer 1" xmlns="http://www.w3.org/2000/svg" viewBox="0 0 800 800">
  <path d="M700,523.05v10.31c-3.16,6.84-8.51,10.59-15.55,13.79l-22.74,10.34c3.21,7.18,4.56,13.18,1.55,20.17-2.04,4.73-7.3,9.04-13.67,10.73l-56.15,14.97c2.4,11.77-4.91,23.13-17.76,23.79l-141.55,7.32c-8.47.44-15.17-5.22-16.28-13.34l-1.14-8.37-34.1.39c1.36,9.87-3.79,21.69-14.22,21.17l-142.8-7.1c-6.65-.33-11.95-2.75-15.6-7.52-3.3-4.31-4.37-9.82-3.28-16.31l-57.11-15.32c-6.31-1.69-11.35-6.49-13.12-11.21-2.55-6.78-1.09-12.58,1.88-19.31l-27.44-12.81c-8.29-3.87-13.07-13.37-9.99-22.57l84.13-250.81,65.6-97.85c5.75-8.58,13.26-8.8,22.25-7.17,84.23,15.29,173.69,12.02,258.42-.58,7.18-1.07,13.73,1.32,18.03,7.73l65.64,97.89,84.98,251.69ZM435.26,616.57l140.95-7.43-68.68-254.59c-1.13-5.13,2.35-9.38,6.1-10.45,4.99-1.43,9.47.85,11.25,6.02l63.69,236.04,58.77-15.84-86.26-245.8-25-45.54c-2.42-4.41,1.29-10.01,4.9-11.49,3.02-1.23,9.34-.75,11.28,3.68,7.05,16.08,18.96,29.53,24.92,46.39l78.71,222.78,26.41-12.01-83.43-249.69-43.95-64.81-11.58,5.97c-23.31,12.02-46.51,22.99-72,29.73-5.64,1.49-10.54-.98-11.93-6.86-.87-3.67,1.61-8.8,6.47-10.16,18.58-5.2,36.36-11.42,53.44-20.38l25.42-13.34-10.26-15.25c-88.4,53.88-178.19,50.33-268.29-.39l-9.91,14.27c52.97,31.45,113.54,48.51,175.43,41.51,5.5-.62,9.7,2.98,10.28,8.02.52,4.54-2.68,9.1-8.07,9.72-26.42,3.05-51.94,2.07-78.26-2.53-38.77-7.26-74.88-20.98-109.38-41.88l-45.02,66.36-83.44,249.7,26.48,12.01,78.23-222.97,25.41-46.2c2.86-3.96,7.41-5.18,11.13-3.7,3.92,1.55,7.36,7.16,4.96,11.53l-25,45.54-86.25,245.77,58.76,15.84,22.88-84.75c2.18-5.03,6.9-7.11,12.1-5.07,3.72,1.46,6.48,6.24,4.75,11.31l-27.37,101.53,140.97,7.35,26.35-265.28c.52-5.2,5.37-7.78,9.4-7.58,3.42.17,7.84,2.86,8.3,7.58l26.36,265.33ZM476.05,191.26c-50.66,3.21-95.98,4.36-144.51,1.12,47.12,16.69,99.4,16.95,144.51-1.12ZM415.19,594.98l-15.15-146.09-15.12,146.19,30.26-.1Z"/>
  <path d="M261.15,471.08c-1.54,5.72-5.54,8.27-10.12,7.68-4.65-.6-9.06-5.39-7.59-10.83l31.8-117.89c1.37-5.08,6.52-7.3,11.21-5.95,3.56,1.03,7.44,5.48,6.13,10.36l-31.44,116.63Z"/>
</svg>