<?xml version="1.0" encoding="UTF-8"?>
<svg id="Layer_1" data-name="Layer 1" xmlns="http://www.w3.org/2000/svg" viewBox="0 0 800 800">
  <path d="M734.15,556.14v23.76c-6.78,27.18-29.89,53.39-62.97,53.4l-554.35.23c-26.83.01-45.49-19.48-50.98-42.86v-19.68c6.15-25.17,23.74-39.7,47.56-50.94l275.75-130.05-.03-60.14c0-8.44,7.03-16.36,16.2-16.45,29.42-.28,54.72-18.68,60.26-45.16,5.8-27.73-5.71-56.55-32.52-67.25-20-7.99-40.67-2.72-57.36,9.52-34.65,25.42-16.04,64.25-41.13,62.11-26.18-2.24-15.56-61.59,26.01-89.8,26.25-17.81,58.61-21.62,87.23-8.8,32.38,14.51,48.79,47.22,49.07,82.02.38,47.29-32.12,83.65-80.72,86.67l.98,42.04,286.87,127.01c17.88,7.92,23.96,29.49,30.12,44.37ZM121.24,606.66l544.2-.04c18.92,0,32.65-11.85,36.64-27.65,3.65-14.43-1.07-34.79-17.22-41.99l-275.37-122.72-288.86,136.93c-11.37,5.39-20.68,15.29-23.37,26.64-3.73,15.74,5.75,28.83,23.99,28.83Z"/>
</svg>