<?xml version="1.0" encoding="UTF-8"?>
<svg id="Layer_1" data-name="Layer 1" xmlns="http://www.w3.org/2000/svg" viewBox="0 0 800 800">
  <path d="M100,498.64l.31-81.82c5.18-58.38,27.37-113.69,67.39-157.5,3.17-3.47,8.54-2.09,11.26.43,2.65,2.46,4.69,7.82,1.57,11.33-39.72,44.78-62.92,101.66-62.84,161.86l.08,59.74c.01,10.11,6.64,18.81,13.65,23.47,8.76,5.83,18.85,7.01,28.5,3.64l31.44-11.01.2-62.91c.19-60.54,10.44-125.29,39.14-178.66,13.01-24.18,29.47-44.45,50.64-62.91-25.88,7.63-47.04,21.32-68.05,36.13-3.69,2.6-8.32.1-10.39-2.52-2.34-2.95-3.37-8.6.14-11.35,36.11-28.21,78.41-45.56,123.6-51.82,1.06-20.38,17.46-35.11,36.46-34.84s34.62,15.32,35.54,35.15c128.1,17.72,224.63,129.53,224.99,257.89l.16,55.33,66.45,37.66c9.56,5.42,11.5,18.26,8.46,27.78-2.76,8.63-10.35,17.41-20.92,17.44l-39.9.13c-4.34.01-6.84-5.3-6.82-8.76.02-3.32,2.72-8.53,6.97-8.54l36.36-.13c3.82-.01,7.24-2.4,8.08-5.67.72-2.8-.49-7.1-3.34-8.69l-68.53-38.05c-10.29-5.71-22.03-8.27-33.43-11.15-24.48-6.19-48.55-9.4-74.06-10.52-91.52-4.01-191.16,6.3-279.76,36.78,56.79,22.15,116.26,37.26,177.97,37.29l187.12.08c4.56,0,6.81,5.37,6.81,8.62,0,2.97-2.24,8.83-6.7,8.82l-195.45-.14c-64.94-.05-135.53-22.41-196.15-45.49l-31.83,10.91c-28.86,9.89-59.55-9.06-65.08-37.99ZM380.51,172.63c-2.01-9.99-10.15-15.31-18.57-15.09-8.37.22-15.85,6.63-17.35,15.2l35.92-.11ZM511.28,462.58c32.87,1.79,63.84,7.5,94.87,17.57l-.1-45.94c-.2-94.68-55.4-180.84-141.17-221.06-34.35-16.1-72.22-24.83-110.48-22.36-20.92,1.35-39.58,11.36-56.13,23.34-68.75,49.77-89,151.55-89.18,232.91l-.12,55.52c95.38-33.52,201.88-45.45,302.31-39.97Z"/>
  <path d="M515.26,429.86h-163.2c-5.16,0-9.1-3.68-9.1-8.69v-74.77c-.01-5.22,3.83-9.12,9.21-9.12h162.48c5.09.01,8.5,4.22,8.5,9.02v74.98c0,4.28-2.89,7.63-7.89,8.59ZM505.59,412.27l-.02-57.42h-145.01s-.05,57.43-.05,57.43l145.08-.02Z"/>
</svg>