<?xml version="1.0" encoding="UTF-8"?>
<svg id="Layer_1" data-name="Layer 1" xmlns="http://www.w3.org/2000/svg" viewBox="0 0 800 800">
  <path d="M324.28,742.85l-9.07-8.67-1.45-4.13-15.67-53.48c-1.14-6.08-.49-11.95,1.94-17.94-23.95-8.54-45.54-20.91-63.94-38.46l-65.08-62.04c-3.33-3.17-2.37-9,0-11.64,3.07-3.42,8.71-4.26,12.46-.69l61.33,58.53c19.6,18.7,47.12,35.85,73.28,40.45l39.24-11.63-18.72-.26c-13.38-.19-25.04-10.94-25.37-24.65l-1.23-52.18c-.15-6.5,2.43-12.34,6.57-17.84-21.6-14.35-38.67-33.08-52.84-55.02l-60.42-98.06,44.24,153.08c1.75,5.16-.76,9.58-5.18,11.45-3.85,1.62-9.86-.27-11.33-5.27l-21.65-73.95-80.09-43.9c-11.29-6.19-24.05-3.22-31.84,7-8.39,10.72-7.57,24.56,2.27,33.97l56.33,53.88c4.11,3.94,3.77,9.43.17,12.92-3.7,3.59-8.81,3.23-12.88-.66l-55.05-52.59c-17.27-16.5-18.97-41.54-3.49-59.99,13.17-15.27,34.34-20.06,52.28-10.28l65.23,35.54-35.68-122.54c-8.93-15.06-16.27-25.22-12.84-43.83l-5.36-18.7c-3.95-13.77-2.62-27.25,4.44-39.1l10.53-11c12.6-7.92,27.73-10.28,42.45-4.34.53-17.62,9.87-32.15,25.43-39.28,13.72-6.3,30.2-5.12,44.8,5.24l-1.22-57.65c-.22-10.17,2.08-19.07,6.86-27.53l10.53-11c15.89-10.34,36.34-10.61,52.26,1.36,5.3-19.09,22.13-31.77,41.16-31.99,18.75-.22,35.7,11.61,41.7,30.24,13.05-10.9,30.53-12.88,44.51-6.91,16.54,7.06,26.05,22,26.58,39.2l.72,23.1c14.67-9.89,31.03-10.55,44.5-4.24,15.47,7.24,24.38,21.99,24.74,38.54l1.37,62.9c.11,5.17-4.92,8.45-9.18,8.28-4.41-.18-8.36-3.57-8.49-8.72l-1.61-64.53c-.35-14.06-14.07-23.82-26.87-22.9-13.36.96-24.13,11.78-23.84,25.73l2.75,129.04c.11,5.39-4.47,9.03-9.33,8.87-3.87-.13-8.2-3.46-8.31-8.54l-4.06-186.91c-.32-14.67-11.58-25.51-25.73-25.46-13,.05-25.55,10.64-25.25,24.88l3.55,167.06c.12,5.56-4.56,9.09-8.71,8.98-4.6-.12-8.83-3.46-8.95-8.58l-4.06-186.92c-.32-14.67-11.61-25.53-25.73-25.47-13.47.06-25.58,11.13-25.27,25.75l4.03,187.75c.12,5.46-4.45,9.18-9.43,8.93-3.74-.19-8.09-3.49-8.21-8.56l-3.7-167.07c-.32-14.61-13.9-24.68-27.15-23.72-14.38,1.04-24.1,12.7-23.78,27.39l6.43,294.51c.13,6.05-3.58,9.96-8.86,9.98-5.09.02-8.68-4.16-8.8-9.45l-1.64-75.57-67.67-64.52c-9.33-8.9-23.58-6.71-32.44,1.08-9.91,8.72-11.77,21.12-5.01,32.26l101.55,167.36c14.81,24.4,35.49,46.87,60.84,59.8l18.19-.33c5.61-.1,9.32,3.98,9.31,8.81,0,4.83-3.76,8.74-8.86,8.84l-19.02.4c-5.46.11-8.96,3.88-8.83,9.31l1.2,51.33c.09,4.03,4.07,7.74,8.44,7.65l195.98-4.27c4.6-.1,7.72-4.9,7.63-8.8l-1.13-51.39c-.09-3.89-3.73-8.12-7.96-8.03l-140.54,3.04c-5.45.12-9.14-3.48-9.59-7.9-.49-4.75,3.03-9.63,8.35-9.75l137.1-3c11.08-12.43,18.38-26.46,22.28-42.64,4.74-19.66,6.99-39.25,6.6-59.84l-3.04-158.75c-.1-5.44,5.78-8.93,10.26-8.08,4.13.78,7.3,4.14,7.41,9.33l2.97,141.42c.51,24.37-.47,47.64-4.97,71.39-3.64,19.2-10.86,36.39-22.26,51.91,6.37,5.03,10.68,11.44,10.87,18.9l1.28,52.11c.31,12.43-6.87,22.87-18.93,26.72l9.05,32.25c3.98,14.18-6.05,26.55-19.32,30.41l-92.97,27.02c-5.1,1.48-9.77-1.75-10.99-6.21-1.06-3.88.91-9.19,5.66-10.57l93.7-27.31c5.27-1.54,8.18-5.83,6.57-11.26l-9.89-33.23-94.64,2-107.69,31.34c-4.66,1.63-7.04,5.98-5.71,10.53l14.66,50.19c1.13,3.88,6.29,5.88,9.86,4.85l57.61-16.76c5.08-1.48,9.62,1.78,10.85,5.81,1.3,4.28-.83,9.56-5.51,10.93l-55.09,16.16c-8.24,2.42-15.71,2.28-23.51-1.22ZM226.77,214.44l17.13,58.74,37.13,35.31-2.2-97.23c-.11-4.88-3.09-11.28-4.96-15.58-5.49-12.58-20.07-17.1-31.65-12.73-12.58,4.75-19.37,17.85-15.45,31.49ZM168.54,257.93c14.9-13.23,33.4-15.76,50.35-7.07l-2.74-10.16c-4.12-15.27-19.89-23.41-34.33-17.77-13.69,5.35-20.36,22.04-13.28,35Z"/>
</svg>