<?xml version="1.0" encoding="UTF-8"?>
<svg id="Layer_1" data-name="Layer 1" xmlns="http://www.w3.org/2000/svg" viewBox="0 0 800 800">
  <path d="M287.99,102.28c3.15.68,8.18,1.8,10,5.25,25.06,47.39,99.41,188.71,132.97,209.87,15.83,9.98,32.28,16.75,49.61,23.85l89.04,36.46c6.04,2.47,8.25,8.86,5.81,13.91-2.57,5.33-8.23,6.67-13.78,4.4l-71.95-29.47c-20.11-8.24-39.28-16.15-58.62-25.82-12.59-6.3-22.39-14.89-31.54-25.67-14.22-18.08-26.71-36.14-39-55.94-26.88-43.28-50.87-86.93-75.08-132.97l-114.28,57.07,37.73,61.16,8.93-4.39-24.57-41.78c-3.1-5.27-1.27-11.3,3.57-13.97,4.11-2.26,10.23-1.69,13.13,3.24l25.62,43.45c3.54-1.32,7.27-2.51,9.97-1.97,2.61.52,5.5,3.74,7.07,6.75,22.65,43.62,45.79,85.51,71.49,128.19l38.85-8.67c5.44-1.21,10.33,2.16,11.81,7.49l11.82,82.25c15.29,8.43,30.39,15.25,46.57,21.85l77.17,31.48c27.21,11.1,52.65,23.15,79.44,37.79-4.62-41.21,1.65-80.99,25.03-114.74l-17.48-9.16c-5.38-2.82-5.8-10.42-2.79-14.16,3.74-4.64,8.87-4.99,14.05-2.38,20.31,10.26,39.58,20.83,57.5,34.89,21.08,16.53,33.58,40.32,33.93,67.09-.74,38.67-27.14,65.54-65.92,72.81,10.83,13.92,17.46,29.52,18.87,47.02,2.53,31.5-15.16,60.22-44.79,72.79-20.45,8.67-42.86,9.25-64.59,4.52-22.9-4.99-44.21-12.27-65.97-21.2l-84.79-34.77c-16.92-6.94-33.36-12.31-51.02-16.59-12.54-3.04-24.78-3.84-37.62-4.14-41.21-.97-76.64-18-92.68-57.48-6.44-15.85-8.05-31.82-9.6-48.77-1.57-17.02-8.1-32.91-14.62-48.73-2.62-6.37-.57-12.48,6.04-14.66,5.09-1.68,10.4,1.55,12.66,7.25,6.02,15.18,11.31,29.9,15.1,46.77l95.32-21.5c4.95-1.12,10.79,2.23,11.56,7.55l16.42,113.81c22.38,5.77,43.61,12.79,64.97,21.65l60.81,25.24c24.59,10.03,48.72,18.94,74.92,25.77-7.89-45.88-2.94-90.17,23.06-128.12-25.01-12.75-49-23.6-74.3-33.88l-65.22-26.51c-15.18-6.17-29.45-12.6-44.05-19.88-13.93-6.95-24.7-16.69-34.28-29.06-15.47-19.84-28.56-39.97-42.1-61.55-24.65-40.82-47.25-81.66-69.55-124.08l-114.25,57.11c22.65,35.16,43.65,70.19,62.9,107.16,3.38,5.84,1.61,12.07-3.85,14.82-4.63,2.34-10.43.81-13.32-4.76-20.64-39.72-43.37-77.35-67.9-114.81-4.09-5.69-2.19-12.38,3.79-15.36l85.14-42.59-41.08-66.06c-3.43-5.51-4.59-9.91-.57-15.48l138.54-69.64ZM356.62,376.92l-21.26,5.06c9.49,14.46,17.54,26.58,27.44,39.13l-6.18-44.19ZM308.24,598.31l15.49.74-13.74-96.35-87.09,19.79c1.16,10.17,3.23,19.56,6.41,28.99,13.46,34.49,42.85,46.16,78.94,46.82ZM680.1,500.26c.58-21.11-7.9-40.65-24.5-52.45l-23.35-16.6c-25.19,35.19-28.22,79.75-19.51,120.56,34.51,1.73,64.56-16.53,67.36-51.51ZM633.41,626c.4-21.41-8.2-41.09-25.1-53.05l-22.63-16.03c-25.53,34.89-28.37,80-19.69,120.66,34.68,1.61,64.5-16.68,67.42-51.58Z"/>
  <path d="M189.95,358.58c3.51,5.95,2.19,11.39-2.48,14.56-4.79,3.26-11.04,1.77-14.31-3.79l-26.63-45.33c-2.98-5.07-1.47-10.79,3.03-13.79,4.34-2.89,10.83-1.79,13.96,3.54l26.42,44.81Z"/>
  <path d="M272.43,217.61c3.23,5.48,1.28,10.79-2.56,13.6-4.12,3.01-10.89,2.61-13.93-2.54l-26.93-45.55c-3.19-5.4-2.39-11.22,2.45-14.45,4.35-2.91,10.91-2.09,14.07,3.28l26.89,45.67Z"/>
  <path d="M260.93,327.33c3.54,5.99.87,12.1-3.87,14.45-5.22,2.59-10.51.39-13.67-4.97l-25.88-44.02c-3.1-5.28-2.5-10.68,2.17-14.15,3.78-2.81,10.84-2.82,13.88,2.33l27.36,46.35Z"/>
  <path d="M307.59,201.44c3.38,5.75,1.51,11.3-2.9,14.08-4.49,2.83-10.84,1.85-13.98-3.51l-27.61-47.18c-2.59-4.43.71-10.52,4-12.4,4.76-2.71,10.68-1.64,13.71,3.51l26.78,45.5Z"/>
  <path d="M225.78,343.54c3.01,5.09,1.13,10.68-2.46,13.34-3.89,2.88-10.93,2.98-13.94-2.12l-27.69-46.91c-3.01-5.1-1.15-10.74,3.19-13.54,3.63-2.34,10.47-2.28,13.34,2.58l27.56,46.66Z"/>
</svg>