<?xml version="1.0" encoding="UTF-8"?>
<svg id="Layer_1" data-name="Layer 1" xmlns="http://www.w3.org/2000/svg" viewBox="0 0 800 800">
  <path d="M432.73,700h-58.42s-18.33-1.27-18.33-1.27l-43.91-5.21c-5.13-.61-7.53-6.68-6.44-10.78,1.04-3.92,4.91-7.27,10.02-6.5,84.23,12.63,169.56,7.17,251.15-17.3,8.03-2.41,13.21-8.49,13.21-17.28v-249.26c0-6.72-3.62-12.27-8.88-15.43-19.53-11.73-31.3-32-31.3-55.04v-57.35c.01-5.42,3.85-9.26,8.49-9.29,5.01-.03,9.12,3.66,9.12,9.13l-.03,57.18c0,17.02,8.46,31.62,22.92,40.35,11.08,6.69,17.33,18.21,17.33,31.57l-.06,249.32c0,15.23-10.41,28.21-24.46,32.53-40.49,12.44-81.06,20.16-123.13,23.31l-17.27,1.3Z"/>
  <path d="M369.35,136.32c-16.32-2.84-30.32-6.93-46.37-13.34l-.07,61.82c0,5.23-3.16,8.94-7.92,9.41-4.5.44-9.62-2.85-9.62-8.31l-.04-66.12-32.15,6.19c-7.45,1.44-13.01,8.83-13.01,16.72v179.15c-.02,23.24-11.74,43.36-31.29,55.15-5.26,3.17-8.87,8.65-8.87,15.43v249.28c0,8.03,5.15,14.84,12.47,16.64l49.8,12.22c5.1,1.25,7.39,6.07,6.4,10.5-.96,4.3-5.43,7.78-10.54,6.56l-48.37-11.61c-15.02-3.61-27.32-16.64-27.33-33.13l-.08-249.33c0-13.38,6.23-24.85,17.34-31.58,14.47-8.76,22.88-23.19,22.89-40.43l.09-180.05c0-15.9,12.06-29.79,27.04-32.74l37.53-7.38c5.35-1.05,9.29-1.02,14.28,1.4,53.97,26.1,109,23.76,163.01-2.74l45.7,8.67c15.9,3.02,27.15,17.7,27.16,33.89l.06,86.76c0,5.7-3.76,9.65-9.07,9.48-4.92-.15-8.54-3.88-8.54-9.53v-86.68c-.02-8.22-6.05-15.42-13.9-16.9l-31.28-5.89.08,102.38c.04,53.69-43.62,96.45-96.34,95.55-53.08-.91-96.04-46.01-92.84-99.98.29-4.81,5.89-7.45,9.3-7,5.5.73,8.25,4.75,8.12,10.35-.97,43.04,33.07,78.04,75.32,78.98,41.88.93,78.51-32.38,78.6-75.55l.23-101.83c-15.11,6-29.9,10.29-46.39,13.36l-.14,25.37c.26,9.95-7.49,18.69-17.63,18.64l-27.06-.15c-9.67-.05-16.74-9.29-16.53-18.41l-.03-25.19ZM413.08,162.49l-.06-24.11-26.1.16.03,24,26.13-.05Z"/>
</svg>