<?xml version="1.0" encoding="UTF-8"?>
<svg id="Layer_1" data-name="Layer 1" xmlns="http://www.w3.org/2000/svg" viewBox="0 0 800 800">
  <path d="M302.81,100l2.95,3.47c1.56,1.68,2.17,6.49,1.08,9.1-.89,2.12-4.71,4.94-7.15,4.96l-14.26.08.08,27.27h91.04c1.57-.01,3.72-4.62,3.02-5.6-3.28-2.45-5.52-6.32-4.62-9.97.88-3.61,4.56-6.91,8.54-6.91h33.1c4,0,7.64,3.3,8.55,6.91.9,3.61-1.4,7.55-4.6,9.94-.74.99,1.4,5.61,3.04,5.61h91.01s.01-27.31.01-27.31l-178.85.02c-5.25,0-9.08-1.92-10.36-6.74-1.13-4.24,1.64-8.41,6.17-10.84h194.98c11.32,6.39,2.37,35.01,6.34,52.59,8.36,37.03,15.5,73.12,14.71,111.41l-2.22,107.84c-2.84,82.29.05,163.56,9.67,244.87,9.88,8.73,8.62,22.79-1.26,30.44l-.29,34.94c-.11,13.01-13.04,18.84-24.52,17.78-5.61-.52-10.09-1.22-11.42-7.08-.88-3.89,1.39-9.96,6.88-10.33l11.77-.78-.06-31.02-47.66.1.18,31.16c6.68-.04,11.12,3.41,11.13,9,0,4.9-4.03,8.91-9.49,8.84-11.99-.17-19.56-9.73-19.49-21.16l.19-29.46c-11.07-5.62-13.65-17.58-7.37-27.79l-63.58-235.03-63.67,235.49c6.86,10.06,3.15,21.99-7.18,27.34l-.08,31.71c-.02,8.71-7.4,18.51-16.85,18.58l-45.89.35c-9.7.07-19.69-7.08-19.81-17.62l-.38-35.33c-10.22-7.64-10.66-21.65-1.14-30.13,7.85-67.26,11.32-134.55,10.75-202.6-.04-4.91,5.27-7.85,8.95-7.75,3.46.09,8.34,3.23,8.42,7.9,1.08,67.39-2.8,133.9-10.06,200.94-.76,7.04-3.1,10.64-8.13,17.81l67.19.08c-2.99-6.56-4.16-10.82-2.61-16.56l69.25-256.94c.9-3.35,2.46-5.41,2.46-9.14l-.03-187.13c-1.66-1.25-3.8-.34-5.05,1.09l-12.68,14.61c-5.03,5.8,1.45,18.38,6.75,27.38,2.71,4.6.9,10.33-3.66,12.38-4.15,1.86-9.14.31-11.76-3.91-10.94-17.59-17.06-37.22-.3-52.31l-26.18-.07c-16.66,34.32-39.2,64.03-67.86,89.44-.63,21.56-.61,42.18.06,63.73l1.99,64.3c.17,5.51-5.45,8.93-9.96,8.28-4.48-.64-7.53-4.35-7.66-9.52l-2.56-97.15c-1.16-44.2,4.77-86.26,14.9-128.97,3.98-16.8-5.06-46.37,6.63-52.59h28.97ZM318.35,162.57l-35.01-.14c-5.13,21.2-8.92,41.26-10.91,63.41,18.73-19.13,34.05-39.93,45.91-63.27ZM461.86,162.59l-26.29-.09c16.75,15.24,10.6,34.73-.3,52.33-2.86,4.63-8.34,5.99-12.6,3.51-3.97-2.31-5.44-7.75-2.87-12.01,5.68-9.39,11.88-21.53,6.3-27.98l-12.14-14.02c-1.12-1.3-3.84-2.29-5.07-1.03l-.08,187.13c0,3.74,1.56,5.8,2.46,9.15l69.51,257.95c1.52,5.64-.65,10.55-3.01,15.66l67.37-.17c-5.21-7.25-7.27-10.73-8.09-17.85-9.83-85.4-12.26-170.2-8.92-256.23,1.41-36.24,2.46-71.03,1.5-107.03-28.5-25.25-50.96-54.39-67.79-89.32ZM516.65,162.37l-35.11.22c12.71,24.1,27.53,44.43,46.08,63.22-2.04-22.09-5.76-42.22-10.97-63.44ZM311.61,681.96l-.16-31.31-47.61.1.16,31.42,47.61-.21Z"/>
</svg>