<?xml version="1.0" encoding="UTF-8"?>
<svg id="Layer_1" data-name="Layer 1" xmlns="http://www.w3.org/2000/svg" viewBox="0 0 800 800">
  <path d="M100,371.95v-11.72l50.67-147.34c5.6-16.47,17.99-28.82,33.79-35.45l103.89-43.56c19.16-8.03,39.3-11.04,60.11-11.05l103.09-.05c23.52-.01,45.41,4.54,66.95,13.63l96.31,40.63c16.07,6.78,28.85,19.04,34.55,35.84l49.58,145.96c3.77,12.92-2.61,27.08-15.81,31.44l-79.37,26.27v222.55c0,20.11-15.64,38.12-36.46,38.12H232.77c-21.72,0-36.55-18.75-36.55-39.31l.08-221.45-77.64-25.57c-9.65-3.18-15.78-9.69-18.67-18.95ZM566.86,659.68c11.84,0,19.29-10.66,19.29-20.4l.02-47.53h-279.47c-5.93,0-9.23-4.43-8.96-9.42.23-4.3,3.49-8.21,8.98-8.21l279.45-.02v-242.99c0-5.73,4.12-9.07,8.94-9.06,4.35,0,8.63,3.7,8.63,8.86v67.08s73.33-24.28,73.33-24.28c3.8-1.26,6.37-5.6,4.98-9.68l-49.53-145.89c-4.04-11.88-13.47-20.15-24.62-24.86l-83.12-35.14-31.35-12.06c-.42,18.87-4.92,34.69-14.14,49.63-2.84,4.6-8.11,6.12-12.49,3.39-3.67-2.29-5.66-7.45-2.97-11.8,8.4-13.59,12.74-28.8,11.68-45.3l-148.66-.3c-2.03,29.19,13.17,55.41,36.34,69.17,25.22,14.98,55.65,13.61,79.64-2.19,4.27-2.81,9.23-1.46,11.74,1.69,2.67,3.36,2.93,9.49-1.28,12.39-28.91,19.87-66.66,21.78-97.72,4.07-28.34-16.16-46.87-46.69-46.56-81.31-10.3,3.03-18.76,6.31-27.97,10.2l-88.91,37.55c-11.2,4.73-20.6,12.97-24.64,24.87l-49.54,145.9c-1.38,4.05,1.19,8.45,4.97,9.7l73.32,24.11.03-66.95c0-5.2,4.13-8.81,8.65-8.84,4.76-.03,8.92,3.32,8.92,9.05v242.9s53.28.18,53.28.18c5,.02,8.47,4.96,8.23,9.14-.25,4.48-4.04,8.42-9.02,8.42l-52.51.03.04,47.43c0,10.83,8.24,20.52,19.92,20.52l333.06-.04Z"/>
  <path d="M428.95,531.58l-60.98.1c-14.47.02-27.39-8.04-35.27-18.39-9.02-11.85-12.03-26.52-7.66-40.62,4.66-15.03,13.41-27.27,21.4-40.5,11.24-18.62,29.43-30.42,50.7-30.67,21.53-.25,40.28,10.94,51.7,29.51,15.74,25.58,34.56,50.57,17.16,78.48-7.17,11.5-20.67,22.07-37.06,22.1ZM427.73,513.92c18.4-.06,31.42-18.85,26.51-35.43-4.2-14.2-12.6-25.27-19.99-37.56-8.26-13.74-21.29-22.08-37.03-21.81-15.19.25-27.69,8.83-35.72,22.27-7.32,12.25-15.98,23.47-19.83,37.7-4.73,17.53,9.66,35.1,27.77,35.03l58.28-.2Z"/>
  <path d="M384.93,379.48c-4.09,7.98-11.29,12.89-17.81,14.23-9.12,1.88-17.58-.77-24.16-7.19-14.8-14.44-18.17-38.27-8.6-56.52,4.13-7.88,11.57-13.01,18.6-14.18,9.43-1.58,18,1.69,24.5,8.6,13.55,14.42,16.73,36.99,7.47,55.05ZM364.38,336.16c-1.67-1.86-6.03-3.51-8.06-3.14-1.8.33-4.81,2.59-5.95,4.63-9.9,17.73,2.1,40.61,12.48,39.1,9.08-1.33,15.51-25.05,1.53-40.59Z"/>
  <path d="M503.99,444.56c-7.47,5.22-15.83,6.41-24.32,3.44-6.1-2.13-12.71-8.12-15.52-16.16-6.84-19.56.21-42.52,17.07-54.64,6.92-4.97,15-6.77,23.63-4.3,6.12,1.75,13.09,7.45,16.21,15.34,7.83,19.81.87,43.79-17.06,56.32ZM505.17,395.87c-.82-2.64-3.45-5.62-5.44-6.22-1.76-.53-6.31.27-7.87,1.44-16.3,12.19-15.17,36.65-6.25,40.41,9.61,4.05,25.67-16.06,19.56-35.64Z"/>
  <path d="M332.14,431.06c-2.89,8.94-9.82,15.06-16.22,17.12-9.28,2.99-17.99,1.04-25.27-4.52-16.04-12.24-22.76-34.08-16.52-53.25,2.63-8.08,8.84-14.26,14.98-16.71,8.87-3.53,17.84-2.13,25.35,3.19,16.7,11.84,24.13,34.22,17.68,54.17ZM305.23,391.79c-2.2-1.85-7.1-2.87-9.37-1.89-8.84,3.82-9.91,27.23,5.38,39.81,1.97,1.62,6.39,2.65,8.67,2.01,8.61-2.42,11.37-26.43-4.68-39.93Z"/>
  <path d="M455.29,384.13c-6.57,7.54-14.78,11.01-24,10-7.68-.84-15.4-5.89-19.84-14.01-9.58-17.53-6.75-40.62,6.75-55.33,6.27-6.83,14.13-10.19,23.26-9.23,7.29.77,14.98,5.55,19.48,13.33,9.87,17.08,7.63,40-5.66,55.24ZM446.29,338.63c-1.26-2.66-4.83-5.51-7.1-5.66-2.19-.14-6.3,1.59-7.91,3.45-13.35,15.49-7.47,39.04,2.3,40.36,9.49,1.28,21.4-19.83,12.71-38.15Z"/>
</svg>