<?xml version="1.0" encoding="UTF-8"?>
<svg id="Layer_1" data-name="Layer 1" xmlns="http://www.w3.org/2000/svg" viewBox="0 0 800 800">
  <path d="M425.48,700h-51.25s-4.54-5.02-4.54-5.02c-14.06-68.16-52.12-129.33-103.57-177.81-7.06,21.57-11.32,42.62-15.01,64.4-.78,4.62-5.69,6.44-9.7,5.89-3.25-.45-8.06-3.65-7.47-8.19,2.97-22.81,8.26-44.52,15.04-67.17-24.57-1.87-51.09-6.76-69.21-22.79-12.07-11.19-11.81-27.23-2.04-39.72,9.22-11.78,23.23-16.39,37.34-9.64,21.55,10.52,37.09,32.21,50.43,52.54h268.99c13.41-20.36,28.81-41.97,50.45-52.55,14.36-6.88,28.7-1.93,37.85,10.34,9.04,12.13,9.32,27.49-1.98,38.43-17.98,16.58-45.01,21.49-69.79,23.39,6.73,22.66,12.04,44.36,15.03,67.17.6,4.55-4.24,7.75-7.46,8.19-4.02.55-8.92-1.25-9.71-5.89-3.68-21.76-8.01-42.84-14.96-64.35-25.81,23.92-46.4,50-64.39,78.78-2.69,4.31-8.13,4.81-11.51,2.95-3.52-1.94-6.25-7.17-3.83-11.24,16.94-28.49,37.35-53.63,61.22-77.65h-230.87c48.1,48.3,84.82,105.96,100.37,172.33h30.09c5.08-22.18,12.52-42.42,21.76-62.72,2.26-4.96,6.71-7.46,11.52-5.81,4.59,1.58,7.49,6.91,5.15,11.94-10.38,22.32-18.24,44.95-23.14,69.14l-4.83,5.06ZM245.09,493.85c-10.75-15.39-28.05-38.75-45.58-39.53-6.22,2.9-12.77,9.53-10.93,16.73,1.43,5.6,7.93,9.04,12.54,11.98,13.84,6.15,27.65,9.85,43.98,10.81ZM598.53,483.26c5.03-3.28,11.44-6.4,12.92-12.33,1.67-6.74-5.1-15.66-12.18-16.2-14.22-1.09-34.81,24.78-44.38,39.16,16.06-1.01,29.5-4.55,43.65-10.63Z"/>
  <path d="M546.94,436.37c-39.34,22.41-88.92,10.42-121.23-20.3l-51.39-.02c-11.79,10.77-24.36,18.97-39.05,24.64-4.26,1.64-8.98-1.07-10.61-4.43-1.93-4.01-.77-9.55,3.82-11.6,11.64-5.18,22.41-11.19,32.23-20.03l-47.9-136.94c-28.28,22.92-57.94,49.78-73.4,81.94-10.47,20.98-6.7,45.06,9.9,61.92,12.44,12.64,29.77,18.38,47.6,18.65,5.77.09,9.65,3.67,9.62,9.09-.03,4.84-4.04,8.72-9.63,8.61-21.02-.43-40.8-6.82-56.45-20.52-24.31-21.28-31.27-54.67-17.62-83.87,17.7-37.85,53.87-70.43,86.77-95.68,9.81-29.12,24.44-56.84,48.83-76.3-14.33-3.81-27.44-8.37-38.14-17.13-13.11-10.72-14.71-27.15-4.79-40.38,6.83-9.11,16.25-15.22,28.28-13.85,23.94,5.2,41.59,28.68,56.21,49.25,14.62-20.56,32.25-44.06,56.2-49.24,11.73-1.37,20.92,4.48,27.76,13.16,10.69,13.58,8.92,30.72-4.89,41.59-10.67,8.4-23.37,12.91-37.57,16.61,24.4,19.53,38.95,47.19,48.89,76.24,19.39,14.86,37.53,30.59,54.19,48.59,3.59,3.88,3.6,8.89.32,12.56-2.71,3.04-8.59,4.21-12.17.46-14.19-14.87-28.84-28.6-45.57-41.68l-47.89,136.9c26.95,24.15,65.49,34.05,97.34,17.29,20.37-10.72,32.63-32.42,29.24-55.37-3.52-23.77-21.86-34.76-10.97-42.99,3.84-2.9,9.97-2.2,12.87,2.53,6.9,11.23,12.95,22.85,15.24,36.07,5.18,30.01-9.16,58.89-36.06,74.22ZM383.85,157.37c-11.01-15.43-27.75-38.73-45.82-39.73-5.9,2.83-12.18,8.93-11.05,16,2.18,13.59,38.55,22.89,56.86,23.73ZM473.03,133.51c.99-6.53-5.55-14.97-12.19-15.45-14.46-1.03-34.46,24.25-44.61,39.18,17.2-.44,54.7-9.86,56.8-23.74ZM413.08,177.23c10.95,37.05,17.57,72.78,17.89,109.85.05,5.36-3.51,8.9-8.4,9.41-3.07.32-8.86-2.57-8.99-7.05-.89-31.03-4.54-61.25-13.59-92.21-9.09,30.92-12.65,61.21-13.6,92.18-.15,4.99-6.49,7.68-9.81,6.99-4.53-.93-7.57-4.28-7.54-9.21.28-37.35,7.02-73.52,18-110.18-31.18,9.12-50.61,46.63-60.54,76.31l50.75,145.01h45.52s50.82-145.25,50.82-145.25c-10.61-30.13-29.71-67.34-60.5-75.85Z"/>
</svg>