<?xml version="1.0" encoding="UTF-8"?>
<svg id="Layer_1" data-name="Layer 1" xmlns="http://www.w3.org/2000/svg" viewBox="0 0 800 800">
  <path d="M700,540.57v14.06c-2.95,11.53-10.16,21.22-21.6,26.52-23.59,10.93-47.5,19.69-72.56,26.79-5.26,1.49-9.76-3.08-10.33-7.02-.75-5.15,1.89-8.8,6.89-10.26,23.55-6.88,46.08-15.11,68.3-25.37,8.65-3.99,13.21-12.35,11.18-21.96l-40.63-192.69c-20.41-5.07-39.01-12.57-56.53-24.11-27.82-18.31-48.53-44.44-59.93-75.2-27.18,3.59-52.95,6.34-80.04,8.53l-.03,95.49c.4,5.87-3.52,10.27-8.81,10.19-4.6-.08-8.82-3.47-8.76-9.03v-95.5c-18.42.65-35.84.63-54.27.05v95.45c.07,5.45-4.13,8.85-8.74,9.01-4.68.16-8.81-3.59-8.81-8.99l-.03-96.7-23.19-2.01c-5.03-.44-8.18-5.45-7.77-9.4.54-5.2,4.64-8.42,10-7.99l20.97,1.66-.05-16.82c-.02-5.69,3.5-9.64,9.04-9.66,4.06-.02,8.5,3.53,8.53,8.56l.11,19.2c18.46.75,35.7.76,54.15-.01l.12-19.16c.04-5.54,5.01-9.08,9.65-8.54,5.02.58,7.75,4.3,7.84,9.63l.31,16.9c49.25-4.01,95.58-10.47,144.38-18.21l-10.37-29.92c-2.03-5.85-7.3-9.32-13.82-8.53l-94.87,11.51c-47.36,4.39-93.41,5.75-140.62.02l-94.89-11.52c-6.51-.79-11.8,2.66-13.82,8.51l-10.38,30.03,82.64,11.91c5.31.76,8.28,5.05,7.77,9.64-.54,4.84-4.66,8.35-9.98,7.71l-15.92-1.92c-19.43,52.3-62.86,86.45-116.35,99.19l-40.81,193.72c-1.85,8.76,2.94,16.89,10.58,20.49,65.62,30.9,139.29,44.8,211.56,49.68,11.38.77,20.48-6.13,21.53-17.81,4.38-48.68,11.99-96.26,23.34-143.71,1.81-7.55,8.66-11.65,15.48-11.46,6.52.19,12.84,4.27,14.57,11.52,11.32,47.45,18.96,94.99,23.33,143.65,1.05,11.67,10.16,18.59,21.52,17.81,34.61-2.36,68.21-6.57,102.03-13.76,5.42-1.15,9.7,1.71,10.88,6.61,1.01,4.2-1.27,9.36-6.6,10.48-35.2,7.44-70.27,12.04-106.3,14.24-20.96,1.28-37.23-13.43-39.12-34.03-4.02-43.81-10.13-86.43-20.75-130.45-10.92,44.35-16.67,87.35-21,131.52-1.98,20.16-18.65,34.18-38.87,32.94-73.68-4.53-153.57-19.75-220.04-51.8-15.22-7.34-22.74-23.83-19.28-40.22l37.72-178.88c7.26-34.43,18.87-66.4,34.84-97.53,12.66-24.69,22.45-49.41,31.08-75.64,4.57-13.89,18.26-21.59,32.74-19.85l97.22,11.68c44.61,4.03,87.94,5.27,132.39-.09l96.01-11.59c14.48-1.75,28.14,5.97,32.72,19.88,8.64,26.22,18.45,50.91,31.08,75.63,15.77,30.85,27.43,62.47,34.63,96.6l38.75,180.36ZM165.28,330.33c43.16-12.13,76.02-41.96,91.92-81.4l-53.57-8.16-11.69,25.06c-10.46,20.63-20.29,41.24-26.66,64.5ZM634.88,330.27c-6.3-21.18-13.76-38.32-22.55-55.87l-16.09-33.64-53.39,8.2c15.94,39.89,49.82,69.82,92.03,81.31Z"/>
</svg>