<?xml version="1.0" encoding="UTF-8"?>
<svg id="Layer_1" data-name="Layer 1" xmlns="http://www.w3.org/2000/svg" viewBox="0 0 800 800">
  <defs>
    <style>
      .cls-1 {
        fill: #231f20;
      }
    </style>
  </defs>
  <path d="M100,304.94l.09-28c4.91-35.98,27.6-69.61,39.67-102.76,4.8-13.17,16.72-22.34,31.84-16.76,33.32,12.3,61.71,35.1,83.5,63.57,14.15,18.49,25.78,37.5,35.05,58.83l30.57,70.31c11.7,26.9,24.26,52.22,40.9,76.33,45.03,65.26,90.69,65.4,165.94,60.45,13.04-.86,25.32,1.67,35.42,10.62l119.08,105.63,15.03,15.74c3.32,3.48,3.63,9.26,1.79,13.94-4.05,10.3-24.93,11.24-40.06,11.25l-126.48.08c-5.5,0-9.03-4.16-8.98-8.86.05-4.61,3.5-8.75,8.99-8.75h118.27c10.08,0,19.23-.3,28.9-1.94l-127.13-113.03c-2.73-2.43-6.28-4.24-9.52-5.33-79.16,39.91-139.23,68.58-204.99-6.84-15.89-18.22-30.66-36.67-43.07-57.73l-62.94-106.87c-2.69-4.56.34-10.04,4.35-11.85s8.83-.5,11.54,4.1l61.62,104.71c10.58,17.97,23,33.6,36.04,49.6,9.46,11.61,19.82,21.56,31.55,30.56,39.31,30.14,82.65,14.69,125.28-5.61-76.96,2.77-117.64-12.42-159.96-76.97-14.97-22.83-26.57-46.42-37.48-71.51l-30.57-70.31c-9.15-21.04-20.81-39.74-34.84-57.83-18.99-24.49-43.05-43.09-71.55-55.18-2.74-1.16-6.1-.94-9.12.66l68.1,116.2c2.68,4.57.83,9.55-3.06,12-3.67,2.31-9.31,1.74-11.98-2.82l-61.58-104.97c-16.84,37.87-39.68,72.75-31.58,113.77,1.77,8.38,6.26,14.77,12.28,20.67l47.49,46.43c49.18,48.09,91.28,101.76,125.59,161.48l39.38,73.23c3.98,7.41,10.15,12.26,18.57,13.41,8.55,1.16,17.15,1.96,26.14,1.97l101.9.11c5.52,0,9.07,3.91,9.12,8.67.05,4.75-3.56,8.92-9.12,8.91l-103.07-.12c-24.91-.03-46.69-2-58.54-23.8l-44.17-81.28c-20.34-34.85-43.33-66.94-69.35-97.63-8.76,27.86-18.26,59.72-18.31,86.61l-.16,101.83c-.01,8.29-6.73,14.28-14.73,14.29l-37.67.05c-8.28.01-15.34-5.24-15.42-14.38-.83-101.39-8.56-201.96-24.22-302.05l-4.35-22.81ZM187.26,473.14l13.8-47.65c-17.15-18.7-34.58-36.44-52.9-54l-22.22-21.13c10.9,77.05,17.23,152.15,19.33,228.94l33.54-.04.24-53.67c.08-17.72,3.15-34.95,8.21-52.44ZM178.87,626.5v-29.62s-33.09-.02-33.09-.02l.28,29.72,32.8-.08Z"/>
  <g>
    <path d="M529.17,259.24l47.66-17.57,44.32,25.19,28.48-10.71c-.65-5.74-1.55-11.36-2.69-16.83l-24.66,9.5-43.26-25.25c-16.64,5.42-32.02,11.47-47.91,17.7l-42.59-24.41c-5.12.6-11.67,2.57-19.82,4.94-2.09,6.5-3.81,13.28-5.16,20.28l21.13-8.17,44.5,25.33Z"/>
    <path d="M617.92,311.64l-44.75-25.19-47.7,17.46-43.49-24.96-21.77,7.29v18.14l20.07-7.34,43.56,25.13,47.95-17.6,43.47,25.03,35.58-12.71v-18.04l-32.91,12.78Z"/>
    <path d="M564.4,173.04c-.32,2.57,3.22,7.96,5.81,8.09,2.58.13,6.9-1.28,10.85-2.83l39.56,22.68c3.96,2.27,8.61,1.96,13.49.23-3.08-6.35-13.86-16.48-17.64-21.99l-31.1-17.65c-10.33.04-20.07,4.29-20.98,11.48Z"/>
    <path d="M553.53,188.13c1.99-1.57,2.46-7.76,1.03-9.78-1.42-2.02-7.26-3.93-9.67-3.21l-9.62,2.89-28.45-16.72c-4.33,3.68-8.44,7.82-12.29,12.39l37.78,21.46c5.63.94,16.27-3.14,21.21-7.03Z"/>
    <path d="M604.27,369.94c-2.64-1.41-8.16-1.19-10.5.46-2.34,1.64-3.19,10.51-.51,12.02l17.86,10.04,38.77-14.23-5.81,21.78h6.74v-40.03l-38.36,14.36-8.19-4.39Z"/>
    <path d="M475.13,360.02l44.12,25.11,48.22-17.89c4.08,2.78,8.73,4.62,11.42,3.9,2.68-.71,6.44-8.09,4.94-10.5-3.03-4.86-11.93-10.36-17.28-10.95l-45.83,17.23-43.84-24.98-16.68,5.27c0,25.88-3.68,12.74-3.68,12.74h3.68l2.37,4.91,12.56-4.86Z"/>
  </g>
  <path class="cls-1" d="M644.09,407.64c-.14,0-.28,0-.43-.01-4.21-.23-7.44-3.83-7.21-8.04l6.73-122.34c-.08-42.25-23.24-74.67-37.05-90.24-19.41-21.88-44.22-37.16-60.33-37.16-14.84,0-34.35,14.31-49.71,36.44-18.2,26.23-28.23,58.57-28.25,91.05l3.56,122.44c.12,4.21-3.2,7.73-7.41,7.85-4.22.12-7.73-3.2-7.85-7.41l-3.57-122.55c0-.07,0-.15,0-.22,0-35.61,11-71.07,30.98-99.87,18.68-26.93,41.96-43.01,62.26-43.01s48.97,16.6,71.76,42.3c15.28,17.22,40.9,53.19,40.9,100.58,0,.14,0,.28-.01.42l-6.74,122.55c-.22,4.07-3.59,7.22-7.62,7.22Z"/>
</svg>