<?xml version="1.0" encoding="UTF-8"?>
<svg id="Layer_1" data-name="Layer 1" xmlns="http://www.w3.org/2000/svg" viewBox="0 0 800 800">
  <path d="M457.4,100l41.27,33.62,14.93,2.86c13.52,2.59,24.95,9.41,34.41,19.52l109.15,116.62c1.77,1.89,2.92,5.15,2.92,7.88v164.94c-.01,6.39-4.58,10.46-10.57,10.46h-67.89c-6.05,0-10.44-4.18-10.45-10.4v-120.79s-32.7-34.15-32.7-34.15l13.03,380.89c.3,6.65-3.59,9.77-9.42,11.33-36.39,9.71-73.13,14.19-110.95,16.35-54.56,3.12-120.43-2.28-173.19-16.35-5.88-1.57-9.65-4.66-9.42-11.32l13.02-380.87-32.71,34.13.02,120.78c-.01,6.23-4.4,10.4-10.45,10.4h-67.89c-5.99,0-10.56-4.06-10.56-10.46v-164.94c-.01-2.72,1.14-5.99,2.91-7.88l109.15-116.63c9.46-10.11,20.89-16.94,34.41-19.53l14.93-2.85,41.65-33.62h114.43ZM439.69,119.11l-79.43.06,39.74,114.56,39.7-114.63ZM348.89,193.49l-16.32,33.44,57.68,84.21.22-45.93-48.29-139.62-25.54,20.34,11.18,32.56,12.68.15c3.14.04,6.92,2.1,8.43,4.68,1.54,2.63,1.6,6.81-.03,10.16ZM450.73,192.65c-1.56-3.21-.87-7.73.82-10.05,1.52-2.09,5.24-3.91,7.93-3.94l12.71-.15,11.18-32.57-25.56-20.31-48.26,139.6.11,46.08,57.76-84.35-16.69-34.3ZM524.43,441.07l-5.99-174.61c-.17-4.81,2.28-8.65,5.87-10.04,3.51-1.36,8.13-.33,10.78,2.45l35.75,37.53.48-17.11c.16-5.6,4.72-9.43,9.61-9.27,5.18.16,9.08,3.92,9.43,9.81v156.87s50.52-.04,50.52-.04l-.05-153.54-109.84-117.11c-7.84-8.35-19.4-10.73-29.92-12.3l-13.5,38.6c-1.53,4.36-6.59,5.63-12.63,5.82l12.19,25.7c1.08,3.2.83,7.08-1.31,10.21l-76.25,111.42-.03,304.9c0,6.98-3.93,11.24-10.12,10.95-5.54-.26-8.97-4.39-8.97-10.96v-304.91s-76.27-111.4-76.27-111.4c-2.58-3.78-2.52-8.13-.58-11.84l11.59-24.1c-5.73.18-11.32-1.43-13.11-6.6l-13.13-37.81c-10.6,1.64-22.08,3.91-29.96,12.32l-109.9,117.3.06,153.36,50.48.02v-156.87c.34-5.89,4.25-9.64,9.43-9.81,4.89-.16,9.45,3.68,9.61,9.27l.48,17.1,35.74-37.52c2.95-3.09,7.87-3.98,11.62-2.08,3.06,1.55,5.19,5.23,5.04,9.67l-6.03,174.74,41.18.08c5.76.01,9.81,4.47,9.87,10.13l-.1,65.62c-.03,19.76-15.91,34.96-35.32,35.09l-19.38.17-3.94,113.29c85.58,20.09,178.76,20.09,264.34,0l-3.94-113.29-19.38-.17c-19.4-.1-35.29-15.34-35.32-35.09l-.1-65.61c.06-5.75,4.1-10.05,9.87-10.09l41.14-.27ZM307.45,516.6v-56.16s-32.55.06-32.55.06l-2.49,72.33,19.85.02c8.66,0,15.09-7.39,15.2-16.26ZM527.6,532.55l-2.49-72.06-32.56-.05.02,56.63c.31,8.42,6.48,15.94,15.21,15.8l19.83-.33Z"/>
  <path d="M359.45,387.65c5.63-.94,10.4,2.92,11.53,7.87,1.25,5.48-2.51,10.72-7.48,11.89-5.82,1.38-11.09-2.37-12.23-7.37-1.33-5.84,2.16-11.38,8.18-12.38Z"/>
  <path d="M356.9,487.6c5.87-2.64,11.56.32,13.68,5.61,1.82,4.54-.46,10.36-4.87,12.46-5.4,2.57-11.14.52-13.65-4.49-2.27-4.53-.92-10.99,4.85-13.58Z"/>
  <path d="M360.02,585.81c5.91-.72,10.45,3.94,11.12,8.77.78,5.6-3.63,10.5-8.37,11.19-5.89.86-10.46-2.91-11.54-7.73-1.26-5.68,2.36-11.45,8.78-12.23Z"/>
</svg>