<?xml version="1.0" encoding="UTF-8"?>
<svg id="Layer_1" data-name="Layer 1" xmlns="http://www.w3.org/2000/svg" viewBox="0 0 800 800">
  <path d="M455.04,100c6.7,2.61,13.43,8.25,13.56,16.49l.34,21.06,106.7,48c14.01,6.3,25.38,15.45,34.29,28,9.87,13.92,18.79,27.91,27.35,42.82,14.56,25.38,20.82,64.79,24.45,95.2l14.59,122.19c3.03,25.38,1.62,49.73,1.07,74.95-.13,5.83-4.72,9.78-9.58,9.25-5.19-.57-8.5-4.74-8.17-10.32,2.05-34.84.17-68.42-4.14-103.06l-11.78-94.8-8.08-48.09c-3.69-13.77-7.36-27.13-15.06-39.14l-25.81-40.24c-17.54,41.63-21.72,88.55-17.12,132.18l11.59,110.02c2.35,22.28,3.34,43.19,3.49,65.67l-2.5,111.58h65.76s2.03-50.74,2.03-50.74c-.24-5.63,3.85-9.43,8.57-9.52,5.22-.1,9.23,3.8,9.01,9.46l-2.15,55.68c-.12,3.11-2.76,6.95-4.83,9.34l-1.6,29.96c-.43,8.07-6.86,14.04-15.38,14.04H148.26c-9.28,0-15.19-6.62-15.6-15.23l-1.38-28.71c-2.5-2.87-4.77-6.44-4.92-10.26l-4.16-106.32c-1.3-33.11.59-64.49,4.68-97.33l12.48-100c2.09-16.74,5.03-32.44,8.82-48.75,3.93-16.89,10.74-32.11,19.96-46.65,16.19-25.53,27.88-48.51,56.14-61.2l106.72-47.94.47-22.11c.17-7.81,7.33-12.98,13.79-15.5h109.78ZM416.67,166.27l18.31-10.26c5.27-2.8,10.45-4.92,16.23-6.85l.02-31.58h-102.51s.1,31.79.1,31.79l13.19,4.94,21.55,12.03c10.1-7.88,22.64-7.53,33.11-.07ZM437.16,639.98c11.89,15.67,24.35,28.73,38.13,42.45h98.68s-35.29-163.07-35.29-163.07c-2.14-9.89-2.73-19.11-1.17-29.12l21.74-139.34c1.77-11.36-.24-22.74-.27-34.14-.09-37.56,6.59-73.19,22.31-107.85-7-4.38-13.44-7.61-20.56-10.78l-24.86-11.08c-.29,8.88-2.31,14.87-6.15,21.71-2.42,4.32-1.32,10.72.15,15.4,3.75,10.87,3,21.26-3.05,31.05l-117.83,190.59-.3,46.53c-.04,5.68-5.39,9.09-10.23,8.26-4.97-.85-7.28-5.1-7.3-10.36l-.15-44.41-80.67-130.51c-2.76-4.46.82-10.05,4.29-11.59,4.22-1.88,8.86-.62,11.56,3.78l45.95,73.46c-11.45-46.7-22.81-90.45-30.5-137.17-14.63-1.67-25.76-11.54-29.32-25.64-4.69-18.58-3.93-37.45,4.67-54.81l-25.24,11.22c-9.67,4.3-12.36,15.4-6.91,24.09,11.84,18.89-4.11,34.92,2.39,45.59l17.35,28.48c2.63,4.32-.32,10.14-4.17,11.77-3.78,1.6-8.78.56-11.21-3.36l-16.15-26.09c-5.85-9.44-6.82-20.1-2.93-30.84,1.44-4.75,2.53-11.07.11-15.45-3.78-6.83-5.81-12.85-6.15-21.69l-32.97,14.72c-4.17,2.26-8.02,4.48-12.29,7.26,19.47,44.46,25.93,91.24,21.2,139.49l22.5,141.72c1.55,9.76.71,18.48-1.01,28.16l-35.6,164.02h134.06c19.3-19.02,33.64-41.33,43.15-66.52-7.5-17.77-10.58-35.39-11.78-54.17l-.23-29.98c1.35-5.21,5.38-8.21,10.48-7.41,4.01.63,7.11,4.57,7.19,9.32l.57,31.63c1.61,27.52,11.26,52.25,27.8,74.7ZM510.61,247.87c4.79-6.36,4.57-12.69,2.32-19.25-3.88-10.82-2.94-21.82,2.89-31.56,4.94-8.25,1.03-18.71-7.56-22.52l-25.25-11.21c8.6,17.61,9.48,36.93,4.34,55.7-3.64,13.3-14.3,23.11-28.93,24.57-7.69,46.14-19.15,90.3-30.48,137.43l82.66-133.17ZM374.44,211.69l-.09-30.33-23.17-12.65c-8.37-4.57-18.53.09-21.23,8.97-3.99,13.14-4.16,26.72.82,39.64,2.97,7.71,12.88,11.16,20.2,7.17l23.47-12.79ZM449.38,224.58c8.44,4.54,17.98-.78,20.55-8.9,5.3-16.77,4.14-43.03-8.74-47.69-4.45-1.61-9.17-1.1-13.15,1.07l-22.29,12.16-.15,30.57,23.79,12.79ZM408.19,206.14l-.04-19.38c-.01-5.29-3.97-8.87-8.78-8.59-3.94.23-7.61,3.82-7.6,8.55l.04,19.88c0,5.12,4.23,8.68,8.72,8.4,3.91-.24,7.67-3.72,7.66-8.86ZM143.87,641.82l65.72-.07-2.6-118.63c.53-26.48,2.86-51.15,5.56-77.46l10.33-100.67c4.31-42-1.13-82.81-17.78-122.66l-21.94,33.58c-8.48,12.98-13.93,26.79-18.01,41.85-3.57,16.74-6.64,32.71-8.76,49.84l-12.42,100.27c-3.68,29.68-5.45,58.08-4.26,88.13l4.16,105.83ZM441.17,240.23l-24.9-13.35c-9.94,7.68-22.63,7.63-32.61-.01l-24.85,13.4c10.31,57.63,23.71,114.06,41.17,172.04,17.45-57.97,30.84-114.45,41.19-172.08ZM227,593.69l17.26-78.85c1.74-7.93,1.87-16.06.55-23.97l-11.58-69.17-5.44,47.59c-3.13,27.42-3.41,54.22-2.66,81.83.39,14.5.26,27.81,1.86,42.57ZM572.98,593.33c2.03-26.78,1.77-50.74,2.17-76.14-.73-20.21-1.95-39.56-4.3-59.49l-4.23-35.99-11.61,70.13c-1.19,7.19-1.08,14.8.51,22.02l17.46,79.48ZM450.46,682.37c-14.14-14.88-26.21-28.85-36.88-45.87-7.73,16.68-17.48,31.51-29.35,45.94l66.23-.06ZM205.78,682.4l-1.24-23.08-55.43.06,1.06,23.06,55.61-.04ZM649.78,682.41l.8-23.06-55.36.03-1.1,23.06,55.66-.03Z"/>
  <path d="M531.23,400.04l-65.61-.08c-5.84,0-8.68-5.47-8.38-9.79.44-6.25,6.48-7.83,12.03-7.65l31.27-36.54c4.95-5.79,11.32-8.43,18.63-5.98,6.13,2.06,11.17,7.86,11.16,15.4l-.03,27.01c5.65-.51,10.02,2.88,10.54,7.64.63,5.8-3.5,9.99-9.61,9.98ZM512.92,382.49l-.47-23.12-19.63,22.89,20.11.23Z"/>
  <path d="M399.19,247.13c4.76-.49,8.94,3.24,9.58,7.35.79,5.06-2.75,9.47-7.44,10.25-4.88.81-9.41-2.77-10.16-7.5-.76-4.8,2.62-9.55,8.02-10.1Z"/>
  <path d="M396.66,290.7c5.21-2.13,10.11.85,11.73,5.37,1.47,4.11-.82,9.38-4.74,10.89-4.86,1.87-9.79.16-11.88-4.72-1.6-3.72-.38-9.38,4.9-11.54Z"/>
  <path d="M396.83,333.57c4.98-1.72,9.97.52,11.65,5.65,1.21,3.69-.7,9.02-5,10.76-4.4,1.78-9.37.15-11.58-4.53-1.92-4.06-.35-10.06,4.92-11.88Z"/>
</svg>