<?xml version="1.0" encoding="UTF-8"?>
<svg id="Layer_1" data-name="Layer 1" xmlns="http://www.w3.org/2000/svg" viewBox="0 0 800 800">
  <path d="M345.51,100.01l3.37,3.81c10.93,18.33,18.29,39.25,20.92,60.02,10.81,3.87,20.08,7.74,30.04,12.41l30.61-12.52c2.71-21.95,11.16-46.74,24.41-63.71h6.64c20.53,16.23,29.99,38.77,32.62,65.23,9.99,6.47,16.5,15.9,19.6,27.33l-8.89,36.19c-2.13,4.67-7.07,6.82-11.57,5.17-12.92-4.73,1.12-25.12.91-40.46-.13-9.34-12.76-15.96-20.87-17.05-22.73-3.04-48.26,7.32-68.59,17.91-2.83,1.47-6.56,1.42-9.37-.06-21.14-11.13-46.95-21.11-70.24-17.74-9.34,2.46-16.99,7.76-20.01,17.25,8.07,32.29,15.74,63.91,19.77,96.97h150.44s4.99-32.48,4.99-32.48c.82-5.34,6.55-7.67,10.72-6.71,13.34,3.09,2.11,22.23,2.02,45.19l-.16,42.37c47.81,82.62,106.14,167.83,173.14,235.73,4.4,4.46,3.77,10.68-1.2,14.42-18.47,13.9-37.65,25.74-58.52,36.81,2.57,5.35,1.81,10.63-3.39,13.95-54.42,34.82-116.75,54.84-181.41,59.26-48.45,3.31-99.02-5.22-144.83-20.81-5.65-1.92-8.6-6.78-6.42-12.23,2.04-5.1,7.13-6.6,12.82-4.63,103.94,36.01,208.02,23.13,302.82-31.98-52.5-70.53-93.91-148.2-129.93-227.48-1.77-5.55.4-10.34,5.52-12.09,3.87-1.33,8.78.2,10.91,4.95,22.93,51.2,48.42,100.36,77.26,148.58,14.35,23.57,28.77,45.55,45.3,68.23,17.94-9.44,34.09-19.15,51.51-31.14-25.53-27.13-49.26-55.1-72.05-85.27-34.86-46.35-66.42-94.13-95.74-145.25h-157.26c-29.45,51.47-61.2,99.4-96.23,146.01-22.45,29.51-45.42,57-71.54,84.4,16.56,11.56,33.21,21.55,51.56,31.23,18.29-25.01,34.31-49.81,50.06-76.19,26.9-45.77,50.81-92.18,72.47-140.56,2.3-5.14,7.73-6.77,12.27-4.38,4.31,2.27,6.23,7.09,3.85,12.34-35.45,78.17-77.95,157.32-129.56,226.52,11.49,6.92,23.13,12.9,35.14,18.77,4.56,2.23,5.84,7.52,4.03,11.73-1.44,3.35-6.64,6.45-10.87,4.57-16-7.13-30.89-15.37-45.5-24.77-4.87-3.13-5.9-8.45-3.22-13.83-20.68-10.99-39.58-22.59-58.01-36.29-2.47-1.83-4.72-5.24-4.76-7.68-.05-2.68,1.43-5.61,3.55-7.75,66.28-66.93,125.33-153.45,172.64-235.17l-.16-42.36c-.04-11.53-2.11-22.81-4.64-34.11l-15.71-69.99c1.69-11.91,10.5-21.09,19.39-27.78,2.12-25.87,12.61-49.45,32.65-64.91h6.74ZM351.07,158.52c-2.86-12.8-6.45-23.29-11.58-34.3-7.89,10.05-12.46,22.05-14.48,33.95l26.06.36ZM475.15,157.99c-2.49-12.79-6.93-24.08-14.49-33.76-5.39,11.39-9.1,22.62-11.65,34.64l26.14-.88ZM474.89,332.33l-.13-23.74-149.63.04.13,23.72,149.62-.02Z"/>
</svg>