<?xml version="1.0" encoding="UTF-8"?>
<svg id="Layer_1" data-name="Layer 1" xmlns="http://www.w3.org/2000/svg" viewBox="0 0 800 800">
  <path d="M684.05,164.73c-15.25-33.52-40.63-59.34-74.62-72.5-37.45-14.5-75.89-1.59-98.19,31.85-37.42,56.11-37.72,123.89-23.26,189.38,4.34,19.66,9.74,38.56,15.51,57.48,2.47,2.05,4.91,4.14,7.33,6.25,4.9,3.05,51.53,25.45,51.53,25.45l44.47-20.58,42.97,20.38,23.49-9.73-8.62,27.79c4.66,2.75,9.29,5.56,13.85,8.46,28.54-84.71,41.85-183.51,5.54-264.23ZM519.1,140.76l41.45,19.24c5.44.46,15.27-4.27,19.68-8.37,1.77-1.65,1.74-7.59.22-9.41-1.52-1.81-7.24-3.18-9.47-2.3l-8.95,3.51-33.31-16.07c16.48-21.03,42.28-30.07,68.04-22.46,21.9,6.47,42.2,19.32,55.37,39.1l-43.61-20.22c-9.85.85-18.81,5.66-19.11,12.59-.11,2.47,3.7,7.34,6.17,7.26s6.48-1.76,10.13-3.55l39.51,18.53c5.07,2.38,10.88.63,16.71-2.85,5.75,11.51,10.79,22.45,16.06,35.12l-27.44,13.25-43.25-20.69c-15.44,6.48-29.65,13.45-44.31,20.64l-42.54-19.94c-5.15,1.03-11.7,3.68-20.01,6.83,3.12-16.84,9.63-33.5,18.64-50.21ZM496.17,211.34l21.96-10.63,44.44,20.67,44.08-20.49,44.25,20.55,31.6-14.94,6.8,39.44-37.96,18.46-44.66-20.51-44.13,20.4-43.44-20.4-23.98,10.29c-.05-15.28.26-28.36,1.06-42.83ZM633.37,333.83l17.82,8.18,35.87-16.61-8.42,46.58-27.39,13.24-44.48-20.5-44.35,20.36-44.69-20.99-10.41-36.74,11.6-5.62,44.05,20.49,44.59-20.84c4.11,2.33,8.69,3.72,11.2,2.83,2.5-.89,5.51-8.22,3.89-10.41-3.27-4.4-12.19-8.95-17.34-9.09l-42.37,20.03-43.77-20.38-15.97,6.53-6.53-39.37,22.21-10.26,43.52,20.55,44.36-20.55,43.42,20.47,39.92-18.07c.04,14.26-.41,28.22-1.29,43.15l-37.76,17.79-8.16-3.55c-2.63-1.14-7.87-.49-9.98,1.26-2.1,1.75-2.22,10.27.46,11.5Z"/>
  <g>
    <path d="M102.77,568.22v-6.78s20.11-47.44,20.11-47.44c-6.92-20.88.59-48.83,8.03-70.75,7.76-22.85,16.44-44.47,26.97-66.21,10.75-22.19,32.5-36.56,56.76-38.73,26.4-2.35,29.86,31.57,51.18,55.17,17.87,19.78,42.04,9.87,63.86-2.72-13.97-15.4-13.57-34.46-4.46-51.64,6.24-11.75,15.77-19.27,30.34-16.91,11.54,1.87,22.86,6.86,33.19,13.56l66.9,43.44c4.04-5.22,9.45-7.81,14.27-4.86,5.22,3.2,5.86,9.59,1.76,14.46l12.84,7.41,4.48-4.33c3.7-3.57,9.48-2.55,12.38.52,3.53,3.74,3.23,8.97-.48,13.1l12.94,7.22,3.27-3.25c4.02-4,9.23-4.44,13.19-1.08,3.99,3.4,3.86,9.09.58,13.35l13.87,6.91c3.54-6.1,9.06-7.24,13.58-4.78,5.05,2.75,4.94,7.99,3.35,13.37,11.48,4.47,22.95,12.15,34.61,14.66,26.81,2.21,75.06,3.59,93.12,19.68,20.03,17.85,24.09,52,6.39,72.62-7.52,48.95-70.98,67.23-116.1,67.22l-333.08-.08c-45.33-.01-103.12-11.96-139.4-39.04l-4.44-4.11ZM344.72,380.4c12.91-10.25,23.05-19.12,33.87-29.94-8.22-4.86-14.93-7.69-23.1-10.55l-9.78.61c-4.77,6.91-7.87,13.47-9.55,21.57.79,7.16,3.08,13.47,8.55,18.3ZM256.56,409.92c-16.53-15.75-22.8-35.79-36.47-53.69-20.33-.09-38.51,11.69-46.89,30.2l-4.47,9.87,50.75,16.64c12.25,4.02,25.04,3.32,37.08-3.02ZM150.76,440.79c-6.88,20.78-15.42,45.15-11.71,63.92l215.25,28.75c-14.88-24.62-54.65-42.57-81.43-53.58-4.92-2.02-7.54-6.16-6.64-10.7s5.98-8.85,11.14-6.84c15.39,5.99,29.85,13.03,44.5,20.62l95.62-106.42-23.86-15.76c-16.35,16.64-32.7,30.96-51.75,43.28-20.32,13.14-44.44,23.44-67.97,16.29-17.71,12.97-39.34,16.49-59.96,9.73l-52.32-17.14-4.35,10.84c30.11,7.93,58.6,16.08,87.57,26.14,4.92,1.71,6.72,7.41,5.58,10.81-1.51,4.49-5.87,7.88-10.79,6.25-29.41-9.74-58.13-18.45-88.88-26.21ZM530.75,441.87l-13.42-6.96-9.85,9.79c-3.63,3.61-9.77,2.88-12.88-.66-3.1-3.51-2.97-9.04.73-12.69l5.34-5.27-13.05-7.41-8.97,8.98c-3.89,3.89-10,3.84-13.56-.16-3.07-3.45-2.89-8.99.76-12.62l5.37-5.33-12.61-7.72-10.1,9.84c-3.69,3.59-9.71,2.94-12.89-.65-3.1-3.5-2.9-8.99.73-12.63l6.32-6.34-10.15-5.33-95.1,105.89c16.94,11.44,31.65,24.35,37.36,43.51l86.61,9.85c11.73-24.31,37.3-44.58,61.51-56.24,11.32-5.45,22.57-7.67,35.15-8.84,16.46-1.54,38.08-8.18,29.81-11.97l-39.96-18.33-10.91,10.63c-3.72,3.62-9.71,2.96-12.88-.61-3.16-3.55-2.91-9,.72-12.68l5.94-6.01ZM608.25,498.26c18.4-5.94,35.57-12.3,54.45-19.73-17.86-4.92-35.29-6.45-54.1-7.74-1.77,19.68-23.73,23.66-43.74,27.59,8.42,8.39,29.75,4.29,43.39-.12ZM122.75,561.24c34.35,22.38,84.44,32.21,126.5,32.19l335.89-.17c28.94-.01,76.36-12.86,89.2-39.96-28.4,7.55-55.62,12.59-84.22,15.06-5.57.48-9.33-3.97-9.49-8.73-.14-4.19,3-8.55,8.04-9.07,32.38-3.34,64.04-8.8,94.81-19.18,8.18-12.93,6.53-28.54-1.08-40.95l-69.44,25.41c-12.81,3.32-25.08,6.02-38.14,5.22-13.56-1.12-24.57-8.04-30.37-20.46-25.95,8.76-47.74,24.57-63.9,47.04,24.31,2.51,47.04,4.42,70.55,4.63,6.21.06,11.31,1.98,11.6,8.7.2,4.54-3.76,9.59-9.51,9.46-19.85-.44-38.77-1.11-58.86-3.31l-129.67-14.21-225.79-30.1-16.13,38.43Z"/>
    <path d="M387.68,378.12c4.78-2.11,10.12-.4,12.31,4.51,1.66,3.72-.04,8.86-4.12,11.18-4.16,2.37-9.36,1.12-11.94-3.14-2.47-4.08-1.26-10.33,3.76-12.54Z"/>
  </g>
</svg>