<svg xmlns="http://www.w3.org/2000/svg" viewBox="0 0 464.95 464.95">
  <rect width="464.95" height="464.95" rx="100" fill="#2d2a24"/>
  <path fill="#f1f2f2" d="M108.33,265.23c1.08.15,2.16.45,3.21.91,6.38,2.81,12.26,6.51,18.21,10.09v-81.28c-.01-5.07-4.44-10.29-8.29-11.03-3.89-.75-8.87,1.51-11.81,4.48l-29.3,39.7-41.12-38.97,56.79-84.96c4.95-7.4,12.86-13.07,20.8-16.39l40.98-17.13c4.64,38.43,36.24,66.05,73.95,65.61,37.03-.43,68.56-27.29,72.51-65.53l41.9,17.47c7.25,3.02,13.56,8.52,18.75,14l18.53-11.48c-7.1-9.19-15.54-16.71-25.97-21.14l-57.02-24.22c-9.05-3.84-12.78-1.6-20.13,4.18-28.46,22.35-71.68,21.79-99.75-.93-5.29-4.28-9.97-7.15-16.53-4.34l-58.52,25.1c-9.18,3.94-19.24,10.7-24.99,19.3l-63.18,94.43c-3.52,5.26-1.86,13.15,2.25,17.07l48.19,45.91c6.53,6.22,18.03,9.26,24.33,1.19l16.17-20.71.04,38.68ZM281.78,74.36c-5.01,23.65-25.61,40.16-48.34,40.66-23.49.51-46.45-13.15-52.44-39.39,33.01,15.12,69.04,16.35,100.78-1.26Z"/>
  <path fill="#f1f2f2" d="M443.86,181.99l-35.19-53.75-16.81,13.48,31.21,47.54-41.03,38.83-31.71-42.41-17.92,24.65v180.94c-.01,5.28-4.48,8.89-9.46,8.89h-115.63c-6.78,8-14.03,15.21-21.93,21.6l139.4.05c15.86,0,28.78-12.55,28.79-28.8l.13-166.35,14.6,18.72c2.57,3.3,8.66,6.87,12.3,6.72,3.49-.15,9.63-2.51,12.4-5.13l49.28-46.5c5.07-4.79,5.28-12.8,1.57-18.48Z"/>
  <path fill="#f58e81" d="M62.7,310.65c4.52-21.38,30.67-34.67,51.15-26.41,22.1,8.91,29.88,36.27,46.08,41.77,6.26-.32,13.21-9.47,16.76-14.81,46.74-70.31,99.78-141.41,171.45-187.13,30.04-19.16,62.24-39.23,101.38-39.09-36.94,22.23-70,41.67-99.9,70.69-72.78,70.62-114.96,145.84-162.07,233.44-5.1,9.47-15.8,16.55-24.2,17.43-11.96,1.26-21.67-5.46-28.3-15.35l-36.39-54.26c-8.14-12.14-19.74-18.6-35.96-26.28Z"/>
</svg>
